<svg width="50" height="50" viewBox="0 0 50 50" fill="none" xmlns="http://www.w3.org/2000/svg">
<rect x="0.5" y="0.5" width="49" height="49" rx="24.5" fill="#EDF0F5"/>
<path d="M5.00007 35.029C5.00007 33.6539 5.00007 32.2787 5.0027 30.9035C5.0027 30.7721 5.00533 30.638 5.03426 30.5117C5.11314 30.1699 5.42341 29.9464 5.83096 29.9385C6.26744 29.9306 6.70655 29.9333 7.14303 29.9333C8.03439 29.9333 8.92313 29.9306 9.81449 29.9359C10.2641 29.9385 10.5691 30.1463 10.6585 30.5065C10.6875 30.6222 10.6927 30.7458 10.6927 30.8667C10.6953 32.3471 10.6953 33.8274 10.6927 35.3078C10.6927 35.5549 10.6322 35.6154 10.3824 35.6154C9.97226 35.6154 9.55944 35.6154 9.14926 35.6154C8.92576 35.6154 8.85739 35.5497 8.85739 35.3209C8.85739 34.1508 8.85739 31.7791 8.85739 31.7633C8.86002 31.3453 8.79955 31.2848 8.38673 31.2848C8.00284 31.2848 7.61632 31.2848 7.23243 31.2848C6.91953 31.2848 6.83276 31.3637 6.83276 31.6739C6.83013 32.8545 6.83013 34.0351 6.83013 35.2157C6.83013 35.2788 6.83276 35.3419 6.8275 35.405C6.81961 35.5365 6.74073 35.6101 6.61452 35.6128C6.15175 35.6154 5.68634 35.6154 5.22357 35.6128C5.1184 35.6128 5.06055 35.5628 5.02374 35.4892C4.99744 35.434 5.00007 35.0869 5.00007 35.029Z" fill="#4D585B"/>
<path d="M11.4715 36.9985C11.4136 36.9985 11.3558 36.9853 11.3058 36.9538C11.2191 36.9012 11.1875 36.817 11.1875 36.6882C11.1928 35.1815 11.1901 33.6749 11.1901 32.1683C11.1901 31.6108 11.4478 31.3295 12.0026 31.3216C12.7336 31.3084 13.4672 31.3163 14.2008 31.319C14.5005 31.3216 14.7871 31.3873 15.0474 31.5372C15.4419 31.766 15.6417 32.1288 15.7232 32.5574C15.8494 33.2332 15.831 33.9115 15.647 34.5768C15.4918 35.1421 15.1106 35.4839 14.5373 35.5602C14.1377 35.6128 12.9781 35.6154 12.7783 35.6154C12.7783 35.6995 12.7783 35.7705 12.7783 35.8415C12.7783 36.1255 12.7783 36.3516 12.7783 36.6356C12.7783 36.8749 12.6678 36.9932 12.4312 36.9958C12.2103 37.0011 11.666 37.0011 11.4715 36.9985ZM12.7862 34.2823C12.7888 34.3848 12.8703 34.4637 12.9729 34.4663C13.1543 34.4716 13.3988 34.469 13.5697 34.4663C13.9247 34.4585 14.1061 34.2665 14.1403 33.9194C14.1719 33.6039 14.1666 33.2779 14.1298 32.9623C14.0956 32.6468 13.8721 32.4785 13.5513 32.468C13.3883 32.4627 13.2253 32.4654 13.0623 32.4654C12.8388 32.4654 12.7783 32.5232 12.7783 32.7441C12.7757 33.1516 12.7809 33.9247 12.7862 34.2823Z" fill="#4D585B"/>
<path d="M20.9924 32.6573C20.8346 31.8711 20.4376 31.4662 19.6566 31.34C18.9099 31.219 18.1553 31.219 17.4085 31.3584C16.7775 31.4767 16.3752 31.858 16.2148 32.4785C16.0465 33.128 16.0465 33.7827 16.2095 34.4322C16.3673 35.0606 16.7643 35.455 17.4059 35.5654C17.7924 35.6312 19.186 35.6496 19.4831 35.618C20.3271 35.526 20.8031 35.1237 20.9766 34.3533C21.1028 33.7906 21.1054 33.2226 20.9924 32.6573ZM19.4752 33.8064C19.4752 34.2166 19.1439 34.5479 18.7337 34.5479H18.4287C18.0185 34.5479 17.6872 34.2166 17.6872 33.8064V33.0807C17.6872 32.6705 18.0185 32.3392 18.4287 32.3392H18.7179C19.136 32.3392 19.4752 32.6784 19.4752 33.0964V33.8064V33.8064Z" fill="#4D585B"/>
<path d="M22.8109 35.5971C21.9748 35.5287 21.5094 35.0686 21.4095 34.2351C21.3437 33.6934 21.3437 33.1518 21.4384 32.6127C21.5672 31.8581 22.0826 31.3664 22.8451 31.3348C23.6392 31.3033 24.4359 31.3164 25.2326 31.3164C25.3904 31.3164 25.4587 31.3927 25.4614 31.5557C25.4666 31.7503 25.464 31.9449 25.4614 32.1421C25.4587 32.3261 25.3851 32.3971 25.1984 32.3971C24.7672 32.3997 24.3333 32.3971 23.9021 32.3997C23.3289 32.4024 23.0555 32.6417 23.0108 33.2175C22.9924 33.4725 22.9976 33.7355 23.0371 33.9879C23.0923 34.3455 23.3079 34.5164 23.6734 34.5269C24.1624 34.5374 24.6541 34.5348 25.1432 34.5348C25.5297 34.5348 25.5508 34.5559 25.5508 34.9476C25.5508 35.0844 25.5508 35.2211 25.5508 35.3578C25.5481 35.5471 25.4824 35.6181 25.2931 35.6181C24.896 35.6208 23.2395 35.6339 22.8109 35.5971Z" fill="#4D585B"/>
<path d="M25.9506 33.6908C25.9506 33.1754 25.9479 32.6574 25.9506 32.1421C25.9532 31.6188 26.2188 31.3296 26.742 31.3243C27.7543 31.3112 28.7667 31.3112 29.7763 31.3243C30.3101 31.3296 30.573 31.6162 30.573 32.1526C30.5757 33.2122 30.5757 34.2719 30.573 35.3315C30.573 35.5576 30.5099 35.6181 30.2786 35.6181C29.9525 35.6181 29.6238 35.6181 29.2978 35.6181C29.048 35.6181 28.9875 35.5576 28.9875 35.3131C28.9875 34.4585 28.9875 33.6066 28.9875 32.7521C28.9875 32.4655 28.9218 32.3997 28.6326 32.3971C28.3696 32.3971 28.1067 32.3945 27.8411 32.3971C27.6045 32.3997 27.5282 32.476 27.5282 32.7126C27.5282 33.5724 27.5282 34.4296 27.5282 35.2894C27.5282 35.5655 27.4756 35.6181 27.1943 35.6181C26.8735 35.6181 26.5501 35.6181 26.2293 35.6181C26.011 35.6181 25.9453 35.5524 25.9453 35.3368C25.9506 34.7872 25.9506 34.2403 25.9506 33.6908Z" fill="#4D585B"/>
<path d="M34.9066 33.909C35.301 33.9063 35.535 33.7328 35.5718 33.341C35.6034 33.0202 35.5955 32.6863 35.5455 32.3681C35.4377 31.6871 35.1511 31.4005 34.478 31.319C33.6918 31.227 32.8977 31.2191 32.1142 31.3427C31.3858 31.4584 31.0651 31.7686 31.0177 32.4943C30.973 33.1701 30.9836 33.8537 31.044 34.5295C31.1071 35.221 31.4963 35.5707 32.1931 35.5944C33.2028 35.6286 34.2151 35.6154 35.2274 35.6181C35.372 35.6181 35.4483 35.5313 35.4483 35.3867C35.4483 35.2026 35.4483 35.0186 35.4483 34.8345C35.4483 34.5111 35.4088 34.4716 35.0854 34.4716C34.4149 34.4716 33.747 34.4743 33.0765 34.4664C32.7242 34.4611 32.5586 34.2797 32.577 33.9168C32.648 33.9116 34.194 33.9116 34.9066 33.909ZM32.974 32.3655C33.1922 32.3524 33.4157 32.3602 33.634 32.3681C33.7102 32.3708 33.7891 32.3971 33.8601 32.4312C33.9811 32.4917 34.0363 32.5943 34.0047 32.731C33.9732 32.8625 33.8522 32.8993 33.7313 32.8993C33.3421 32.9019 32.9766 32.8993 32.5796 32.8993C32.527 32.5469 32.6453 32.3865 32.974 32.3655Z" fill="#4D585B"/>
<path d="M37.5888 31.6109C37.5888 31.3821 37.5257 31.3164 37.3022 31.3137C36.9604 31.3111 36.6186 31.3111 36.2742 31.3137C36.0664 31.3137 35.9981 31.3795 35.9981 31.5898C35.9954 32.844 35.9954 34.0983 35.9981 35.3499C35.9981 35.5444 36.0717 35.6154 36.2689 35.6154C36.6055 35.6181 36.942 35.6154 37.2812 35.6154C37.5257 35.6154 37.5888 35.5497 37.5888 35.3078C37.5888 34.6925 37.5888 34.0746 37.5888 33.4593C37.5888 32.844 37.5888 32.2288 37.5888 31.6109Z" fill="#4D585B"/>
<path d="M40.777 35.4813C40.5272 35.1552 39.8304 34.2507 39.4754 33.8169C39.1888 33.4645 39.1862 33.362 39.4518 33.0018C39.4807 32.965 40.4089 31.7476 40.6324 31.4504C40.6692 31.4005 40.635 31.3321 40.5745 31.3295C40.2642 31.3242 39.5438 31.3111 39.1967 31.3216C39.102 31.3242 38.9758 31.39 38.9206 31.4662C38.5578 31.9711 38.2107 32.4864 37.8557 32.9965C37.6559 33.2857 37.6638 33.5539 37.8741 33.8379C38.2712 34.3691 38.655 34.9107 39.0468 35.4471C39.1336 35.5681 39.2467 35.6207 39.3992 35.618C39.7305 35.6128 40.4141 35.6049 40.7191 35.5996C40.7796 35.6022 40.8138 35.5313 40.777 35.4813Z" fill="#4D585B"/>
<path d="M45.4702 31.5951C45.4676 31.3795 45.4019 31.3137 45.1626 31.3137C44.7524 31.3137 44.3449 31.3137 43.9347 31.3137C43.8164 31.3137 41.9758 31.3137 41.1738 31.3137C40.9529 31.3137 40.8898 31.3795 40.8898 31.5951C40.8898 31.8002 40.8872 32.0053 40.8898 32.2103C40.8925 32.355 40.9635 32.4365 41.1133 32.4391C41.3079 32.4417 42.1467 32.4391 42.3886 32.4391C42.3886 32.518 42.3886 32.5732 42.3886 32.631C42.3886 33.5224 42.3886 34.4111 42.3886 35.3025C42.3886 35.5628 42.4438 35.6154 42.7068 35.6154C43.017 35.6154 43.3273 35.6154 43.6402 35.6154C43.9242 35.6154 43.9741 35.5654 43.9741 35.2867C43.9741 34.4059 43.9741 33.5277 43.9741 32.6468C43.9741 32.5837 43.9741 32.5232 43.9741 32.4391C44.3212 32.4391 45.0443 32.4391 45.2283 32.4391C45.3887 32.4365 45.4676 32.355 45.4676 32.2103C45.4729 32.0079 45.4729 31.8028 45.4702 31.5951Z" fill="#4D585B"/>
<path d="M17.6426 15.2368L18.6996 14.8135V15.8679L17.6426 16.278V15.2368Z" fill="#EDF0F5"/>
<path d="M17.6426 17.2878L18.6996 16.8645V17.9189L17.6426 18.3291V17.2878Z" fill="#EDF0F5"/>
<path d="M12.5861 20.9925L11.416 21.4264V20.3852L12.5861 19.9119V20.9925Z" fill="#EDF0F5"/>
<path d="M16.1309 25.0102L17.2615 24.6211V25.6176L16.1309 26.0094V25.0102Z" fill="#EDF0F5"/>
<path d="M33.7129 18.3525V19.2176L34.7226 19.541V18.6681L33.7129 18.3525Z" fill="#488A99"/>
<path d="M33.7129 19.9302V20.7952L34.7226 21.1187V20.2457L33.7129 19.9302Z" fill="#488A99"/>
<path d="M37.9844 24.4554V25.5861L39.0177 25.8753V24.7578L37.9844 24.4554Z" fill="#B4B4B4"/>
<path d="M22.1243 12L17.7832 13.7065V29.5643C17.7832 29.709 17.9015 29.7747 18.0461 29.7747H21.8667C22.0113 29.7747 22.1243 29.709 22.1243 29.5643V12.7231L25.3322 13.7512V29.609C25.3322 29.73 25.4295 29.8273 25.5504 29.8273H25.8134C25.9343 29.8273 26.0316 29.73 26.0316 29.609V13.2726L22.1243 12Z" fill="#B4B4B4"/>
<path d="M13.9941 18.3893V29.9113H19.4738V19.7224L14.4701 18.1053L13.9941 18.3893Z" fill="#EDF0F5"/>
<path d="M14.5732 17.7478L11.4941 19.0204V29.6195C11.4941 29.7536 11.6019 29.8614 11.7334 29.8614H14.3812C14.5127 29.8614 14.6205 29.7536 14.6205 29.6195L14.5758 18.4946L19.0195 19.988V29.6484C19.0195 29.7641 19.1352 29.7484 19.2509 29.7484H19.5401C19.6558 29.7484 19.761 29.7641 19.761 29.6484V19.5148L14.5732 17.7478Z" fill="#488A99"/>
<path d="M20.2305 21.8813V29.8616H22.6548V22.8306L20.2305 21.8813Z" fill="#EDF0F5"/>
<path d="M20.3829 21.1898L16.2363 22.3915V29.6801C16.2363 29.78 16.3178 29.8616 16.4178 29.8616H20.2015C20.3014 29.8616 20.3829 29.78 20.3829 29.6801V22.0628L22.3129 22.8227V29.6591C22.3129 29.7722 22.4049 29.8616 22.5153 29.8616H22.7993C22.9124 29.8616 23.0018 29.7695 23.0018 29.6591V22.3652L20.3829 21.1898Z" fill="#DBAE58"/>
<path d="M31.4698 15.4786L27.6914 16.7592V29.6511C27.6914 29.7668 27.7992 29.8351 27.9359 29.8351H31.2279C31.362 29.8351 31.4725 29.7668 31.4725 29.6511V16.2385L34.6277 17.2587L34.6777 29.6879C34.6777 29.7825 34.7671 29.7825 34.8802 29.7825H35.1221C35.2325 29.7825 35.3245 29.7852 35.3245 29.6879V16.7539L31.4698 15.4786Z" fill="#488A99"/>
<path d="M28.8101 24.8422L30.9978 25.6757V29.9221H28.5156L28.8101 24.8422Z" fill="#EDF0F5"/>
<path d="M28.8097 24.8422L26.998 25.5547V29.7933C26.998 29.8485 27.0533 29.8932 27.1216 29.8932H28.6835C28.7519 29.8932 28.8071 29.8485 28.8071 29.7933L28.8018 25.2734" fill="#DBAE58"/>
<path d="M35.9716 21.6973L33.0293 22.8831V29.6959C33.0293 29.7879 33.1082 29.8642 33.2055 29.8642H35.798C35.8953 29.8642 35.9742 29.7905 35.9742 29.6959V22.4729L38.9297 23.4353V29.6748C38.9297 29.7774 39.0164 29.8615 39.1689 29.8615H39.4108C39.4766 29.8615 39.608 29.7774 39.608 29.6748L39.6159 22.9357L35.9716 21.6973Z" fill="#B4B4B4"/>
<rect x="0.5" y="0.5" width="49" height="49" rx="24.5" stroke="#488A99"/>
</svg>
