<svg width="653" height="430" fill="none" xmlns="http://www.w3.org/2000/svg">
    <g filter="url(#a)" fill="#fff">
        <path d="M35.001 350.374c0-19.788 0-39.576.038-59.364 0-1.892.038-3.822.454-5.638 1.135-4.918 5.6-8.134 11.466-8.248 6.281-.113 12.6-.075 18.882-.075 12.828 0 25.619-.038 38.446.037 6.471.038 10.861 3.027 12.147 8.211.417 1.664.492 3.443.492 5.183.038 21.302.038 42.603 0 63.905 0 3.556-.87 4.426-4.465 4.426H94.714c-3.217 0-4.2-.946-4.2-4.237v-51.192c.037-6.016-.833-6.886-6.774-6.886H67.128c-4.503 0-5.752 1.135-5.752 5.6-.038 16.988-.038 33.976-.038 50.964 0 .908.038 1.816-.038 2.724-.113 1.892-1.248 2.952-3.065 2.99-6.66.037-13.358.037-20.017 0-1.514 0-2.347-.719-2.876-1.779-.379-.794-.34-5.789-.34-6.621ZM128.125 378.713c-.832 0-1.665-.189-2.384-.643-1.249-.757-1.703-1.967-1.703-3.821.076-21.68.038-43.36.038-65.04 0-8.021 3.709-12.069 11.693-12.183 10.52-.189 21.077-.076 31.635-.038 4.314.038 8.438.984 12.184 3.141 5.677 3.291 8.552 8.513 9.726 14.68 1.816 9.724 1.551 19.485-1.098 29.058-2.232 8.134-7.719 13.053-15.969 14.15-5.751.757-22.439.795-25.315.795v14.68c0 3.443-1.589 5.146-4.995 5.183-3.179.076-11.012.076-13.812.038Zm18.92-39.084c.038 1.476 1.211 2.611 2.687 2.649 2.611.075 6.13.037 8.59 0 5.108-.114 7.719-2.876 8.211-7.87.455-4.541.379-9.232-.151-13.772-.492-4.541-3.708-6.962-8.325-7.113-2.346-.076-4.692-.038-7.038-.038-3.217 0-4.087.832-4.087 4.01-.038 5.865.038 16.988.113 22.134ZM265.149 316.246c-2.271-11.313-7.984-17.14-19.223-18.956-10.747-1.74-21.607-1.74-32.354.265-9.082 1.703-14.871 7.189-17.18 16.118-2.421 9.345-2.421 18.766-.075 28.112 2.27 9.043 7.984 14.718 17.217 16.307 5.563.946 25.618 1.211 29.894.757 12.147-1.325 18.996-7.113 21.494-18.199 1.816-8.097 1.854-16.27.227-24.404Zm-21.834 16.534c0 5.902-4.768 10.67-10.671 10.67h-4.39a10.659 10.659 0 0 1-10.671-10.67v-10.443a10.658 10.658 0 0 1 10.671-10.669h4.163c6.016 0 10.898 4.88 10.898 10.896v10.216ZM291.334 358.547c-12.034-.984-18.731-7.605-20.169-19.599-.946-7.794-.946-15.589.416-23.345 1.854-10.859 9.271-17.934 20.245-18.388 11.427-.454 22.893-.265 34.359-.265 2.27 0 3.254 1.097 3.292 3.443.076 2.8.038 5.6 0 8.438-.038 2.648-1.097 3.67-3.784 3.67-6.206.037-12.45 0-18.655.038-8.25.037-12.185 3.48-12.828 11.766-.265 3.67-.19 7.454.378 11.086.795 5.146 3.898 7.605 9.157 7.757 7.039.151 14.115.113 21.153.113 5.563 0 5.866.303 5.866 5.94v5.903c-.038 2.724-.984 3.745-3.709 3.745-5.714.038-29.553.227-35.721-.302ZM336.514 331.116c0-7.416-.038-14.87 0-22.285.038-7.53 3.86-11.692 11.39-11.767 14.569-.189 29.138-.189 43.668 0 7.682.075 11.466 4.2 11.466 11.918.038 15.248.038 30.496 0 45.743 0 3.254-.908 4.124-4.238 4.124h-14.115c-3.594 0-4.465-.87-4.465-4.389v-36.851c0-4.125-.946-5.07-5.108-5.108-3.784 0-7.568-.038-11.39 0-3.406.038-4.503 1.135-4.503 4.54v37.079c0 3.973-.757 4.729-4.806 4.729h-13.888c-3.141 0-4.087-.946-4.087-4.048.076-7.908.076-15.778.076-23.685ZM465.402 334.256c5.676-.038 9.044-2.535 9.574-8.172.454-4.616.34-9.422-.379-14-1.551-9.799-5.676-13.923-15.363-15.096-11.314-1.324-22.742-1.438-34.019.34-10.482 1.665-15.097 6.13-15.778 16.572-.643 9.724-.492 19.561.378 29.285.908 9.951 6.508 14.983 16.536 15.324 14.53.492 29.099.302 43.668.34 2.081 0 3.178-1.248 3.178-3.329v-7.946c0-4.654-.567-5.221-5.222-5.221-9.649 0-19.261.038-28.91-.076-5.071-.075-7.455-2.686-7.19-7.907 1.022-.076 23.272-.076 33.527-.114Zm-27.813-22.209c3.141-.19 6.357-.076 9.498.037 1.098.038 2.233.417 3.255.908 1.74.871 2.535 2.346 2.081 4.314-.454 1.891-2.195 2.421-3.936 2.421-5.6.038-10.86 0-16.574 0-.757-5.07.946-7.378 5.676-7.68ZM503.998 301.188c0-3.292-.908-4.238-4.125-4.275a960.063 960.063 0 0 0-14.795 0c-2.99 0-3.974.946-3.974 3.972-.037 18.048-.037 36.096 0 54.105 0 2.8 1.06 3.822 3.898 3.822 4.844.038 9.687 0 14.569 0 3.519 0 4.427-.946 4.427-4.427v-53.197ZM549.898 356.881c-3.595-4.691-13.623-17.707-18.731-23.95-4.125-5.07-4.163-6.545-.341-11.729.416-.529 13.774-18.047 16.991-22.323a1.089 1.089 0 0 0-.833-1.74c-4.465-.076-14.833-.265-19.828-.114-1.363.038-3.179.984-3.974 2.081-5.222 7.265-10.217 14.681-15.325 22.021-2.876 4.162-2.763 8.021.265 12.107 5.714 7.643 11.238 15.437 16.877 23.155 1.248 1.741 2.876 2.498 5.07 2.46 4.768-.076 14.607-.189 18.996-.265.871.038 1.363-.984.833-1.703ZM617.407 300.961c-.038-3.103-.984-4.049-4.427-4.049h-57.405c-3.178 0-4.087.946-4.087 4.049 0 2.951-.037 5.902 0 8.853.038 2.081 1.06 3.254 3.217 3.292 2.8.038 14.871 0 18.353 0v41.203c0 3.745.794 4.502 4.578 4.502h13.434c4.087 0 4.806-.719 4.806-4.729v-40.976h18.05c2.308-.038 3.443-1.211 3.443-3.292.076-2.913.076-5.864.038-8.853Z"/>
        <path fill-rule="evenodd" clip-rule="evenodd" d="m281.458 19-62.475 24.555v21.202l13.167-5.273v15.172l-13.167 5.11v14.503l13.167-5.273v15.172l-13.167 5.109v14.353c0 2.081 20.993 5.668 20.993 5.668 2.081 0 0 26.742 0 26.742s41.482 14.927 41.482 12.846V29.405l46.165 14.794v228.186c0 1.741 1.4 3.141 3.141 3.141h3.784c1.741 0 3.141-1.4 3.141-3.141V37.313L281.458 19Z"/>
        <path fill-rule="evenodd" clip-rule="evenodd" d="m128.467 120.021 44.312-18.313 74.659 25.426v145.819c0 1.483-1.2 1.464-2.64 1.443a31.463 31.463 0 0 0-.538-.006h-4.163c-.18 0-.361.003-.539.006-1.467.021-2.791.041-2.791-1.443V133.944l-63.95-21.49.643 160.082c0 1.93-1.552 3.481-3.444 3.481h-38.105c-1.892 0-3.444-1.551-3.444-3.481V154.22l15.703-5.822v-15.55l-15.703 6.35v-19.177Z"/>
        <path fill-rule="evenodd" clip-rule="evenodd" d="m196.734 168.527 59.675-17.291 37.689 16.912v104.956a2.915 2.915 0 0 1-2.914 2.914h-4.087a2.915 2.915 0 0 1-2.913-2.914v-98.372l-27.775-10.935v109.61a2.616 2.616 0 0 1-2.611 2.611h-54.453a2.616 2.616 0 0 1-2.611-2.611v-53.355l14.72-5.101v-14.339l-14.72 5.066v-37.151Z"/>
        <path d="M416.377 69 362 87.426v185.508c0 1.665 1.551 2.649 3.519 2.649h47.377c1.93 0 3.519-.984 3.519-2.649v-193l45.409 14.68.719 178.85c0 1.362 1.286 1.362 2.914 1.362h3.481c1.589 0 2.914.038 2.914-1.362V87.35L416.377 69Z"/>
        <path d="M448.224 110.411v12.448l14.53 4.654v-12.562l-14.53-4.54ZM448.224 133.113v12.448l14.53 4.653v-12.561l-14.53-4.54ZM480.728 158.538l-42.344 17.064v98.032c0 1.324 1.135 2.422 2.535 2.422h37.311c1.4 0 2.536-1.06 2.536-2.422V169.7l42.533 13.847v89.784c0 1.476 1.248 2.687 3.443 2.687h3.481c.947 0 2.839-1.211 2.839-2.687l.113-96.972-52.447-17.821Z"/>
        <path d="M509.675 198.227v16.269l14.871 4.162v-16.08l-14.871-4.351Z"/>
    </g>
    <defs>
        <filter id="a" x="0" y="0" width="652.432" height="429.738" filterUnits="userSpaceOnUse" color-interpolation-filters="sRGB">
            <feFlood flood-opacity="0" result="BackgroundImageFix"/>
            <feColorMatrix in="SourceAlpha" values="0 0 0 0 0 0 0 0 0 0 0 0 0 0 0 0 0 0 127 0" result="hardAlpha"/>
            <feOffset/>
            <feColorMatrix values="0 0 0 0 0.0509804 0 0 0 0 0.145098 0 0 0 0 0.14902 0 0 0 0.2 0"/>
            <feBlend in2="BackgroundImageFix" result="effect1_dropShadow_1_1875"/>
            <feColorMatrix in="SourceAlpha" values="0 0 0 0 0 0 0 0 0 0 0 0 0 0 0 0 0 0 127 0" result="hardAlpha"/>
            <feOffset dy="16"/>
            <feGaussianBlur stdDeviation="17.5"/>
            <feColorMatrix values="0 0 0 0 0.0509804 0 0 0 0 0.145098 0 0 0 0 0.14902 0 0 0 0.2 0"/>
            <feBlend in2="effect1_dropShadow_1_1875" result="effect2_dropShadow_1_1875"/>
            <feBlend in="SourceGraphic" in2="effect2_dropShadow_1_1875" result="shape"/>
        </filter>
    </defs>
</svg>
