<svg width="125" height="77" fill="none" xmlns="http://www.w3.org/2000/svg">
    <path d="M0 70.928c0-4.235 0-8.47.008-12.706 0-.405.008-.818.098-1.207.243-1.053 1.202-1.741 2.46-1.765 1.349-.025 2.705-.017 4.053-.017 2.753 0 5.498-.008 8.251.009 1.39.008 2.331.648 2.607 1.757.09.356.106.737.106 1.11.008 4.559.008 9.118 0 13.678 0 .761-.187.947-.958.947h-3.81c-.69 0-.9-.202-.9-.907V60.87c.007-1.288-.18-1.474-1.454-1.474H6.894c-.966 0-1.234.243-1.234 1.199-.008 3.636-.008 7.272-.008 10.908 0 .195.008.39-.008.584-.025.404-.268.631-.658.64-1.43.007-2.867.007-4.296 0a.632.632 0 0 1-.618-.381c-.08-.17-.073-1.24-.073-1.418ZM19.986 76.994a.953.953 0 0 1-.511-.138c-.268-.162-.366-.421-.366-.818.017-4.64.008-9.28.008-13.921 0-1.717.796-2.584 2.51-2.608 2.258-.04 4.524-.016 6.79-.008.925.008 1.81.21 2.614.672 1.219.705 1.836 1.822 2.088 3.142.39 2.082.333 4.171-.236 6.22-.48 1.741-1.657 2.794-3.427 3.029-1.235.162-4.816.17-5.433.17V75.876c0 .737-.341 1.102-1.072 1.11-.682.016-2.364.016-2.965.008Zm4.061-8.366c.008.316.26.559.577.567.56.016 1.315.008 1.843 0 1.097-.024 1.657-.616 1.763-1.685.097-.971.08-1.976-.033-2.948-.105-.971-.796-1.49-1.787-1.522-.503-.016-1.007-.008-1.51-.008-.69 0-.877.178-.877.858-.008 1.256.008 3.637.024 4.738ZM49.394 63.623c-.487-2.421-1.713-3.669-4.125-4.057-2.307-.373-4.637-.373-6.944.056-1.95.365-3.192 1.54-3.687 3.45-.52 2-.52 4.017-.016 6.017.487 1.936 1.713 3.15 3.695 3.491 1.194.202 5.498.26 6.416.162 2.607-.284 4.077-1.523 4.613-3.895.39-1.733.398-3.483.048-5.224Zm-4.686 3.54a2.284 2.284 0 0 1-2.29 2.283h-.942a2.284 2.284 0 0 1-2.29-2.284v-2.235a2.284 2.284 0 0 1 2.29-2.284h.893a2.336 2.336 0 0 1 2.34 2.332v2.187ZM55.014 72.677c-2.582-.21-4.02-1.628-4.328-4.195-.203-1.668-.203-3.337.089-4.997.398-2.324 1.99-3.838 4.345-3.936 2.452-.097 4.913-.056 7.374-.056.487 0 .698.235.706.737.017.599.009 1.198 0 1.806-.008.567-.235.785-.812.785-1.331.008-2.671 0-4.003.008-1.77.008-2.615.745-2.753 2.519-.057.785-.041 1.595.08 2.373.171 1.101.837 1.628 1.966 1.66 1.51.032 3.03.024 4.54.024 1.194 0 1.259.065 1.259 1.272v1.263c-.008.583-.211.802-.796.802-1.227.008-6.343.048-7.667-.065ZM64.71 66.806c0-1.587-.007-3.183 0-4.77.009-1.611.829-2.502 2.445-2.519 3.127-.04 6.254-.04 9.372 0 1.649.017 2.46.9 2.46 2.551.009 3.264.009 6.528 0 9.792 0 .696-.194.882-.909.882H75.05c-.772 0-.958-.186-.958-.94v-7.887c0-.883-.203-1.085-1.097-1.093-.812 0-1.624-.009-2.444 0-.731.008-.967.243-.967.971v7.937c0 .85-.162 1.012-1.031 1.012h-2.98c-.675 0-.878-.202-.878-.866.017-1.693.017-3.377.017-5.07ZM92.371 67.478c1.219-.008 1.941-.542 2.055-1.75.098-.987.073-2.016-.081-2.996-.333-2.097-1.218-2.98-3.297-3.231-2.429-.283-4.881-.308-7.301.073-2.25.356-3.24 1.312-3.387 3.547a40.395 40.395 0 0 0 .082 6.268c.194 2.13 1.396 3.207 3.548 3.28 3.119.106 6.246.065 9.372.073.447 0 .682-.267.682-.713v-1.7c0-.996-.121-1.118-1.12-1.118-2.071 0-4.134.008-6.205-.016-1.088-.016-1.6-.575-1.543-1.693.22-.016 4.995-.016 7.195-.024Zm-5.969-4.754c.674-.04 1.365-.016 2.039.008.235.008.479.09.698.195.374.186.544.502.447.923-.098.405-.471.518-.845.518-1.202.008-2.33 0-3.557 0-.162-1.085.203-1.579 1.218-1.644ZM100.655 60.4c0-.704-.195-.906-.885-.914a207.475 207.475 0 0 0-3.176 0c-.641 0-.853.202-.853.85-.008 3.863-.008 7.726 0 11.58 0 .6.228.819.837.819 1.04.008 2.079 0 3.127 0 .755 0 .95-.203.95-.948V60.401ZM110.506 72.321c-.771-1.004-2.924-3.79-4.02-5.126-.885-1.085-.893-1.401-.073-2.51.089-.114 2.956-3.864 3.646-4.779a.233.233 0 0 0-.178-.372c-.959-.017-3.184-.057-4.256-.025-.292.008-.682.21-.853.446-1.12 1.555-2.192 3.142-3.289 4.713-.617.89-.593 1.717.057 2.592 1.226 1.635 2.412 3.304 3.622 4.956.268.372.617.534 1.088.526 1.024-.016 3.135-.04 4.077-.056.187.008.293-.211.179-.365ZM124.995 60.352c-.008-.664-.212-.867-.951-.867h-12.32c-.682 0-.877.203-.877.867 0 .632-.008 1.263 0 1.895.008.445.228.696.691.705.601.008 3.191 0 3.938 0V71.77c0 .802.171.963.983.963h2.883c.877 0 1.032-.153 1.032-1.012V62.952h3.873c.496-.009.74-.26.74-.705.016-.624.016-1.255.008-1.895Z" fill="#fff"/>
    <path fill-rule="evenodd" clip-rule="evenodd" d="M52.894 0 39.485 5.256v4.538l2.827-1.129v3.248l-2.827 1.093v3.105l2.827-1.129v3.248l-2.827 1.094v3.071c0 .446 4.506 1.214 4.506 1.214.447 0 0 5.724 0 5.724s8.903 3.195 8.903 2.75V2.226l9.908 3.167v48.842c0 .372.3.672.674.672h.812c.373 0 .674-.3.674-.672V3.92L52.894 0Z" fill="#fff"/>
    <path fill-rule="evenodd" clip-rule="evenodd" d="m20.06 21.623 9.51-3.92 16.023 5.442v31.212c0 .317-.258.314-.567.309l-.115-.001H43.902c-.315.006-.6.01-.6-.308V24.603l-13.724-4.6.138 34.265a.742.742 0 0 1-.74.745H20.8a.742.742 0 0 1-.74-.745V28.943l3.371-1.246v-3.329l-3.37 1.36v-4.105Z" fill="#fff"/>
    <path fill-rule="evenodd" clip-rule="evenodd" d="m34.71 32.006 12.807-3.701 8.089 3.62V54.39c0 .34-.276.624-.625.624h-.877a.625.625 0 0 1-.626-.624V33.334l-5.96-2.34v23.46a.56.56 0 0 1-.561.56H35.27a.56.56 0 0 1-.56-.56v-11.42l3.16-1.091v-3.07l-3.16 1.085v-7.952Z" fill="#fff"/>
    <path d="m81.757 10.715-11.67 3.944v39.707c0 .356.333.567.755.567H81.01c.414 0 .755-.21.755-.567v-41.31l9.746 3.142.154 38.281c0 .292.276.292.625.292h.748c.34 0 .625.008.625-.292V14.643l-11.906-3.928Z" fill="#fff"/>
    <path d="M88.685 19.567v2.664l3.118.996v-2.689l-3.118-.971ZM88.685 24.426v2.664l3.118.996v-2.688l-3.118-.972Z" fill="#fff"/>
    <path d="m73.537 39.553 6.757 2.567V55.2h-7.666l.91-15.647Z" fill="#EDF0F5"/>
    <path d="m73.538 39.553-5.596 2.194v13.055c0 .17.17.308.382.308h4.824c.211 0 .382-.138.382-.308l-.016-13.921M95.661 29.867l-9.088 3.653v20.983c0 .283.244.518.544.518h8.008c.3 0 .544-.227.544-.518V32.256l9.128 2.964v19.218c0 .316.268.575.739.575h.748c.203 0 .609-.259.609-.575l.024-20.756-11.256-3.815Z" fill="#fff"/>
    <path d="M101.874 38.362v3.483l3.192.89v-3.441l-3.192-.932Z" fill="#fff"/>
</svg>
