<svg width="50" height="50" fill="none" xmlns="http://www.w3.org/2000/svg">
    <rect x=".5" y=".5" width="49" height="49" rx="24.5" fill="#EDF0F5"/>
    <path d="M5 35.029c0-1.375 0-2.75.003-4.126 0-.13.002-.265.031-.391.08-.342.39-.566.797-.573.436-.008.876-.006 1.312-.006.891 0 1.78-.002 2.671.003.45.003.755.21.845.57.028.116.034.24.034.36.002 1.481.002 2.961 0 4.442 0 .247-.06.307-.31.307H9.148c-.223 0-.292-.065-.292-.294v-3.558c.003-.418-.057-.478-.47-.478H7.232c-.312 0-.4.079-.4.389-.002 1.18-.002 2.361-.002 3.542 0 .063.003.126-.003.189-.007.131-.086.205-.212.208-.463.002-.929.002-1.391 0a.205.205 0 0 1-.2-.124c-.027-.055-.024-.402-.024-.46ZM11.472 36.998a.308.308 0 0 1-.166-.044c-.087-.053-.118-.137-.118-.266.005-1.507.002-3.013.002-4.52 0-.557.258-.838.813-.846.73-.014 1.464-.006 2.198-.003.3.003.586.068.846.218.395.229.595.592.676 1.02a4.444 4.444 0 0 1-.076 2.02c-.155.565-.536.907-1.11.983-.4.053-1.559.055-1.759.055V36.636c0 .239-.11.357-.347.36-.22.005-.765.005-.96.002Zm1.314-2.716a.189.189 0 0 0 .187.184c.181.006.426.003.597 0 .355-.008.536-.2.57-.547a4.478 4.478 0 0 0-.01-.957c-.034-.315-.258-.484-.579-.494-.163-.005-.326-.003-.489-.003-.223 0-.284.058-.284.28-.002.407.003 1.18.008 1.537ZM20.992 32.657c-.157-.786-.554-1.19-1.335-1.317a6.519 6.519 0 0 0-2.248.018c-.631.119-1.034.5-1.194 1.12a3.903 3.903 0 0 0-.006 1.954c.158.629.555 1.023 1.197 1.133.386.066 1.78.085 2.077.053.844-.092 1.32-.494 1.494-1.265.126-.562.128-1.13.015-1.696Zm-1.517 1.15a.74.74 0 0 1-.741.74h-.305a.74.74 0 0 1-.742-.74v-.726a.74.74 0 0 1 .742-.742h.289c.418 0 .757.34.757.757v.71ZM22.81 35.597c-.835-.068-1.3-.528-1.4-1.362a5.498 5.498 0 0 1 .028-1.622c.13-.755.645-1.247 1.407-1.278.794-.032 1.59-.019 2.388-.019.157 0 .226.077.228.24.006.194.003.389 0 .586-.002.184-.076.255-.263.255-.43.003-.865 0-1.296.003-.573.002-.847.242-.891.818-.019.254-.013.517.026.77.055.358.27.528.636.539.49.01.981.008 1.47.008.387 0 .408.02.408.413v.41c-.003.19-.069.26-.258.26-.397.003-2.053.016-2.482-.02ZM25.95 33.69c0-.515-.002-1.033 0-1.548.003-.523.269-.812.792-.818 1.012-.013 2.025-.013 3.034 0 .534.006.797.292.797.829.003 1.06.003 2.119 0 3.178 0 .227-.063.287-.294.287h-.981c-.25 0-.31-.06-.31-.305v-2.56c0-.288-.066-.353-.355-.356-.263 0-.526-.002-.792 0-.236.003-.313.079-.313.316v2.576c0 .276-.052.33-.334.33h-.965c-.218 0-.284-.067-.284-.282.006-.55.006-1.097.006-1.646ZM34.907 33.909c.394-.003.628-.176.665-.568.031-.32.023-.655-.027-.973-.107-.68-.394-.968-1.067-1.049a8.68 8.68 0 0 0-2.364.024c-.728.115-1.049.426-1.096 1.151a13.16 13.16 0 0 0 .026 2.035c.063.692.452 1.042 1.15 1.065 1.009.035 2.021.021 3.033.024.145 0 .221-.087.221-.231v-.553c0-.323-.04-.362-.363-.362-.67 0-1.338.002-2.008-.006-.353-.005-.518-.186-.5-.55.071-.004 1.617-.004 2.33-.007Zm-1.933-1.544c.218-.013.442-.005.66.003a.586.586 0 0 1 .226.063c.121.06.176.163.145.3-.032.131-.153.168-.274.168-.389.003-.754 0-1.151 0-.053-.352.065-.513.394-.534ZM37.589 31.61c0-.228-.063-.294-.287-.296a67.743 67.743 0 0 0-1.028 0c-.208 0-.276.066-.276.276a872.739 872.739 0 0 0 0 3.76c0 .194.074.265.27.265.337.003.674 0 1.013 0 .245 0 .308-.065.308-.307V31.61ZM40.777 35.481a89.81 89.81 0 0 0-1.302-1.664c-.286-.352-.289-.455-.023-.815.029-.037.957-1.254 1.18-1.552a.076.076 0 0 0-.057-.12c-.31-.006-1.031-.019-1.378-.008a.403.403 0 0 0-.276.144c-.363.505-.71 1.02-1.065 1.53-.2.29-.192.558.018.842.397.531.781 1.073 1.173 1.61.087.12.2.173.352.17l1.32-.018c.06.002.095-.069.058-.119ZM45.47 31.595c-.002-.215-.068-.281-.307-.281h-3.989c-.221 0-.284.066-.284.281 0 .205-.003.41 0 .615.002.145.074.227.223.23.195.002 1.034 0 1.276 0v2.863c0 .26.055.312.318.312h.933c.284 0 .334-.05.334-.328V32.439h1.254c.16-.002.24-.084.24-.229.005-.202.005-.407.002-.615Z" fill="#4D585B"/>
    <path d="m17.643 15.237 1.057-.424v1.055l-1.057.41v-1.041ZM17.643 17.288l1.057-.424v1.055l-1.057.41v-1.041ZM12.586 20.992l-1.17.434v-1.04l1.17-.474v1.08ZM16.13 25.01l1.132-.389v.997l-1.131.391v-.999Z" fill="#EDF0F5"/>
    <path d="M33.713 18.352v.866l1.01.323v-.873l-1.01-.316ZM33.713 19.93v.865l1.01.324v-.873l-1.01-.316Z" fill="#488A99"/>
    <path d="M37.984 24.455v1.131l1.034.29v-1.118l-1.034-.303ZM22.124 12l-4.34 1.707v15.857c0 .145.117.21.262.21h3.82c.145 0 .258-.065.258-.21v-16.84l3.208 1.027V29.61c0 .121.098.218.218.218h.263c.121 0 .219-.097.219-.218V13.273L22.124 12Z" fill="#B4B4B4"/>
    <path d="M13.994 18.39V29.91h5.48V19.722l-5.004-1.617-.476.284Z" fill="#EDF0F5"/>
    <path d="m14.573 17.748-3.079 1.272v10.6a.24.24 0 0 0 .24.241h2.647a.24.24 0 0 0 .24-.242l-.045-11.124 4.444 1.493v9.66c0 .116.115.1.23.1h.29c.116 0 .221.016.221-.1V19.515l-5.188-1.767Z" fill="#488A99"/>
    <path d="M20.23 21.881v7.98h2.425v-7.03l-2.425-.95Z" fill="#EDF0F5"/>
    <path d="m20.383 21.19-4.147 1.201v7.29c0 .099.082.18.182.18h3.784c.1 0 .18-.081.18-.18v-7.618l1.93.76v6.836c0 .113.093.203.203.203h.284a.203.203 0 0 0 .203-.203v-7.294l-2.62-1.175Z" fill="#DBAE58"/>
    <path d="m31.47 15.479-3.779 1.28v12.892c0 .116.108.184.245.184h3.292c.134 0 .244-.068.244-.184V16.238l3.156 1.02.05 12.43c0 .095.09.095.202.095h.242c.11 0 .203.002.203-.095V16.754l-3.855-1.275Z" fill="#488A99"/>
    <path d="m28.81 24.842 2.188.834v4.246h-2.482l.294-5.08Z" fill="#EDF0F5"/>
    <path d="m28.81 24.842-1.812.713v4.238c0 .056.055.1.124.1h1.561c.069 0 .124-.044.124-.1l-.005-4.52" fill="#DBAE58"/>
    <path d="m35.972 21.697-2.943 1.186v6.813c0 .092.08.168.176.168h2.593a.171.171 0 0 0 .176-.168v-7.223l2.956.962v6.24c0 .102.086.186.239.186h.242c.066 0 .197-.084.197-.186l.008-6.74-3.644-1.238Z" fill="#B4B4B4"/>
    <rect x=".5" y=".5" width="49" height="49" rx="24.5" stroke="#488A99"/>
</svg>
