<svg width="51" height="51" fill="none" xmlns="http://www.w3.org/2000/svg">
    <circle cx="25.5" cy="25.5" r="25" fill="#EDF0F5" stroke="#488A99"/>
    <path d="M7 34.995c0-1.254 0-2.508.002-3.761 0-.12.003-.243.03-.358.071-.311.355-.515.728-.522.399-.007.8-.005 1.2-.005.814 0 1.627-.002 2.442.002.41.003.69.192.771.52.027.106.031.219.031.329.003 1.35.003 2.7 0 4.049 0 .225-.055.28-.283.28h-1.128c-.204 0-.266-.06-.266-.268v-3.244c.002-.38-.053-.436-.43-.436H9.04c-.286 0-.365.072-.365.355-.003 1.076-.003 2.153-.003 3.229 0 .057.003.115-.002.172-.007.12-.08.188-.195.19a112.3 112.3 0 0 1-1.272 0 .187.187 0 0 1-.182-.113c-.024-.05-.022-.367-.022-.42ZM12.916 36.79a.283.283 0 0 1-.152-.04c-.079-.049-.108-.125-.108-.243.005-1.373.003-2.747.003-4.12 0-.509.235-.765.742-.772.669-.012 1.34-.005 2.01-.003.274.003.536.063.774.2.36.208.544.539.618.93a4.04 4.04 0 0 1-.07 1.84c-.142.516-.49.827-1.014.897-.366.048-1.426.05-1.608.05V36.46c0 .218-.101.326-.318.329-.202.005-.7.005-.877.002Zm1.202-2.476a.172.172 0 0 0 .17.168c.166.004.39.002.546 0 .325-.008.49-.182.522-.499a4.066 4.066 0 0 0-.01-.872c-.031-.288-.235-.442-.529-.451-.149-.005-.298-.003-.447-.003-.204 0-.26.053-.26.255-.002.371.003 1.076.008 1.402ZM21.62 32.833c-.144-.717-.507-1.086-1.22-1.201a5.976 5.976 0 0 0-2.056.016c-.577.108-.945.456-1.091 1.021a3.549 3.549 0 0 0-.005 1.782c.144.572.507.932 1.094 1.033.353.06 1.627.076 1.899.048.771-.084 1.207-.451 1.365-1.153.116-.513.118-1.031.015-1.546Zm-1.386 1.047a.676.676 0 0 1-.678.676h-.28a.676.676 0 0 1-.677-.676v-.662c0-.374.303-.676.678-.676h.264c.382 0 .693.31.693.69v.648ZM23.284 35.513c-.764-.063-1.19-.482-1.28-1.242-.06-.494-.06-.988.026-1.48.117-.687.589-1.136 1.286-1.164.726-.03 1.454-.017 2.182-.017.145 0 .207.07.21.218.004.177.002.355 0 .535-.003.167-.07.232-.24.232-.395.002-.792 0-1.186.002-.524.003-.774.221-.815.746a3.12 3.12 0 0 0 .024.702c.05.326.248.482.582.492.447.01.897.007 1.344.007.353 0 .372.02.372.376v.374c-.002.173-.062.238-.235.238-.363.002-1.878.014-2.27-.02ZM26.155 33.775c0-.47-.003-.942 0-1.412.002-.477.245-.74.723-.746.926-.012 1.851-.012 2.774 0 .488.005.729.267.729.756.002.966.002 1.932 0 2.898 0 .206-.058.261-.27.261h-.896c-.229 0-.284-.055-.284-.278v-2.335c0-.261-.06-.321-.324-.324-.24 0-.481-.002-.724 0-.216.003-.286.072-.286.288v2.35c0 .251-.048.299-.305.299h-.883c-.199 0-.26-.06-.26-.256.006-.502.006-1 .006-1.501ZM34.343 33.973c.36-.002.574-.16.608-.517a3.53 3.53 0 0 0-.024-.887c-.099-.621-.36-.883-.976-.957a7.956 7.956 0 0 0-2.161.022c-.666.105-.96.388-1.003 1.05-.04.616-.03 1.239.024 1.855.058.63.414.95 1.05.97.924.032 1.85.02 2.775.023.132 0 .202-.08.202-.211v-.504c0-.295-.036-.33-.332-.33-.613 0-1.224.002-1.837-.006-.322-.004-.473-.17-.456-.5.065-.005 1.478-.005 2.13-.008Zm-1.767-1.407c.2-.012.404-.005.603.003.07.002.142.026.207.057.11.055.161.149.132.273-.029.12-.14.154-.25.154-.356.002-.69 0-1.053 0-.048-.321.06-.468.36-.487ZM36.794 31.879c0-.209-.058-.269-.262-.271a61.349 61.349 0 0 0-.94 0c-.19 0-.253.06-.253.252a816.008 816.008 0 0 0 0 3.427c0 .178.068.242.248.242.307.003.615 0 .925 0 .224 0 .282-.06.282-.28v-3.37ZM39.71 35.407a82.599 82.599 0 0 0-1.19-1.517c-.262-.322-.264-.415-.021-.743.026-.034.875-1.144 1.08-1.415a.069.069 0 0 0-.054-.11c-.283-.005-.942-.017-1.26-.007a.369.369 0 0 0-.252.132c-.332.46-.649.93-.973 1.395-.183.263-.176.508.016.767.363.484.714.978 1.073 1.467.079.11.182.158.322.156.303-.005.928-.012 1.206-.017.056.002.087-.062.053-.108ZM43.999 31.864c-.003-.196-.063-.256-.282-.256h-3.646c-.202 0-.26.06-.26.256 0 .187-.002.374 0 .561.002.132.067.206.205.209.177.002.944 0 1.165 0v2.61c0 .237.05.285.291.285h.854c.26 0 .305-.045.305-.3v-2.596h1.147c.146-.002.218-.076.218-.208.005-.184.005-.371.003-.56Z" fill="#488A99"/>
    <path fill-rule="evenodd" clip-rule="evenodd" d="m22.656 14-3.968 1.556v1.343l.836-.334v.961l-.837.324v.92l.837-.335v.961l-.837.324v.91c0 .13 1.334.358 1.334.358.132 0 0 1.695 0 1.695s2.635.945 2.635.813V14.66l2.933.938v14.457c0 .11.089.199.2.199h.24c.11 0 .2-.089.2-.2V15.16L22.655 14Z" fill="#488A99"/>
    <path fill-rule="evenodd" clip-rule="evenodd" d="m12.937 20.4 2.815-1.16 4.743 1.611v9.239c0 .094-.076.093-.168.091H19.994c-.093.002-.177.003-.177-.091v-8.807l-4.063-1.362.041 10.142a.22.22 0 0 1-.219.221h-2.42a.22.22 0 0 1-.219-.22v-7.497l.999-.369v-.985l-.999.403V20.4Z" fill="#488A99"/>
    <path fill-rule="evenodd" clip-rule="evenodd" d="m17.274 23.474 3.79-1.096 2.395 1.072v6.65c0 .1-.082.184-.185.184h-.26a.185.185 0 0 1-.185-.184v-6.233l-1.764-.693v6.945a.166.166 0 0 1-.166.165h-3.46a.166.166 0 0 1-.165-.165v-3.38l.935-.324v-.908l-.935.32v-2.353Z" fill="#488A99"/>
    <path d="m31.2 17.172-3.454 1.167v11.753c0 .106.099.168.224.168h3.01c.122 0 .223-.062.223-.168V17.864l2.885.93.045 11.332c0 .086.082.086.185.086h.221c.102 0 .186.003.186-.086V18.334L31.2 17.172Z" fill="#488A99"/>
    <path d="M33.25 19.792v.789l.924.294v-.795l-.923-.288ZM33.25 21.23v.789l.924.295v-.796l-.923-.288Z" fill="#488A99"/>
    <path d="m28.767 25.708 2 .76v3.871h-2.27l.27-4.631Z" fill="#EDF0F5"/>
    <path d="m28.768 25.708-1.657.65v3.864c0 .05.05.09.113.09h1.428c.063 0 .113-.04.113-.09L28.76 26.1M35.316 22.84l-2.69 1.082v6.211c0 .084.072.153.161.153h2.37a.156.156 0 0 0 .161-.153v-6.585l2.702.877v5.689c0 .093.08.17.22.17h.22c.06 0 .18-.077.18-.17l.008-6.144-3.332-1.13Z" fill="#488A99"/>
    <path d="M37.155 25.355v1.031l.944.264V25.63l-.944-.276Z" fill="#488A99"/>
</svg>
