<svg width="1383" height="984" fill="none" xmlns="http://www.w3.org/2000/svg">
    <g clip-path="url(#a)">
        <path d="M7.285 46.032 0 0l9.658 191.744L7.285 46.032Z" fill="#fff"/>
        <path d="m7.284 46.032 2.374 145.712 4.829-104.84-7.203-40.872Z" fill="#fff"/>
        <path d="M4.829 452.534 2.455 667.375l12.032-133.016-9.658-81.825Z" fill="#FEFFFF"/>
        <path d="M2.455 667.376v122.696l14.487-76.746-14.487-45.95Z" fill="#fff"/>
        <path d="m2.455 790.072 4.83-5.16 9.657-71.587-14.487 76.747ZM14.487 534.359 2.455 667.376l19.317-25.637-7.285-107.38Z" fill="#fff"/>
        <path d="m2.455 667.376 14.487 45.95 4.83-71.587-19.317 25.637Z" fill="#E1F6F9"/>
        <path d="m0 0 7.285 46.032 21.772-20.477L0 0Z" fill="#fff"/>
        <path d="m7.284 46.031 7.203 40.872 14.57-61.348L7.283 46.03Z" fill="#fff"/>
        <path d="M9.658 314.521 4.83 452.534 31.43 368.17 9.658 314.521Z" fill="#FBFCFE"/>
        <path d="M2.455 790.072v135.474l36.26-97.141-36.26-38.333Z" fill="#fff"/>
        <path d="m7.284 784.912-4.829 5.16 36.26 38.333-31.43-43.493Z" fill="#FEFFFF"/>
        <path d="m16.942 713.325-9.658 71.587 50.747-7.618-41.089-63.969Z" fill="#fff"/>
        <path d="m7.284 784.912 31.43 43.493 19.317-51.11-50.747 7.617ZM9.658 191.744v122.778l55.658-63.969-55.658-58.809ZM2.455 925.546v110.004l62.86-99.766-62.86-10.238Z" fill="#fff"/>
        <path d="M38.714 828.404 2.455 925.546l62.86 10.238-26.6-107.38ZM9.658 191.743l55.658 58.809 9.658-86.903-65.316 28.094Z" fill="#FEFEFE"/>
        <path d="m14.487 86.903-4.829 104.84 65.316-28.094-60.487-76.746Z" fill="#FEFEFE"/>
        <path d="M67.69 97.141 14.486 86.903l60.487 76.746-7.285-66.508ZM29.056 25.555 14.487 86.903l67.69-38.333-53.12-23.015Z" fill="#fff"/>
        <path d="M14.487 86.903 67.69 97.141l14.487-48.57-67.69 38.332ZM9.658 314.521 31.43 368.17l53.202-40.871-74.974-12.778Z" fill="#fff"/>
        <path d="M65.316 250.553 9.658 314.522l74.974 12.777-19.316-76.746Z" fill="#FCFEFD"/>
        <path d="m31.43 368.171-26.6 84.364 79.802 23.016-53.202-107.38Z" fill="#FBFDFC"/>
        <path d="M84.633 327.299 31.43 368.17l53.202 107.38V327.299ZM4.83 452.534l9.657 81.825 70.145-58.809L4.83 452.534Z" fill="#FEFEFE"/>
        <path d="m21.771 641.739-4.829 71.587 91.836 15.398-87.007-86.985Z" fill="#fff"/>
        <path d="m16.942 713.325 41.089 63.969 50.747-48.57-91.836-15.399Z" fill="#FDFFFE"/>
        <path d="m21.773 641.739 87.006 86.985 7.284-133.017-94.29 46.032Z" fill="#F3FBFD"/>
        <path d="M84.632 475.551 14.487 534.36l101.576 61.348-31.43-120.157Z" fill="#FEFEFE"/>
        <path d="m108.778 478.09-24.145-2.539 31.43 120.157-7.285-117.618Z" fill="#E9FBFB"/>
        <path d="m14.487 534.359 7.285 107.38 94.291-46.032-101.576-61.348Z" fill="#B8F4F2"/>
        <path d="m65.316 935.784-62.86 99.766 132.923-43.496-70.063-56.27Z" fill="#fff"/>
        <path d="m67.69 97.142 7.284 66.508 74.975-58.809-82.26-7.7Z" fill="#FEFEFE"/>
        <path d="M82.177 48.57 67.69 97.142l82.259 7.7-67.772-56.27ZM84.633 327.299V475.55l79.803-58.809-79.803-89.442Z" fill="#fff"/>
        <path d="m84.633 475.55 24.145 2.539 55.658-61.348-79.803 58.809Z" fill="#FAFEFF"/>
        <path d="m164.436 416.741-55.658 61.348 60.487-53.649-4.829-7.699Z" fill="#DAF6F9"/>
        <path d="m65.316 250.553 19.317 76.746 87.006-135.555-106.323 58.809Z" fill="#FAFEFF"/>
        <path d="m74.975 163.649-9.659 86.903 106.323-58.809-96.664-28.094Z" fill="#fff"/>
        <path d="M149.949 104.841 74.975 163.65l96.664 28.094-21.69-86.903Z" fill="#fff"/>
        <path d="m149.948 104.841 21.691 86.903 7.284-71.587-28.975-15.316Z" fill="#fff"/>
        <path d="m116.063 595.707-7.285 133.017 77.43 7.617-70.145-140.634Z" fill="#FFFEFF"/>
        <path d="m38.715 828.404 26.601 107.38 125.721-102.22-152.322-5.16Z" fill="#FEFEFE"/>
        <path d="m58.031 777.295-19.316 51.11 152.322 5.16-133.006-56.27ZM108.778 728.724l-50.747 48.57 133.006 56.27-82.259-104.84Z" fill="#fff"/>
        <path d="m186.208 736.341-77.43-7.617 82.259 104.84-4.829-97.223Z" fill="#fff"/>
        <path d="m65.316 935.784 70.064 56.27 55.657-158.49-125.72 102.22ZM82.177 48.57l67.771 56.27 53.121-92.063L82.177 48.571ZM0 0l29.057 25.555 174.012-12.778L0 0Z" fill="#fff"/>
        <path d="m29.057 25.555 53.12 23.016 120.892-35.794L29.057 25.555Z" fill="#FEFEFE"/>
        <path d="m116.062 595.707 70.146 140.634 24.145-161.029-94.291 20.395Z" fill="#FEFFFF"/>
        <path d="m108.778 478.09 7.285 117.618 94.291-20.395-101.576-97.223Z" fill="#FAFEFF"/>
        <path d="m149.948 104.841 28.975 15.316 38.715-61.348-67.69 46.032ZM203.069 12.777l-53.121 92.063 67.69-46.031-14.569-46.032ZM178.923 120.157l-7.284 71.587 48.373 38.332-41.089-109.919Z" fill="#fff"/>
        <path d="m84.633 327.299 79.803 89.443 55.576-186.666-135.38 97.223Z" fill="#fff"/>
        <path d="M171.639 191.744 84.633 327.299l135.379-97.223-48.373-38.332Z" fill="#FCFEFD"/>
        <path d="m169.265 424.44-60.487 53.649 130.632 33.254-70.145-86.903Z" fill="#F9FDFE"/>
        <path d="m108.778 478.09 101.576 97.223 29.056-63.969-130.632-33.254Z" fill="#D4F7F9"/>
        <path d="m186.208 736.342 4.829 97.223 60.405-20.477-65.234-76.746Z" fill="#FFFDFE"/>
        <path d="m251.442 813.088-60.405 20.477 60.405 51.109v-71.586Z" fill="#FAFEFD"/>
        <path d="m191.037 833.564-55.658 158.49 116.063-107.38-60.405-51.11Z" fill="#fff"/>
        <path d="m164.436 416.741 4.829 7.699 106.404-117.618-111.233 109.919Z" fill="#FEFFFF"/>
        <path d="m220.012 230.076-55.576 186.666 111.233-109.919-55.657-76.747Z" fill="#FDFDFD"/>
        <path d="m217.638 58.81-38.715 61.347 101.575-23.016-62.86-38.332Z" fill="#fff"/>
        <path d="m178.923 120.157 41.088 109.919 60.487-132.934-101.575 23.015Z" fill="#fff"/>
        <path d="m239.41 511.344-29.056 63.969 70.145 28.094-41.089-92.063Z" fill="#FAFEFD"/>
        <path d="m210.354 575.312-24.146 161.029 94.291-132.935-70.145-28.094Z" fill="#FDFDFD"/>
        <path d="m186.208 736.341 65.234 76.746 29.057-209.681-94.291 132.935Z" fill="#FDFFFE"/>
        <path d="M251.442 884.675 135.379 992.054l166.891-2.539-50.828-104.84Z" fill="#FEFEFE"/>
        <path d="m220.012 230.076 55.657 76.747 33.804-130.396-89.461 53.649Z" fill="#FDFDFD"/>
        <path d="m280.499 97.142-60.487 132.934 89.461-53.649-28.974-79.285Z" fill="#fff"/>
        <path d="m280.498 603.406-29.057 209.681 65.316 20.477-36.259-230.158Z" fill="#E1F5F4"/>
        <path d="M251.441 813.088v71.586l65.316-51.109-65.316-20.477Z" fill="#fff"/>
        <path d="m251.441 884.674 50.829 104.841 14.487-155.951-65.316 51.11ZM203.068 12.777l14.57 46.032 101.493-46.032H203.068Z" fill="#FEFEFE"/>
        <path d="m217.638 58.809 62.86 38.332 38.633-84.364L217.638 58.81ZM275.669 306.822 169.265 424.44l188.581 2.539-82.177-120.157Z" fill="#FEFEFE"/>
        <path d="m326.416 327.299-50.747-20.477 82.177 120.157-31.43-99.68Z" fill="#F9FAFC"/>
        <path d="m169.265 424.44 70.145 86.903 118.436-84.363-188.581-2.54Z" fill="#F9FAFE"/>
        <path d="m239.41 511.343 41.088 92.064 77.348-176.428-118.436 84.364Z" fill="#9DE8EB"/>
        <path d="m280.498 97.141 28.975 79.286 48.373-84.364-77.348 5.078Z" fill="#fff"/>
        <path d="m319.131 12.777-38.633 84.364 77.348-5.078-38.715-79.286Z" fill="#FEFEFE"/>
        <path d="m309.473 176.427-33.804 130.396 87.006-71.587-53.202-58.809ZM275.669 306.823l50.747 20.476 36.259-92.063-87.006 71.587ZM316.758 833.564l-14.487 155.951 111.233-66.508-96.746-89.443ZM302.271 989.515l58.031 56.275 53.202-122.783-111.233 66.508ZM326.416 327.299l31.43 99.68 67.69-53.649-99.12-46.031Z" fill="#fff"/>
        <path d="m362.675 235.236-36.259 92.063 99.12 46.032-62.861-138.095Z" fill="#FEFEFE"/>
        <path d="m357.847 92.063-48.373 84.364 118.518-28.094-70.145-56.27Z" fill="#fff"/>
        <path d="m309.474 176.427 53.202 58.809 65.316-86.903-118.518 28.094Z" fill="#fff"/>
        <path d="m280.498 603.406 36.259 230.158 113.608-171.349-149.867-58.809Z" fill="#FBFFFF"/>
        <path d="m316.758 833.565 96.746 89.442 31.43-161.028-128.176 71.586Z" fill="#fff"/>
        <path d="M430.365 662.216 316.758 833.565l128.176-71.587-14.569-99.762Z" fill="#FEFEFE"/>
        <path d="m357.847 92.063 70.145 56.27 43.544-66.508-113.689 10.238Z" fill="#fff"/>
        <path d="m444.934 761.979-31.43 161.028 67.69-46.031-36.26-114.997Z" fill="#FEFEFE"/>
        <path d="m319.132 12.777 38.715 79.286L486.023 2.54 319.132 12.777Z" fill="#fff"/>
        <path d="m357.847 92.063 113.689-10.238 14.487-79.286-128.176 89.524Z" fill="#FEFEFE"/>
        <path d="m0 0 203.069 12.777L486.023 2.54 0 0Z" fill="#fff"/>
        <path d="M203.068 12.777h116.063L486.022 2.54 203.068 12.777Z" fill="#FEFEFE"/>
        <path d="m357.846 426.979-77.348 176.428 205.524-40.872-128.176-135.556Z" fill="#FDFFFE"/>
        <path d="m280.498 603.407 149.867 58.809 55.657-99.681-205.524 40.872Z" fill="#EAFAFA"/>
        <path d="m425.536 373.331-67.689 53.649 128.176 58.809-60.487-112.458Z" fill="#E1F9F9"/>
        <path d="m357.847 426.979 128.176 135.556v-76.746l-128.176-58.81Z" fill="#BCF3F0"/>
        <path d="m362.676 235.236 62.86 138.095 70.145-51.192-133.005-86.903ZM427.992 148.333l-65.316 86.903 137.834-20.477-72.518-66.426Z" fill="#fff"/>
        <path d="m362.676 235.236 133.005 86.903 4.829-107.379-137.834 20.476Z" fill="#DCF4F4"/>
        <path d="m471.535 81.825-43.544 66.508 72.519 66.426-28.975-132.934Z" fill="#fff"/>
        <path d="m495.681 322.139-70.145 51.191 101.575 58.809-31.43-110Z" fill="#FFFEFF"/>
        <path d="m425.536 373.331 60.487 112.458 41.088-53.649-101.575-58.809Z" fill="#A5EFF0"/>
        <path d="m486.022 485.789 41.089-28.094V432.14l-41.089 53.649Z" fill="#FDFFFE"/>
        <path d="m413.504 923.007-53.202 122.783 171.638 20.39-118.436-143.173ZM486.022 485.789v76.747l58.032 15.316-58.032-92.063Z" fill="#fff"/>
        <path d="m527.111 457.694-41.089 28.094 58.032 92.063-16.943-120.157Z" fill="#DBFAFC"/>
        <path d="m481.194 876.976-67.69 46.031 130.55-2.539-62.86-43.492ZM413.504 923.007 531.94 1066.18l12.114-145.712-130.55 2.539Z" fill="#fff"/>
        <path d="m486.023 562.535-55.658 99.681 123.347 17.937-67.689-117.618Z" fill="#F8FCFD"/>
        <path d="m544.054 577.852-58.032-15.317 67.69 117.618-9.658-102.301Z" fill="#EAFAFA"/>
        <path d="m430.365 662.216 14.569 99.762 108.778-81.825-123.347-17.937Z" fill="#fff"/>
        <path d="m495.681 322.139 31.43 110 31.43-89.524-62.86-20.476Z" fill="#F3FEFF"/>
        <path d="m481.193 876.975 62.861 43.493 45.917-120.157-108.778 76.664Z" fill="#fff"/>
        <path d="m444.935 761.979 36.259 114.997 108.778-76.665-145.037-38.332Z" fill="#F8FCFD"/>
        <path d="m553.713 680.153-108.778 81.825 145.037 38.332-36.259-120.157Z" fill="#FAFCFB"/>
        <path d="m500.51 214.76-4.829 107.379 96.746-86.903-91.917-20.476Z" fill="#FEFEFE"/>
        <path d="m495.681 322.139 62.86 20.477 33.886-107.38-96.746 86.903ZM486.023 2.54l-14.488 79.285 142.664-63.888L486.023 2.54Z" fill="#fff"/>
        <path d="M614.199 17.938 471.535 81.825l145.038 51.11-2.374-114.998Z" fill="#FEFEFE"/>
        <path d="m471.535 81.825 28.975 132.934 116.063-81.824-145.038-51.11Z" fill="#fff"/>
        <path d="m500.51 214.759 91.917 20.477 24.145-102.301-116.062 81.824Z" fill="#FDFFFE"/>
        <path d="M544.054 920.468 531.94 1066.18l94.291-99.681-82.177-46.031ZM531.94 1066.18l74.975 43.49 19.316-143.171-94.291 99.681Z" fill="#fff"/>
        <path d="m589.971 800.311-45.917 120.157 91.835-69.048-45.918-51.109Z" fill="#fff"/>
        <path d="m544.054 920.467 82.177 46.032 9.658-115.079-91.835 69.047Z" fill="#fff"/>
        <path d="m527.111 457.694 16.943 120.157 94.291-63.887-111.234-56.27Z" fill="#EAF8FB"/>
        <path d="M527.111 432.14v25.555l111.234 56.269-111.234-81.824ZM589.972 800.311l45.917 51.11 26.601-109.919-72.518 58.809ZM553.712 680.153l36.259 120.157 72.519-58.809-108.778-61.348Z" fill="#fff"/>
        <path d="m558.542 342.616-31.431 89.524 145.12-79.285-113.689-10.239Z" fill="#F2FCFB"/>
        <path d="m527.111 432.14 111.234 81.825 33.886-161.111-145.12 79.286Z" fill="#F7FCFF"/>
        <path d="m592.427 235.236-33.886 107.38 113.689 10.238-79.803-117.618ZM635.89 851.42l-9.659 115.079 58.032-84.364-48.373-30.715Z" fill="#fff"/>
        <path d="M662.491 741.502 635.89 851.421l48.373 30.715-21.772-140.634ZM614.199 17.938l2.374 114.997 77.348-114.998h-79.722Z" fill="#fff"/>
        <path d="m486.022 2.54 128.177 15.398h79.721L486.022 2.539ZM553.712 680.153l108.778 61.348 31.43-176.427-140.208 115.079Z" fill="#fff"/>
        <path d="m544.054 577.852 9.658 102.301L693.92 565.074l-149.866 12.778Z" fill="#FFFEFF"/>
        <path d="m638.344 513.965-94.29 63.887 149.866-12.777-55.576-51.11ZM626.231 966.499l-19.317 143.171 101.575-145.71-82.258 2.539Z" fill="#fff"/>
        <path d="M684.263 882.136 626.231 966.5l82.259-2.539-24.227-81.825Z" fill="#fff"/>
        <path d="m592.427 235.236 79.803 117.618 55.576-89.524-135.379-28.094Z" fill="#FEFEFE"/>
        <path d="m672.23 352.854-33.885 161.111 96.746-76.747-62.861-84.364Z" fill="#F4FDFC"/>
        <path d="m638.345 513.964 55.576 51.11 41.17-127.856-96.746 76.746Z" fill="#FCFEFD"/>
        <path d="m727.806 263.33-55.576 89.524 72.519-38.332-16.943-51.192Z" fill="#D9F6F4"/>
        <path d="m672.23 352.854 62.861 84.364 9.658-122.697-72.519 38.333Z" fill="#F8FCFD"/>
        <path d="m693.921 17.938-77.348 114.997 130.55-7.618-53.202-107.38Z" fill="#fff"/>
        <path d="m747.123 125.317-130.55 7.618 130.55 79.285v-86.903Z" fill="#fff"/>
        <path d="m727.807 263.33 16.943 51.192 2.373-102.301-19.316 51.109Z" fill="#FDFDFD"/>
        <path d="m616.572 132.935-24.145 102.301 154.695-23.016-130.55-79.285ZM592.427 235.236l135.379 28.094 19.316-51.109-154.695 23.015Z" fill="#fff"/>
        <path d="m693.92 565.074-31.43 176.427 99.202-74.125-67.772-102.302Z" fill="#FCFEFD"/>
        <path d="m708.489 963.96-101.575 145.71 154.778-63.89-53.203-81.82Z" fill="#fff"/>
        <path d="m735.091 437.218-41.17 127.856 70.145-28.176-28.975-99.68Z" fill="#E9F7F8"/>
        <path d="m693.921 565.074 67.771 102.302 2.374-130.478-70.145 28.176Z" fill="#FCFEFD"/>
        <path d="m662.49 741.502 21.772 140.634 106.405-46.032-128.177-94.602Z" fill="#FDFDFD"/>
        <path d="m684.263 882.135 24.227 81.825 82.177-127.856-106.404 46.031ZM744.749 314.521l-9.658 122.697 62.86-5.078-53.202-117.619Z" fill="#fff"/>
        <path d="m735.091 437.218 28.975 99.68 33.886-104.758-62.861 5.078Z" fill="#DFF5F3"/>
        <path d="m761.692 667.376-99.202 74.126 142.664 20.476-43.462-94.602Z" fill="#FEFEFE"/>
        <path d="m662.49 741.502 128.177 94.602 14.487-74.125-142.664-20.477Z" fill="#FCFCFC"/>
        <path d="m693.921 17.938 53.202 107.379 101.575-61.43-154.777-45.95Z" fill="#fff"/>
        <path d="m797.951 432.14-33.886 104.758 94.291 56.27-60.405-161.028Z" fill="#AFEDEA"/>
        <path d="m764.066 536.898-2.374 130.478 96.665-74.208-94.291-56.27ZM805.154 761.979l-14.487 74.125 74.974 30.633-60.487-104.758Z" fill="#fff"/>
        <path d="M790.667 836.104 708.49 963.96l157.151-97.223-74.974-30.633Z" fill="#fff"/>
        <path d="m708.49 963.96 53.202 81.82 113.608-33.25-166.81-48.57Z" fill="#fff"/>
        <path d="M865.641 866.736 708.49 963.96l166.81 48.57-9.659-145.794Z" fill="#fff"/>
        <path d="m744.749 314.521 53.202 117.619 79.804-102.302-133.006-15.317Z" fill="#C5ECEB"/>
        <path d="m747.123 212.221-2.374 102.301 133.006 15.317-130.632-117.618Z" fill="#FDFDFD"/>
        <path d="m805.154 761.979 60.487 104.758 19.317-120.157-79.804 15.399Z" fill="#FEFEFE"/>
        <path d="m761.692 667.376 43.463 94.602 79.803-15.398-123.266-79.204ZM858.357 593.168l-96.665 74.207 123.266 79.204-26.601-153.411Z" fill="#fff"/>
        <path d="m797.951 432.14 60.405 161.028 29.057-161.028h-89.462Z" fill="#CAECED"/>
        <path d="m877.755 329.838-79.804 102.301h89.462l-9.658-102.301Z" fill="#fff"/>
        <path d="m747.123 212.22 130.632 117.619 12.032-153.412-142.664 35.793Z" fill="#FDFFFE"/>
        <path d="M747.123 125.317v86.903l142.664-35.793-142.664-51.11Z" fill="#F9FDFE"/>
        <path d="m848.698 63.887-101.575 61.43 142.664 51.11-41.089-112.54Z" fill="#fff"/>
        <path d="M486.022 2.54 693.92 17.937 899.445 0 486.022 2.54ZM693.921 17.938l154.777 45.95L899.445 0 693.921 17.938Z" fill="#FEFEFE"/>
        <path d="m848.698 63.887 50.747-58.809V0l-50.747 63.887ZM884.957 746.58l-19.316 120.157 53.202 7.699-33.886-127.856Z" fill="#fff"/>
        <path d="m865.641 866.736 9.658 145.794 45.918-115.079-55.576-30.715Z" fill="#fff"/>
        <path d="m918.843 874.436-53.202-7.7 55.576 30.715-2.374-23.015Z" fill="#FEFEFE"/>
        <path d="m858.356 593.168 26.602 153.411 38.714-71.586-65.316-81.825Z" fill="#FCFEFD"/>
        <path d="m887.413 432.14-29.057 161.028 67.69-92.063-38.633-68.965Z" fill="#FDFFFE"/>
        <path d="m858.356 593.169 65.316 81.824 2.374-173.888-67.69 92.064Z" fill="#F6F7F9"/>
        <path d="M899.445 0v5.078l33.886 17.938L899.445 0Z" fill="#fff"/>
        <path d="m899.445 5.078-50.747 58.81 84.633-40.872-33.886-17.938Z" fill="#FEFEFE"/>
        <path d="m918.844 874.436 2.373 23.015 19.399 20.477-21.772-43.492ZM921.217 897.452 875.3 1012.53l65.316-94.601-19.399-20.477ZM848.698 63.887l41.089 112.54 60.487-138.094-101.576 25.554ZM933.331 23.016l-84.633 40.871 101.576-25.555-16.943-15.316Z" fill="#fff"/>
        <path d="m877.755 329.838 9.658 102.301 94.291-97.223-103.949-5.078Z" fill="#FBFDFC"/>
        <path d="m887.413 432.14 38.633 68.965 62.942 5.16-101.575-74.125Z" fill="#F4FAFA"/>
        <path d="m981.704 334.917-94.291 97.223 101.575 74.126-7.284-171.349Z" fill="#E2F5F3"/>
        <path d="m926.047 501.105-2.374 173.888 65.316-168.727-62.942-5.161Z" fill="#F6FCFC"/>
        <path d="m889.787 176.427-12.032 153.412 113.607-99.763-101.575-53.649Z" fill="#F5FBFB"/>
        <path d="m877.755 329.839 103.949 5.078 9.658-104.841-113.607 99.763Z" fill="#fff"/>
        <path d="m950.274 38.333-60.487 138.094 118.523-99.762-58.036-38.333Z" fill="#FEFEFE"/>
        <path d="m988.989 506.266-65.316 168.727 89.457-10.238-24.141-158.489Z" fill="#F4FAF8"/>
        <path d="m991.362 230.076-9.658 104.841 31.426-30.633-21.768-74.208ZM923.672 674.993l-38.715 71.587 137.833 12.777-99.118-84.364Z" fill="#fff"/>
        <path d="m1013.13 664.755-89.457 10.238 99.117 84.364-9.66-94.602Z" fill="#F0F4F5"/>
        <path d="m884.957 746.58 33.886 127.856 103.947-115.078-137.833-12.778Z" fill="#fff"/>
        <path d="m918.844 874.436 21.772 43.493 82.174-158.572-103.946 115.079Z" fill="#FCFEFD"/>
        <path d="M940.616 917.929 875.3 1012.53l152.32-51.191-87.004-43.41Z" fill="#fff"/>
        <path d="m875.3 1012.53 120.892 74.13 31.428-125.321-152.32 51.191ZM889.787 176.427l101.575 53.649 38.718-107.38-140.293 53.731Z" fill="#fff"/>
        <path d="m1008.31 76.665-118.523 99.762 140.293-53.731-21.77-46.031ZM991.362 230.076l21.768 74.208 28.98-117.618-50.748 43.41Z" fill="#FEFEFE"/>
        <path d="m1030.08 122.696-38.718 107.38 50.748-43.411-12.03-63.969Z" fill="#F9FDFE"/>
        <path d="m1030.08 122.696 12.03 63.969 41.17-15.316-53.2-48.653ZM1027.62 961.339l-31.429 125.321h91.919l-60.49-125.321Z" fill="#fff"/>
        <path d="m981.704 334.917 7.285 171.349 101.491-71.587-108.776-99.762Z" fill="#F7FBFA"/>
        <path d="m1013.13 304.283-31.426 30.633 108.776 99.763-77.35-130.396Z" fill="#FEFEFE"/>
        <path d="m940.615 917.928 87.005 43.411 74.98-109.919-161.985 66.508Z" fill="#fff"/>
        <path d="m1022.79 759.357-82.175 158.572 161.985-66.508-79.81-92.064Z" fill="#FEFEFE"/>
        <path d="m1097.77 807.928-74.98-48.571 79.81 92.064-4.83-43.493Z" fill="#FCFEFD"/>
        <path d="m933.331 23.016 16.943 15.316L1102.6 2.54 933.331 23.016Z" fill="#fff"/>
        <path d="m950.273 38.332 58.027 38.333 94.3-74.126-152.327 35.793Z" fill="#fff"/>
        <path d="m899.445 0 33.886 23.016L1102.6 2.539 899.445 0ZM1030.08 122.696l53.2 48.653 24.14-58.809-77.34 10.156Z" fill="#FEFEFE"/>
        <path d="m1008.3 76.665 21.78 46.031 77.34-10.156-99.12-35.875ZM1102.6 2.54l-94.3 74.125 99.12 35.875-4.82-110Z" fill="#fff"/>
        <path d="m1013.13 304.283 77.35 130.396 26.6-145.794-103.95 15.398Z" fill="#FEFEFE"/>
        <path d="m1042.11 186.666-28.98 117.618 103.95-15.399-74.97-102.219ZM1083.28 171.349l-41.17 15.316 74.97 102.22-33.8-117.536ZM1102.6 2.54l4.82 110 29.06-66.508-33.88-43.493Z" fill="#fff"/>
        <path d="m1013.13 664.755 9.66 94.602 116.06-66.426-125.72-28.176Z" fill="#FCFEFD"/>
        <path d="m1022.79 759.357 74.98 48.571 41.08-114.997-116.06 66.426Z" fill="#FBFDFC"/>
        <path d="m1027.62 961.339 60.49 125.321 55.57-132.938-116.06 7.617Z" fill="#fff"/>
        <path d="m1102.6 851.42-74.98 109.919 116.06-7.618-41.08-102.301Z" fill="#FEFEFE"/>
        <path d="m1090.48 434.679-101.492 71.586 157.152 61.348-55.66-132.934Z" fill="#F9FBFA"/>
        <path d="m988.988 506.266 24.142 158.489 133.01-97.141-157.152-61.348Z" fill="#FDFFFE"/>
        <path d="m1013.13 664.755 125.72 28.176 7.29-125.318-133.01 97.142Z" fill="#F1FAF9"/>
        <path d="m1090.48 434.679 55.66 132.934 7.2-109.919-62.86-23.015Z" fill="#F2FBF8"/>
        <path d="m1102.6 851.42 41.08 102.301 12.12-51.191-53.2-51.11ZM1143.68 953.722l-55.57 132.938 77.35-43.5-21.78-89.438Z" fill="#fff"/>
        <path d="m1117.08 288.885-26.6 145.794 91.92-66.509-65.32-79.285Z" fill="#FCFCFC"/>
        <path d="m1090.48 434.679 62.86 23.016 29.06-89.524-91.92 66.508Z" fill="#EDF6F5"/>
        <path d="m1107.42 112.54-24.14 58.809 120.89 56.188-96.75-114.997ZM1083.28 171.349l33.8 117.536 87.09-61.348-120.89-56.188Z" fill="#fff"/>
        <path d="m1102.6 2.54 33.88 43.492 70.06-43.493H1102.6Z" fill="#FEFEFE"/>
        <path d="m1117.08 288.885 65.32 79.285 26.6-38.332-91.92-40.953Z" fill="#fff"/>
        <path d="m1204.17 227.537-87.09 61.348 91.92 40.954-4.83-102.302Z" fill="#FEFEFE"/>
        <path d="m1206.54 2.54-70.06 43.492 74.89-38.333-4.83-5.16ZM1097.77 807.928l4.83 43.492 128.17 2.539-133-46.031Z" fill="#fff"/>
        <path d="m1102.6 851.42 53.2 51.11 74.97-48.571-128.17-2.539Z" fill="#FCFEFD"/>
        <path d="m1138.85 692.931-41.08 114.997 152.32-45.95-111.24-69.047Z" fill="#F5F9F8"/>
        <path d="m1097.77 807.928 133 46.032 19.32-91.981-152.32 45.949Z" fill="#F5FBF9"/>
        <path d="m1211.37 7.7-74.89 38.332 120.89 43.492-46-81.825Z" fill="#fff"/>
        <path d="m1136.48 46.032-29.06 66.508 149.95-23.016-120.89-43.492Z" fill="#fff"/>
        <path d="m1107.42 112.54 96.75 114.997 53.2-138.013-149.95 23.016Z" fill="#fff"/>
        <path d="m1153.34 457.694-7.2 109.919 125.72-97.141-118.52-12.778Z" fill="#F9FBFA"/>
        <path d="m1182.4 368.171-29.06 89.524 118.52 12.777-89.46-102.301Z" fill="#FEFEFE"/>
        <path d="m1209 329.838-26.6 38.332 89.46 102.302L1209 329.838ZM1143.68 953.722l21.78 89.438 113.68-28.09-135.46-61.348ZM1155.8 902.53l-12.12 51.192 135.46 61.348-123.34-112.54Z" fill="#fff"/>
        <path d="m1209 329.838 62.86 140.634 9.66-189.204-72.52 48.57Z" fill="#fff"/>
        <path d="m1204.17 227.537 4.83 102.302 72.52-48.571-77.35-53.731Z" fill="#fff"/>
        <path d="m1146.14 567.613-7.28 125.318 152.32-94.603-145.04-30.715Z" fill="#FEFFFF"/>
        <path d="m1138.86 692.93 111.23 69.048 41.09-163.65-152.32 94.602Z" fill="#FCFEFD"/>
        <path d="m1257.37 89.524-53.2 138.013 87.01-10.239-33.81-127.774ZM1204.17 227.537l77.35 53.731 9.66-63.969-87.01 10.238ZM1271.86 470.473l-125.72 97.141 149.87-46.032-24.15-51.109Z" fill="#fff"/>
        <path d="m1146.14 567.614 145.04 30.715 4.83-76.747-149.87 46.032Z" fill="#F9FDFC"/>
        <path d="m1230.77 853.959-74.97 48.571 154.78 58.809-79.81-107.38ZM1155.8 902.53l123.35 112.54 31.43-53.731-154.78-58.809ZM1310.58 961.339l-31.43 53.731 50.74-10.24-19.31-43.491Z" fill="#fff"/>
        <path d="m1291.18 598.328-41.09 163.65 91.92-56.27-50.83-107.38ZM1291.18 217.298l-9.66 63.97 70.14-86.985-60.48 23.015Z" fill="#FEFEFE"/>
        <path d="m1257.37 89.524 33.81 127.774 60.48-23.015-94.29-104.76ZM1230.77 853.959l79.8 107.38 53.13-94.603-132.93-12.777Z" fill="#fff"/>
        <path d="m1291.18 598.328 50.83 107.38 31.43-15.399-82.26-91.981Z" fill="#F3FCF9"/>
        <path d="m1373.44 690.31-31.43 15.398 31.43 112.458V690.31ZM1342.01 705.708l-91.92 56.27 123.35 56.188-31.43-112.458Z" fill="#FEFEFE"/>
        <path d="m1250.09 761.979-19.32 91.981 142.67-35.793-123.35-56.188Z" fill="#fff"/>
        <path d="m1230.77 853.959 132.93 12.778 9.74-48.571-142.67 35.793ZM1211.37 7.7l46 81.824 123.27-84.446L1211.37 7.7ZM1206.54 2.54l4.83 5.16 169.27-2.622-174.1-2.539ZM1281.52 281.268l-9.66 189.204 128.18-112.54-118.52-76.664Z" fill="#fff"/>
        <path d="m1351.66 194.283-70.14 86.985 118.52 76.664-48.38-163.649Z" fill="#FEFEFE"/>
        <path d="m1257.37 89.524 94.29 104.759 53.21-71.587-147.5-33.172ZM1380.64 5.078l-123.27 84.446 147.5 33.172-24.23-117.618ZM1310.58 961.339l19.31 43.491 77.35-20.475-96.66-23.016Z" fill="#fff"/>
        <path d="m1363.7 866.736-53.12 94.603 96.66 23.015-43.54-117.618Z" fill="#FCFEFD"/>
        <path d="m1296.01 521.582-4.83 76.747 118.52-58.809-113.69-17.938Z" fill="#fff"/>
        <path d="m1291.18 598.328 82.26 91.981 43.46-91.981h-125.72Z" fill="#FAFEFD"/>
        <path d="m1409.7 539.52-118.52 58.809h125.72l-7.2-58.809ZM1400.04 357.933l-128.18 112.539 147.49 30.634-19.31-143.173Z" fill="#fff"/>
        <path d="m1271.86 470.473 24.15 51.109 123.34-20.476-147.49-30.633Z" fill="#FCFEFD"/>
        <path d="m1296.01 521.582 113.69 17.938 9.65-38.415-123.34 20.477ZM1373.44 690.31v127.856l91.83-92.063-91.83-35.793ZM1416.9 598.328l-43.46 91.981 91.83 35.794-48.37-127.775Z" fill="#fff"/>
        <path d="m1465.27 726.104-91.83 92.063 108.77-43.411-16.94-48.652Z" fill="#FDFFFE"/>
        <path d="m1380.64 5.078 24.23 117.618 87-91.981-111.23-25.637Z" fill="#fff"/>
        <path d="m1363.7 866.736 43.54 117.618 106.4-84.363-149.94-33.255Z" fill="#FDFFFE"/>
        <path d="m1373.44 818.166-9.74 48.571 149.94 33.254-140.2-81.825Z" fill="#fff"/>
        <path d="m1482.21 774.756-108.77 43.41 140.2 81.825-31.43-125.235Z" fill="#FEFFFF"/>
        <path d="m1404.87 122.696-53.21 71.587 186.13-2.539-132.92-69.048Z" fill="#fff"/>
        <path d="m1351.66 194.283 48.38 163.649 152.32-109.918-200.7-53.731Z" fill="#fff"/>
        <path d="m1537.79 191.744-186.13 2.539 200.7 53.731-14.57-56.27ZM1380.64 5.078l111.23 25.637 118.52-25.637h-229.75Z" fill="#fff"/>
    </g>
    <defs>
        <clipPath id="a">
            <path fill="#fff" d="M0 0h1383v984H0z"/>
        </clipPath>
    </defs>
</svg>
