<svg width="2418" height="1598" fill="none" xmlns="http://www.w3.org/2000/svg">
    <g clip-path="url(#a)">
        <path d="M0 1142.93v235.23l2.455-145.79L0 1142.93Z" fill="#FEFEFE"/>
        <path d="M7.285 46.032 0 0l9.658 191.744L7.285 46.032Z" fill="#fff"/>
        <path d="m7.284 46.032 2.374 145.712 4.829-104.84-7.203-40.872Z" fill="#fff"/>
        <path d="M4.829 452.535 2.455 667.376l12.032-133.017-9.658-81.824Z" fill="#FEFFFF"/>
        <path d="M0 1378.16V1598l14.487-107.38L0 1378.16Z" fill="#FEFEFE"/>
        <path d="M2.455 667.376v122.696l14.487-76.746-14.487-45.95ZM2.455 790.072l4.83-5.16 9.657-71.586-14.487 76.746ZM14.487 534.359 2.455 667.376l19.317-25.637-7.285-107.38Z" fill="#fff"/>
        <path d="m2.455 667.376 14.487 45.95 4.83-71.587-19.317 25.637Z" fill="#E1F6F9"/>
        <path d="M2.455 1035.55 0 1132.69l24.146-10.24-21.69-86.9Z" fill="#fff"/>
        <path d="M0 1132.69v10.24l24.146-20.48L0 1132.69ZM0 1378.16l14.487 112.46 12.114-38.33L0 1378.16ZM0 0l7.285 46.032 21.772-20.477L0 0Z" fill="#fff"/>
        <path d="m7.284 46.031 7.203 40.872 14.57-61.348L7.283 46.03Z" fill="#fff"/>
        <path d="M9.658 314.522 4.83 452.535l26.601-84.364-21.772-53.649Z" fill="#FBFCFE"/>
        <path d="M2.455 1232.37 0 1378.16l33.886-130.39-31.43-15.4ZM0 1378.16l26.601 74.13 9.658-76.75L0 1378.16ZM2.455 790.072v135.474l36.26-97.141-36.26-38.333Z" fill="#fff"/>
        <path d="m7.284 784.912-4.829 5.16 36.26 38.333-31.43-43.493Z" fill="#FEFFFF"/>
        <path d="M24.146 1122.45 0 1142.93l50.747 38.33-26.601-58.81ZM0 1142.93l2.455 89.44 48.292-51.11L0 1142.93Z" fill="#fff"/>
        <path d="m2.455 1232.37 31.43 15.4 16.861-66.51-48.29 51.11ZM16.942 713.326l-9.658 71.586 50.747-7.617-41.089-63.969ZM7.284 784.912l31.43 43.493 19.317-51.11-50.747 7.617ZM33.886 1247.77 0 1378.16l60.487-66.51-26.601-63.88Z" fill="#fff"/>
        <path d="m0 1378.16 36.26-2.62 24.227-63.89L0 1378.16ZM26.601 1452.29l-12.114 38.33 48.373-5.08-36.259-33.25ZM9.658 191.744v122.778l55.658-63.969-55.658-58.809ZM2.455 925.546v110.004l62.86-99.766-62.86-10.238Z" fill="#fff"/>
        <path d="M38.714 828.404 2.455 925.546l62.86 10.238-26.6-107.38ZM9.658 191.743l55.658 58.809 9.658-86.903-65.316 28.094Z" fill="#FEFEFE"/>
        <path d="m14.487 86.903-4.829 104.84 65.316-28.094-60.487-76.746Z" fill="#FEFEFE"/>
        <path d="M67.69 97.141 14.486 86.903l60.487 76.746-7.285-66.508ZM14.487 1490.62 0 1598l77.348-33.17-62.86-74.21Z" fill="#fff"/>
        <path d="m62.86 1485.54-48.373 5.08 62.86 74.21-14.487-79.29ZM29.056 25.555 14.487 86.903l67.69-38.333-53.12-23.015Z" fill="#fff"/>
        <path d="M14.487 86.903 67.69 97.141l14.487-48.57-67.69 38.332ZM9.658 314.522l21.772 53.649 53.202-40.872-74.974-12.777Z" fill="#fff"/>
        <path d="M65.316 250.553 9.658 314.522l74.974 12.777-19.316-76.746Z" fill="#FCFEFD"/>
        <path d="m31.43 368.171-26.6 84.364 79.802 23.016-53.202-107.38Z" fill="#FBFDFC"/>
        <path d="M84.633 327.299 31.43 368.171 84.633 475.55V327.299ZM4.83 452.535l9.657 81.824 70.145-58.809L4.83 452.535Z" fill="#FEFEFE"/>
        <path d="m60.487 1311.65-24.227 63.89 48.373-2.54-24.146-61.35ZM26.602 1452.29l36.259 33.25 31.43-74.12-67.69 40.87Z" fill="#fff"/>
        <path d="m36.26 1375.54-9.658 76.75 67.69-40.87-58.032-35.88Z" fill="#fff"/>
        <path d="m84.633 1373-48.373 2.54 58.031 35.88-9.658-38.42ZM21.771 641.739l-4.829 71.587 91.836 15.398-87.007-86.985Z" fill="#fff"/>
        <path d="m16.942 713.326 41.089 63.969 50.747-48.571-91.836-15.398Z" fill="#FDFFFE"/>
        <path d="m2.455 1035.55 21.69 86.9h84.633l-106.323-86.9ZM24.145 1122.45l26.602 58.81 58.031-58.81H24.145Z" fill="#fff"/>
        <path d="m21.773 641.739 87.006 86.985 7.284-133.016-94.29 46.031Z" fill="#F3FBFD"/>
        <path d="m84.632 475.55-70.145 58.809 101.576 61.348-31.43-120.157Z" fill="#FEFEFE"/>
        <path d="m108.778 478.089-24.145-2.539 31.43 120.157-7.285-117.618Z" fill="#E9FBFB"/>
        <path d="m14.487 534.359 7.285 107.38 94.291-46.032-101.576-61.348Z" fill="#B8F4F2"/>
        <path d="m108.778 1122.45-58.03 58.81 70.144 46.03-12.114-104.84ZM50.747 1181.26l-16.861 66.51 87.006-20.48-70.145-46.03Z" fill="#fff"/>
        <path d="m33.886 1247.77 26.6 63.88 60.406-84.36-87.006 20.48Z" fill="#FEFEFE"/>
        <path d="m65.316 935.784-62.86 99.766 132.923-43.496-70.063-56.27Z" fill="#fff"/>
        <path d="m2.455 1035.55 106.323 86.9 26.601-130.396L2.455 1035.55Z" fill="#fff"/>
        <path d="m67.69 97.142 7.284 66.508 74.974-58.809-82.259-7.7Z" fill="#FEFEFE"/>
        <path d="M82.177 48.57 67.689 97.142l82.259 7.7-67.771-56.27ZM84.633 327.299V475.55l79.803-58.809-79.803-89.442Z" fill="#fff"/>
        <path d="m84.633 475.55 24.145 2.539 55.658-61.348-79.803 58.809Z" fill="#FAFEFF"/>
        <path d="m164.436 416.741-55.658 61.348 60.487-53.649-4.829-7.699Z" fill="#DAF6F9"/>
        <path d="m65.316 250.553 19.317 76.746 87.006-135.555-106.323 58.809Z" fill="#FAFEFF"/>
        <path d="m74.975 163.649-9.659 86.903 106.323-58.809-96.664-28.094Z" fill="#fff"/>
        <path d="M149.949 104.841 74.975 163.65l96.664 28.094-21.69-86.903ZM62.86 1485.54l14.488 79.29 99.201-38.42-113.689-40.87ZM94.29 1411.42l-31.43 74.12 113.689 40.87-82.258-114.99Z" fill="#fff"/>
        <path d="m149.948 104.841 21.69 86.903 7.285-71.587-28.975-15.316ZM84.633 1373l9.658 38.42 91.917-74.21L84.633 1373Z" fill="#fff"/>
        <path d="M60.487 1311.65 84.633 1373l101.575-35.79-125.72-25.56Z" fill="#FEFEFE"/>
        <path d="m120.892 1227.29-60.405 84.36 125.721 25.56-65.316-109.92Z" fill="#FEFEFE"/>
        <path d="m116.063 595.708-7.285 133.016 77.43 7.617-70.145-140.633Z" fill="#FFFEFF"/>
        <path d="m135.379 992.054-26.601 130.396 79.804-61.35-53.203-69.046Z" fill="#fff"/>
        <path d="m38.715 828.404 26.601 107.38 125.721-102.22-152.322-5.16Z" fill="#FEFEFE"/>
        <path d="m58.031 777.295-19.316 51.11 152.322 5.16-133.006-56.27Z" fill="#fff"/>
        <path d="m108.778 728.724-50.747 48.571 133.006 56.27-82.259-104.841Z" fill="#fff"/>
        <path d="m186.208 736.341-77.43-7.617 82.259 104.841-4.829-97.224Z" fill="#fff"/>
        <path d="m65.316 935.784 70.064 56.27 55.657-158.49-125.72 102.22ZM120.892 1227.29l65.316 109.92 12.031-56.27-77.347-53.65ZM94.291 1411.42l82.259 114.99 21.69-76.66-103.949-38.33Z" fill="#fff"/>
        <path d="m186.208 1337.21-91.917 74.21 103.949 38.33-12.032-112.54ZM176.549 1526.41l-99.201 38.42 123.347 2.54-24.146-40.96Z" fill="#fff"/>
        <path d="M77.348 1564.83 0 1598l200.695-30.63-123.347-2.54ZM82.177 48.57l67.771 56.27 53.121-92.063L82.177 48.571ZM0 0l29.057 25.555 174.012-12.778L0 0Z" fill="#fff"/>
        <path d="m29.057 25.555 53.12 23.016 120.892-35.794L29.057 25.555Z" fill="#FEFEFE"/>
        <path d="m116.062 595.708 70.146 140.634 24.145-161.029-94.291 20.395Z" fill="#FEFFFF"/>
        <path d="m108.778 478.089 7.285 117.618 94.291-20.394-101.576-97.224Z" fill="#FAFEFF"/>
        <path d="m149.948 104.841 28.975 15.316 38.715-61.348-67.69 46.032ZM203.069 12.777l-53.121 92.063 67.69-46.031-14.569-46.032ZM178.923 120.157l-7.284 71.587 48.373 38.332-41.089-109.919Z" fill="#fff"/>
        <path d="m84.633 327.299 79.803 89.443 55.576-186.666-135.38 97.223Z" fill="#fff"/>
        <path d="M171.639 191.744 84.633 327.299l135.379-97.223-48.373-38.332Z" fill="#FCFEFD"/>
        <path d="m120.892 1227.29 77.347 53.65 38.715-153.41-116.062 99.76Z" fill="#fff"/>
        <path d="m108.778 1122.45 12.114 104.84 116.063-99.76-128.177-5.08ZM188.582 1061.1l-79.804 61.35 128.177 5.08-48.373-66.43Z" fill="#fff"/>
        <path d="m169.265 424.44-60.487 53.649 130.632 33.254-70.145-86.903Z" fill="#F9FDFE"/>
        <path d="m108.778 478.089 101.576 97.224 29.056-63.97-130.632-33.254Z" fill="#D4F7F9"/>
        <path d="m186.208 736.341 4.829 97.224 60.405-20.477-65.234-76.747Z" fill="#FFFDFE"/>
        <path d="m251.442 813.088-60.405 20.477 60.405 51.109v-71.586Z" fill="#FAFEFD"/>
        <path d="m191.037 833.564-55.658 158.49 116.063-107.38-60.405-51.11ZM198.24 1449.75l-21.69 76.66 87.006-51.11-65.316-25.55ZM176.55 1526.41l24.145 40.96 62.861-92.07-87.006 51.11ZM186.208 1337.21l12.032 112.54 72.6-74.21-84.632-38.33Z" fill="#fff"/>
        <path d="m198.239 1449.75 65.316 25.55 7.285-99.76-72.601 74.21Z" fill="#fff"/>
        <path d="m164.436 416.742 4.829 7.699 106.404-117.618-111.233 109.919Z" fill="#FEFFFF"/>
        <path d="m220.011 230.076-55.575 186.666 111.233-109.919-55.658-76.747Z" fill="#FDFDFD"/>
        <path d="m217.638 58.81-38.715 61.347 101.575-23.016-62.86-38.332Z" fill="#fff"/>
        <path d="m178.923 120.157 41.088 109.919 60.487-132.934-101.575 23.015Z" fill="#fff"/>
        <path d="m239.41 511.344-29.056 63.969 70.145 28.094-41.089-92.063Z" fill="#FAFEFD"/>
        <path d="m210.354 575.313-24.146 161.029 94.291-132.935-70.145-28.094Z" fill="#FDFDFD"/>
        <path d="m186.208 736.341 65.234 76.747 29.057-209.681-94.291 132.934Z" fill="#FDFFFE"/>
        <path d="m236.954 1127.53-38.715 153.41 84.633-61.35-45.918-92.06ZM263.556 1475.3l-62.861 92.07 94.291-2.54-31.43-89.53Z" fill="#fff"/>
        <path d="M200.695 1567.37 0 1598l294.986-33.17-94.291 2.54Z" fill="#FEFEFE"/>
        <path d="m282.872 1219.59-84.633 61.35 101.576 28.17-16.943-89.52Z" fill="#fff"/>
        <path d="m198.24 1280.94-12.032 56.27 113.607-28.09-101.575-28.18Z" fill="#fff"/>
        <path d="m186.208 1337.21 84.632 38.33 28.975-66.42-113.607 28.09ZM135.379 992.054l53.202 69.046 113.689-71.585-166.891 2.539Z" fill="#fff"/>
        <path d="m251.442 884.674-116.063 107.38 166.891-2.539-50.828-104.841Z" fill="#FEFEFE"/>
        <path d="m188.581 1061.1 48.373 66.43 65.316-138.015-113.689 71.585Z" fill="#fff"/>
        <path d="m220.012 230.076 55.657 76.747 33.804-130.396-89.461 53.649Z" fill="#FDFDFD"/>
        <path d="m280.499 97.142-60.487 132.934 89.461-53.649-28.974-79.285Z" fill="#fff"/>
        <path d="m280.498 603.407-29.057 209.681 65.316 20.477-36.259-230.158Z" fill="#E1F5F4"/>
        <path d="M251.441 813.088v71.586l65.316-51.109-65.316-20.477Z" fill="#fff"/>
        <path d="m251.441 884.674 50.829 104.841 14.487-155.951-65.316 51.11ZM203.068 12.777l14.57 46.032 101.493-46.032H203.068Z" fill="#FEFEFE"/>
        <path d="m217.638 58.809 62.86 38.332 38.633-84.364L217.638 58.81ZM275.669 306.823 169.265 424.441l188.581 2.539-82.177-120.157Z" fill="#FEFEFE"/>
        <path d="m326.416 327.299-50.747-20.476 82.177 120.157-31.43-99.681Z" fill="#F9FAFC"/>
        <path d="m169.265 424.44 70.145 86.903 118.436-84.363-188.581-2.54Z" fill="#F9FAFE"/>
        <path d="m239.41 511.343 41.089 92.064 77.347-176.428-118.436 84.364Z" fill="#9DE8EB"/>
        <path d="m280.498 97.141 28.975 79.286 48.373-84.364-77.348 5.078Z" fill="#fff"/>
        <path d="m319.131 12.777-38.633 84.364 77.348-5.078-38.715-79.286Z" fill="#FEFEFE"/>
        <path d="m302.27 989.515-65.316 138.015 123.347-81.74-58.031-56.275ZM309.473 176.427l-33.804 130.396 87.006-71.587-53.202-58.809ZM275.669 306.823l50.747 20.476 36.259-92.063-87.006 71.587ZM263.556 1475.3l31.43 89.53 70.145-35.88-101.575-53.65Z" fill="#fff"/>
        <path d="m270.84 1375.54-7.284 99.76 106.404-43.49-99.12-56.27ZM263.556 1475.3l101.575 53.65 4.829-97.14-106.404 43.49Z" fill="#fff"/>
        <path d="m299.815 1309.12-28.975 66.42 99.12 56.27-70.145-122.69ZM236.954 1127.53l45.918 92.06 89.461-58.81-135.379-33.25Z" fill="#fff"/>
        <path d="m360.301 1045.79-123.347 81.74 135.379 33.25-12.032-114.99ZM369.96 1431.81l-4.829 97.14 21.772-68.96-16.943-28.18ZM316.758 833.564l-14.487 155.951 111.233-66.508-96.746-89.443ZM302.271 989.515l58.031 56.275 53.202-122.783-111.233 66.508ZM326.416 327.299l31.43 99.681 67.69-53.649-99.12-46.032Z" fill="#fff"/>
        <path d="m362.675 235.236-36.259 92.063 99.12 46.032-62.861-138.095Z" fill="#FEFEFE"/>
        <path d="m299.815 1309.12 70.146 122.69 55.575-112.46-125.721-10.23Z" fill="#fff"/>
        <path d="m369.96 1431.81 16.943 28.18 41.088-43.5-58.031 15.32Z" fill="#fff"/>
        <path d="m425.536 1319.35-55.576 112.46 58.031-15.32-2.455-97.14Z" fill="#FEFEFE"/>
        <path d="m357.847 92.063-48.373 84.364 118.518-28.094-70.145-56.27Z" fill="#fff"/>
        <path d="m309.474 176.427 53.202 58.809 65.316-86.903-118.518 28.094Z" fill="#fff"/>
        <path d="m280.498 603.407 36.259 230.158 113.608-171.349-149.867-58.809Z" fill="#FBFFFF"/>
        <path d="m299.815 1309.11 125.721 10.24 14.57-102.3-140.291 92.06ZM282.872 1219.59l16.943 89.52 140.29-92.06-157.233 2.54Z" fill="#fff"/>
        <path d="m372.334 1160.78-89.462 58.81 157.233-2.54-67.771-56.27Z" fill="#fff"/>
        <path d="m372.334 1160.78 67.771 56.27v-5.08l-67.771-51.19ZM316.758 833.565l96.746 89.442 31.43-161.029-128.176 71.587Z" fill="#fff"/>
        <path d="M430.365 662.216 316.758 833.565l128.176-71.587-14.569-99.762Z" fill="#FEFEFE"/>
        <path d="m357.847 92.063 70.145 56.27 43.544-66.508-113.689 10.238Z" fill="#fff"/>
        <path d="m444.934 761.978-31.43 161.029 67.69-46.032-36.26-114.997Z" fill="#FEFEFE"/>
        <path d="m319.132 12.777 38.715 79.286L486.023 2.54 319.132 12.777Z" fill="#fff"/>
        <path d="m357.847 92.063 113.689-10.238 14.487-79.286-128.176 89.524Z" fill="#FEFEFE"/>
        <path d="m0 0 203.069 12.777L486.023 2.54 0 0Z" fill="#fff"/>
        <path d="M203.068 12.777h116.063L486.022 2.54 203.068 12.777Z" fill="#FEFEFE"/>
        <path d="m357.846 426.979-77.348 176.428 205.524-40.872-128.176-135.556Z" fill="#FDFFFE"/>
        <path d="m280.498 603.407 149.867 58.809 55.657-99.681-205.524 40.872Z" fill="#EAFAFA"/>
        <path d="m425.536 373.331-67.689 53.648 128.176 58.809-60.487-112.457Z" fill="#E1F9F9"/>
        <path d="m357.847 426.979 128.176 135.556v-76.746l-128.176-58.81Z" fill="#BCF3F0"/>
        <path d="M440.105 1211.97v5.08l48.292-25.55-48.292 20.47Z" fill="#fff"/>
        <path d="m372.334 1160.78 67.771 51.19 48.292-20.47-116.063-30.72Z" fill="#fff"/>
        <path d="m440.105 1217.05-14.569 102.3 62.861-127.85-48.292 25.55ZM386.903 1459.99l-21.772 68.96 123.265-68.96H386.903ZM427.992 1416.49l-41.089 43.5h101.494l-60.405-43.5ZM362.676 235.236l62.86 138.095 70.145-51.192-133.005-86.903ZM427.992 148.333l-65.316 86.903 137.834-20.477-72.518-66.426Z" fill="#fff"/>
        <path d="m362.676 235.236 133.005 86.903 4.829-107.38-137.834 20.477Z" fill="#DCF4F4"/>
        <path d="m471.535 81.825-43.544 66.508 72.519 66.426-28.975-132.934ZM488.396 1459.99l-123.265 68.96 149.866-10.15-26.601-58.81ZM488.397 1191.5l-62.861 127.85 96.746 53.65-33.885-181.5Z" fill="#fff"/>
        <path d="m425.536 1319.35 2.456 97.14 94.29-43.49-96.746-53.65Z" fill="#fff"/>
        <path d="m427.991 1416.49 60.405 43.5 33.886-86.99-94.291 43.49Z" fill="#FEFEFE"/>
        <path d="m495.681 322.139-70.145 51.192 101.575 58.809-31.43-110.001Z" fill="#FFFEFF"/>
        <path d="m425.536 373.331 60.487 112.457 41.088-53.648-101.575-58.809Z" fill="#A5EFF0"/>
        <path d="m486.022 485.789 41.089-28.094V432.14l-41.089 53.649Z" fill="#FDFFFE"/>
        <path d="m372.334 1160.78 116.063 30.72 43.544-125.32-159.607 94.6Z" fill="#fff"/>
        <path d="m488.396 1191.5 41.171-38.34 2.373-86.98-43.544 125.32ZM360.302 1045.79l12.032 114.99 159.606-94.6-171.638-20.39Z" fill="#fff"/>
        <path d="m413.504 923.007-53.202 122.783 171.638 20.39-118.436-143.173ZM486.022 485.789v76.746l58.032 15.317-58.032-92.063Z" fill="#fff"/>
        <path d="m527.111 457.695-41.089 28.094 58.032 92.063-16.943-120.157Z" fill="#DBFAFC"/>
        <path d="m481.194 876.975-67.69 46.032 130.55-2.539-62.86-43.493Z" fill="#fff"/>
        <path d="M413.504 923.007 531.94 1066.18l12.114-145.712-130.55 2.539Z" fill="#fff"/>
        <path d="m486.023 562.535-55.658 99.681 123.348 17.937-67.69-117.618Z" fill="#F8FCFD"/>
        <path d="m544.054 577.852-58.032-15.317 67.69 117.618-9.658-102.301Z" fill="#EAFAFA"/>
        <path d="m430.365 662.216 14.569 99.762 108.779-81.825-123.348-17.937Z" fill="#fff"/>
        <path d="m495.681 322.139 31.43 110.001 31.43-89.524-62.86-20.477Z" fill="#F3FEFF"/>
        <path d="m531.94 1066.18-2.374 86.98 50.747-25.63-48.373-61.35ZM580.313 1127.53l-50.747 25.63 58.032 91.99-7.285-117.62ZM488.396 1191.5l33.886 181.5 65.316-127.85-99.202-53.65Z" fill="#fff"/>
        <path d="m529.567 1153.16-41.171 38.34 99.202 53.65-58.031-91.99ZM481.193 876.975l62.861 43.493 45.917-120.157-108.778 76.664Z" fill="#fff"/>
        <path d="m444.935 761.978 36.259 114.997 108.778-76.665-145.037-38.332Z" fill="#F8FCFD"/>
        <path d="m553.713 680.153-108.778 81.825 145.037 38.332-36.259-120.157Z" fill="#FAFCFB"/>
        <path d="m500.51 214.759-4.829 107.38 96.746-86.903-91.917-20.477Z" fill="#FEFEFE"/>
        <path d="m495.681 322.139 62.86 20.477 33.886-107.38-96.746 86.903ZM488.396 1459.99l26.602 58.81 77.429-23.02-104.031-35.79Z" fill="#fff"/>
        <path d="m522.282 1373-33.886 86.99 104.031 35.79L522.282 1373ZM587.598 1245.15 522.282 1373l82.177-12.78-16.861-115.07Z" fill="#fff"/>
        <path d="m522.282 1373 70.145 122.78 12.032-135.56-82.177 12.78ZM531.94 1066.18l48.374 61.35 26.601-17.86-74.975-43.49ZM486.023 2.54l-14.488 79.285 142.664-63.888L486.023 2.54Z" fill="#fff"/>
        <path d="M614.199 17.938 471.535 81.825l145.038 51.11-2.374-114.998Z" fill="#FEFEFE"/>
        <path d="m471.535 81.825 28.975 132.934 116.063-81.824-145.038-51.11Z" fill="#fff"/>
        <path d="m500.51 214.759 91.917 20.477 24.145-102.301-116.062 81.824Z" fill="#FDFFFE"/>
        <path d="M544.054 920.468 531.94 1066.18l94.291-99.681-82.177-46.031ZM531.94 1066.18l74.975 43.49 19.316-143.171-94.291 99.681ZM580.313 1127.53l7.285 117.62 45.918-51.11-53.203-66.51ZM606.915 1109.67l-26.602 17.86 53.203 66.51-26.601-84.37Z" fill="#fff"/>
        <path d="m589.971 800.311-45.917 120.157 91.835-69.048-45.918-51.109Z" fill="#fff"/>
        <path d="m544.054 920.468 82.177 46.031 9.658-115.079-91.835 69.048Z" fill="#fff"/>
        <path d="m527.111 457.695 16.943 120.157 94.291-63.887-111.234-56.27Z" fill="#EAF8FB"/>
        <path d="M527.111 432.14v25.555l111.234 56.269-111.234-81.824ZM587.598 1245.15l16.861 115.07 36.341-28.09-53.202-86.98ZM592.428 1495.78l-77.43 23.02 128.176 68.96-50.746-91.98Z" fill="#fff"/>
        <path d="m365.131 1528.95-70.145 35.88 348.188 22.93-278.043-58.81Z" fill="#FEFEFE"/>
        <path d="m514.997 1518.8-149.866 10.15 278.043 58.81-128.177-68.96ZM294.986 1564.83 0 1598l643.174-10.24-348.188-22.93ZM604.459 1360.22l-12.032 135.56 62.86-99.76-50.828-35.8ZM640.8 1332.13l-36.341 28.09 50.829 35.8-14.488-63.89ZM589.972 800.31l45.917 51.11 26.601-109.919-72.518 58.809Z" fill="#fff"/>
        <path d="m553.712 680.153 36.259 120.157 72.519-58.809-108.778-61.348ZM633.515 1194.04l-45.917 51.11 82.177-7.62-36.26-43.49ZM587.598 1245.15l53.202 86.98 28.975-94.6-82.177 7.62Z" fill="#fff"/>
        <path d="m558.542 342.616-31.431 89.524 145.12-79.286-113.689-10.238Z" fill="#F2FCFB"/>
        <path d="m527.111 432.14 111.234 81.825 33.886-161.111-145.12 79.286Z" fill="#F7FCFF"/>
        <path d="m592.427 235.236-33.886 107.38 113.689 10.238-79.803-117.618ZM635.89 851.42l-9.659 115.079 58.032-84.364-48.373-30.715Z" fill="#fff"/>
        <path d="M662.491 741.501 635.89 851.42l48.373 30.715-21.772-140.634Z" fill="#fff"/>
        <path d="m592.427 1495.78 50.746 91.98 45.918-71.58-96.664-20.4Z" fill="#FEFEFE"/>
        <path d="m614.199 17.938 2.374 114.997 77.348-114.998h-79.722Z" fill="#fff"/>
        <path d="m486.022 2.54 128.177 15.398h79.721L486.022 2.539ZM553.712 680.153l108.778 61.348 31.43-176.427-140.208 115.079Z" fill="#fff"/>
        <path d="m544.054 577.852 9.658 102.301L693.92 565.074l-149.866 12.778Z" fill="#FFFEFF"/>
        <path d="m638.344 513.965-94.29 63.887 149.866-12.777-55.576-51.11ZM655.287 1396.02l-62.86 99.76 106.404-74.21-43.544-25.55ZM592.427 1495.78l96.664 20.4 9.74-94.61-106.404 74.21ZM640.801 1332.13l14.487 63.89 43.544 25.55-58.031-89.44ZM606.914 1109.67l26.601 84.37 67.69-56.27-94.291-28.1ZM633.516 1194.04l36.259 43.49 31.43-99.76-67.689 56.27ZM626.231 966.499l-19.317 143.171 101.575-145.71-82.258 2.539Z" fill="#fff"/>
        <path d="m684.263 882.135-58.032 84.364 82.259-2.539-24.227-81.825Z" fill="#fff"/>
        <path d="m592.427 235.236 79.803 117.618 55.576-89.524-135.379-28.094Z" fill="#FEFEFE"/>
        <path d="m672.23 352.854-33.885 161.111 96.746-76.747-62.861-84.364Z" fill="#F4FDFC"/>
        <path d="m638.345 513.964 55.576 51.11 41.17-127.856-96.746 76.746Z" fill="#FCFEFD"/>
        <path d="m727.806 263.33-55.576 89.524 72.519-38.332-16.943-51.192Z" fill="#D9F6F4"/>
        <path d="m672.23 352.854 62.861 84.364 9.658-122.696-72.519 38.332Z" fill="#F8FCFD"/>
        <path d="m693.921 17.938-77.348 114.997 130.55-7.618-53.202-107.38Z" fill="#fff"/>
        <path d="m747.123 125.317-130.55 7.618 130.55 79.285v-86.903Z" fill="#fff"/>
        <path d="m727.807 263.33 16.943 51.192 2.373-102.302-19.316 51.11Z" fill="#FDFDFD"/>
        <path d="m616.572 132.935-24.145 102.301 154.695-23.016-130.55-79.285Z" fill="#fff"/>
        <path d="m592.427 235.236 135.379 28.094 19.316-51.11-154.695 23.016Z" fill="#fff"/>
        <path d="m693.92 565.074-31.43 176.427 99.202-74.125-67.772-102.302Z" fill="#FCFEFD"/>
        <path d="m606.914 1109.67 94.291 28.1 60.487-91.98-154.778 63.88Z" fill="#fff"/>
        <path d="m708.489 963.96-101.575 145.71 154.778-63.89-53.203-81.82Z" fill="#fff"/>
        <path d="m735.091 437.218-41.17 127.856 70.145-28.176-28.975-99.68Z" fill="#E9F7F8"/>
        <path d="m693.921 565.074 67.771 102.302 2.374-130.478-70.145 28.176Z" fill="#FCFEFD"/>
        <path d="m698.832 1421.57-9.74 94.61 79.803-23.02-70.063-71.59ZM701.206 1137.77l-31.431 99.76 103.949 28.09-72.518-127.85Z" fill="#fff"/>
        <path d="m669.776 1237.53-28.975 94.6 132.923-66.51-103.948-28.09ZM689.091 1516.18l-45.917 71.58 137.835-17.85-91.918-53.73ZM768.895 1493.16l-79.803 23.01 91.917 53.74-12.114-76.75Z" fill="#fff"/>
        <path d="m662.49 741.501 21.772 140.634 106.405-46.031-128.177-94.603Z" fill="#FDFDFD"/>
        <path d="m684.263 882.135 24.227 81.825 82.177-127.856-106.404 46.031ZM744.749 314.522l-9.658 122.696 62.86-5.078-53.202-117.618Z" fill="#fff"/>
        <path d="m735.091 437.218 28.975 99.68 33.885-104.758-62.86 5.078Z" fill="#DFF5F3"/>
        <path d="m640.801 1332.13 58.031 89.44 99.12-84.36-157.151-5.08ZM773.724 1265.62l-132.923 66.51 157.151 5.08-24.228-71.59Z" fill="#fff"/>
        <path d="m698.832 1421.57 70.063 71.59 29.057-155.95-99.12 84.36Z" fill="#fff"/>
        <path d="m761.692 667.376-99.202 74.126 142.664 20.476-43.462-94.602Z" fill="#FEFEFE"/>
        <path d="m662.49 741.501 128.177 94.603 14.487-74.126-142.664-20.477Z" fill="#FCFCFC"/>
        <path d="m761.692 1045.79-60.487 91.98 128.176-5.08-67.689-86.9Z" fill="#fff"/>
        <path d="m701.205 1137.77 72.519 127.85 55.657-132.93-128.176 5.08ZM693.921 17.938l53.202 107.379 101.575-61.43-154.777-45.95ZM797.951 1337.21l-29.056 155.95 87.087-76.67-58.031-79.28Z" fill="#fff"/>
        <path d="m797.951 432.14-33.886 104.758 94.291 56.27-60.405-161.028Z" fill="#AFEDEA"/>
        <path d="m764.066 536.898-2.374 130.478 96.665-74.208-94.291-56.27ZM805.154 761.978l-14.487 74.126 74.974 30.633-60.487-104.759ZM790.667 836.104 708.49 963.96l157.151-97.223-74.974-30.633ZM768.895 1493.16l12.113 76.75 91.917 17.85-104.03-94.6Z" fill="#fff"/>
        <path d="m855.982 1416.49-87.087 76.67 104.03 94.6-16.943-171.27Z" fill="#fff"/>
        <path d="m781.009 1569.91-137.835 17.85h229.752l-91.917-17.85ZM708.49 963.96l53.202 81.82 113.608-33.25-166.81-48.57Z" fill="#fff"/>
        <path d="M865.641 866.737 708.49 963.96l166.81 48.57-9.659-145.793ZM761.692 1045.78l67.69 86.91 45.918-120.16-113.608 33.25Z" fill="#fff"/>
        <path d="m744.749 314.522 53.202 117.618 79.804-102.301-133.006-15.317Z" fill="#C5ECEB"/>
        <path d="m747.123 212.22-2.374 102.302 133.006 15.316L747.123 212.22Z" fill="#FDFDFD"/>
        <path d="m805.154 761.978 60.487 104.759 19.317-120.157-79.804 15.398Z" fill="#FEFEFE"/>
        <path d="m761.692 667.376 43.463 94.602 79.803-15.398-123.266-79.204Z" fill="#fff"/>
        <path d="m858.357 593.168-96.665 74.208 123.266 79.204-26.601-153.412Z" fill="#fff"/>
        <path d="m797.951 432.14 60.405 161.028 29.057-161.028h-89.462Z" fill="#CAECED"/>
        <path d="M877.755 329.838 797.951 432.14h89.462l-9.658-102.302Z" fill="#fff"/>
        <path d="m747.123 212.22 130.632 117.619 12.032-153.412-142.664 35.793Z" fill="#FDFFFE"/>
        <path d="M747.123 125.317v86.903l142.664-35.793-142.664-51.11Z" fill="#F9FDFE"/>
        <path d="m848.698 63.887-101.575 61.43 142.664 51.11-41.089-112.54Z" fill="#fff"/>
        <path d="M486.022 2.54 693.92 17.937 899.445 0 486.022 2.54ZM693.921 17.938l154.777 45.95L899.445 0 693.921 17.938Z" fill="#FEFEFE"/>
        <path d="m848.698 63.887 50.747-58.809V0l-50.747 63.887ZM797.951 1337.21l58.032 79.28 48.373-163.64-106.405 84.36ZM773.724 1265.62l24.227 71.59 106.405-84.36-130.632 12.77Z" fill="#fff"/>
        <path d="m829.381 1132.69-55.657 132.93 130.632-12.77-74.975-120.16ZM884.957 746.58l-19.316 120.157 53.202 7.699-33.886-127.856Z" fill="#fff"/>
        <path d="m865.641 866.737 9.658 145.793 45.918-115.078-55.576-30.715Z" fill="#fff"/>
        <path d="m918.843 874.436-53.202-7.699 55.576 30.715-2.374-23.016Z" fill="#FEFEFE"/>
        <path d="m858.356 593.168 26.602 153.412 38.714-71.587-65.316-81.825Z" fill="#FCFEFD"/>
        <path d="m887.413 432.14-29.057 161.028 67.69-92.063-38.633-68.965Z" fill="#FDFFFE"/>
        <path d="m858.356 593.169 65.316 81.824 2.374-173.888-67.69 92.064Z" fill="#F6F7F9"/>
        <path d="M899.445 0v5.078l33.886 17.938L899.445 0Z" fill="#fff"/>
        <path d="m899.445 5.078-50.747 58.81 84.633-40.872-33.886-17.938Z" fill="#FEFEFE"/>
        <path d="m918.844 874.436 2.373 23.016 19.399 20.476-21.772-43.492ZM921.217 897.452 875.3 1012.53l65.316-94.602-19.399-20.476ZM855.982 1416.49l16.943 171.27 67.69-94.6-84.633-76.67ZM848.698 63.887l41.089 112.54 60.487-138.094-101.576 25.554ZM933.331 23.016l-84.633 40.871 101.576-25.555-16.943-15.316ZM875.299 1012.53l-45.917 120.16 135.379-7.7-89.462-112.46ZM829.382 1132.69l74.974 120.16 60.405-127.86-135.379 7.7Z" fill="#fff"/>
        <path d="m940.615 1493.16-67.689 94.6 101.493-63.89-33.804-30.71Z" fill="#fff"/>
        <path d="m877.755 329.838 9.658 102.302 94.291-97.223-103.949-5.079Z" fill="#FBFDFC"/>
        <path d="m904.355 1252.85-48.373 163.64 128.095-69.04-79.722-94.6Z" fill="#fff"/>
        <path d="m887.413 432.14 38.633 68.965 62.942 5.16-101.575-74.125Z" fill="#F4FAFA"/>
        <path d="m981.704 334.917-94.291 97.223 101.575 74.125-7.284-171.348Z" fill="#E2F5F3"/>
        <path d="m926.047 501.105-2.374 173.888 65.316-168.727-62.942-5.161Z" fill="#F6FCFC"/>
        <path d="m889.787 176.427-12.032 153.412 113.607-99.763-101.575-53.649Z" fill="#F5FBFB"/>
        <path d="m877.755 329.839 103.949 5.078 9.658-104.841-113.607 99.763ZM875.3 1012.53l89.461 112.46 31.431-38.33-120.892-74.13ZM855.982 1416.49l84.633 76.67 55.576-38.33-140.209-38.34ZM984.077 1347.45l-128.095 69.04 140.209 38.34-12.114-107.38Z" fill="#fff"/>
        <path d="m940.615 1493.16 33.804 30.71 21.772-69.04-55.576 38.33Z" fill="#fff"/>
        <path d="m950.274 38.333-60.487 138.094 118.523-99.762-58.036-38.333Z" fill="#FEFEFE"/>
        <path d="m988.989 506.266-65.316 168.727 89.457-10.238-24.141-158.489Z" fill="#F4FAF8"/>
        <path d="m991.362 230.076-9.658 104.841 31.426-30.633-21.768-74.208ZM923.672 674.993l-38.715 71.587 137.833 12.777-99.118-84.364Z" fill="#fff"/>
        <path d="m1013.13 664.755-89.457 10.238 99.117 84.364-9.66-94.602Z" fill="#F0F4F5"/>
        <path d="m884.957 746.58 33.886 127.856 103.947-115.079-137.833-12.777Z" fill="#fff"/>
        <path d="m918.844 874.436 21.772 43.493 82.174-158.572-103.946 115.079Z" fill="#FCFEFD"/>
        <path d="M940.616 917.929 875.3 1012.53l152.32-51.191-87.004-43.41Z" fill="#fff"/>
        <path d="m875.3 1012.53 120.892 74.13 31.428-125.321-152.32 51.191ZM889.787 176.427l101.575 53.649 38.718-107.38-140.293 53.731Z" fill="#fff"/>
        <path d="m1008.31 76.665-118.523 99.762 140.293-53.731-21.77-46.031ZM991.362 230.076l21.768 74.208 28.98-117.618-50.748 43.41Z" fill="#FEFEFE"/>
        <path d="m1030.08 122.696-38.718 107.38 50.748-43.411-12.03-63.969Z" fill="#F9FDFE"/>
        <path d="m996.191 1086.66-31.43 38.33 84.629 17.94-53.199-56.27Z" fill="#fff"/>
        <path d="m964.76 1124.99-60.405 127.86 145.035-109.92-84.63-17.94ZM904.355 1252.85l79.722 94.6 65.313-204.52-145.035 109.92ZM974.419 1523.87l-101.493 63.89 190.954-15.31-89.461-48.58ZM1049.39 1142.93l-65.313 204.52 82.263 10.24-16.95-214.76Z" fill="#fff"/>
        <path d="m984.077 1347.45 12.114 107.38 70.149-97.14-82.263-10.24ZM1030.08 122.696l12.03 63.969 41.17-15.316-53.2-48.653ZM1027.62 961.339l-31.429 125.321h91.919l-60.49-125.321ZM996.191 1086.66l53.199 56.27 38.72-56.27h-91.919Z" fill="#fff"/>
        <path d="m1066.34 1357.69-70.149 97.14 91.919 40.95-21.77-138.09Z" fill="#fff"/>
        <path d="m996.191 1454.83-21.772 69.04 113.691-28.09-91.919-40.95Z" fill="#fff"/>
        <path d="m974.419 1523.87 89.461 48.58 24.23-76.67-113.691 28.09Z" fill="#fff"/>
        <path d="m981.704 334.917 7.285 171.348 101.491-71.586-108.776-99.762Z" fill="#F7FBFA"/>
        <path d="m1013.13 304.283-31.426 30.633 108.776 99.763-77.35-130.396Z" fill="#FEFEFE"/>
        <path d="m940.615 917.929 87.005 43.41 74.98-109.919-161.985 66.509Z" fill="#fff"/>
        <path d="m1022.79 759.357-82.175 158.572 161.985-66.508-79.81-92.064Z" fill="#FEFEFE"/>
        <path d="m1097.77 807.928-74.98-48.571 79.81 92.064-4.83-43.493Z" fill="#FCFEFD"/>
        <path d="m933.331 23.016 16.943 15.316L1102.6 2.54 933.331 23.016Z" fill="#fff"/>
        <path d="m950.273 38.332 58.027 38.333 94.3-74.126-152.327 35.793Z" fill="#fff"/>
        <path d="m899.445 0 33.886 23.016L1102.6 2.539 899.445 0ZM1030.08 122.696l53.2 48.653 24.14-58.809-77.34 10.156Z" fill="#FEFEFE"/>
        <path d="m1008.3 76.665 21.78 46.031 77.34-10.156-99.12-35.875ZM1102.6 2.54l-94.3 74.125 99.12 35.875-4.82-110Z" fill="#fff"/>
        <path d="m1013.13 304.283 77.35 130.396 26.6-145.794-103.95 15.398Z" fill="#FEFEFE"/>
        <path d="m1042.11 186.666-28.98 117.618 103.95-15.399-74.97-102.219ZM1083.28 171.349l-41.17 15.316 74.97 102.22-33.8-117.536ZM1088.11 1495.78l-24.23 76.67 55.66-17.86-31.43-58.81ZM1102.6 2.54l4.82 110 29.06-66.508-33.88-43.493Z" fill="#fff"/>
        <path d="m1013.13 664.755 9.66 94.602 116.06-66.426-125.72-28.176Z" fill="#FCFEFD"/>
        <path d="m1022.79 759.357 74.98 48.571 41.08-114.997-116.06 66.426Z" fill="#FBFDFC"/>
        <path d="m1027.62 961.339 60.49 125.321 55.57-132.938-116.06 7.617Z" fill="#fff"/>
        <path d="m1102.6 851.42-74.98 109.919 116.06-7.617-41.08-102.302Z" fill="#FEFEFE"/>
        <path d="m1090.48 434.679-101.492 71.586 157.152 61.348-55.66-132.934Z" fill="#F9FBFA"/>
        <path d="m988.988 506.266 24.142 158.489 133.01-97.141-157.152-61.348Z" fill="#FDFFFE"/>
        <path d="m1013.13 664.755 125.72 28.176 7.29-125.318-133.01 97.142Z" fill="#F1FAF9"/>
        <path d="m1090.48 434.679 55.66 132.934 7.2-109.919-62.86-23.015Z" fill="#F2FBF8"/>
        <path d="m1102.6 851.42 41.08 102.302 12.12-51.192-53.2-51.11ZM1066.34 1357.69l21.77 138.09 70.06-84.36-91.83-53.73ZM1088.11 1495.78l31.43 58.81 41.09-112.54-72.52 53.73Z" fill="#fff"/>
        <path d="m1158.17 1411.42-70.06 84.36 72.52-53.73-2.46-30.63Z" fill="#fff"/>
        <path d="m1160.63 1442.05-41.09 112.54 41.09 7.62v-120.16ZM1119.54 1554.59l-55.66 17.86 96.75-10.24-41.09-7.62ZM1143.68 953.722l-55.57 132.938 77.35-43.5-21.78-89.438ZM1088.11 1086.66l-38.72 56.27 128.18 89.44-89.46-145.71Z" fill="#fff"/>
        <path d="m1049.39 1142.93 16.95 214.76 111.23-125.32-128.18-89.44Z" fill="#fff"/>
        <path d="m1066.34 1357.69 91.83 53.73 21.77-79.29-113.6 25.56ZM1177.57 1232.37l-111.23 125.32 113.6-25.56-2.37-99.76Z" fill="#fff"/>
        <path d="m1117.08 288.885-26.6 145.794 91.92-66.509-65.32-79.285Z" fill="#FCFCFC"/>
        <path d="m1090.48 434.679 62.86 23.016 29.06-89.524-91.92 66.508Z" fill="#EDF6F5"/>
        <path d="m1107.42 112.54-24.14 58.809 120.89 56.188-96.75-114.997ZM1083.28 171.349l33.8 117.536 87.09-61.348-120.89-56.188Z" fill="#fff"/>
        <path d="m1102.6 2.54 33.88 43.492 70.06-43.493H1102.6Z" fill="#FEFEFE"/>
        <path d="m1117.08 288.885 65.32 79.285 26.6-38.332-91.92-40.953Z" fill="#fff"/>
        <path d="m1204.17 227.537-87.09 61.348 91.92 40.953-4.83-102.301Z" fill="#FEFEFE"/>
        <path d="m1206.54 2.54-70.06 43.492 74.89-38.333-4.83-5.16ZM1165.46 1043.16l-77.35 43.5 137.83 38.33-60.48-81.83ZM1088.11 1086.66l89.46 145.71 48.37-107.38-137.83-38.33ZM1097.77 807.928l4.83 43.492 128.17 2.539-133-46.031Z" fill="#fff"/>
        <path d="m1102.6 851.42 53.2 51.11 74.97-48.571-128.17-2.539Z" fill="#FCFEFD"/>
        <path d="m1160.63 1562.21-96.75 10.24 186.21 17.93-89.46-28.17Z" fill="#fff"/>
        <path d="m1063.88 1572.45-190.954 15.31 377.164 2.62-186.21-17.93Z" fill="#fff"/>
        <path d="m1138.86 692.931-41.09 114.997 152.32-45.95-111.23-69.047Z" fill="#F5F9F8"/>
        <path d="m1097.77 807.928 133 46.031 19.32-91.981-152.32 45.95Z" fill="#F5FBF9"/>
        <path d="m1160.63 1562.21 89.46 28.17 2.45-15.4-91.91-12.77ZM1211.37 7.7l-74.89 38.332 120.89 43.492-46-81.825Z" fill="#fff"/>
        <path d="m1136.48 46.032-29.06 66.508 149.95-23.016-120.89-43.492Z" fill="#fff"/>
        <path d="m1107.42 112.54 96.75 114.997 53.2-138.013-149.95 23.016ZM1160.63 1442.05v120.16l103.95-69.05-103.95-51.11ZM1160.63 1562.21l91.91 12.77 12.04-81.82-103.95 69.05ZM1177.57 1232.37l2.37 99.76 89.47 7.62-91.84-107.38Z" fill="#fff"/>
        <path d="m1153.34 457.695-7.2 109.919 125.72-97.142-118.52-12.777Z" fill="#F9FBFA"/>
        <path d="m1182.4 368.171-29.06 89.524 118.52 12.777-89.46-102.301Z" fill="#FEFEFE"/>
        <path d="m1209 329.838-26.6 38.333 89.46 102.301L1209 329.838ZM1143.68 953.722l21.78 89.438 113.68-28.09-135.46-61.348ZM1155.8 902.53l-12.12 51.192 135.46 61.348-123.34-112.54ZM1165.46 1043.16l60.48 81.83 53.21-109.92-113.69 28.09ZM1179.94 1332.13l-21.77 79.29 120.98-35.88-99.21-43.41Z" fill="#fff"/>
        <path d="m1269.4 1339.75-89.46-7.62 99.21 43.41-9.75-35.79ZM1209 329.838l62.86 140.634 9.66-189.204-72.52 48.57Z" fill="#fff"/>
        <path d="m1204.17 227.537 4.83 102.301 72.52-48.571-77.35-53.73ZM1160.63 1442.05l103.95 51.11 16.94-58.81-120.89 7.7Z" fill="#fff"/>
        <path d="m1158.17 1411.42 2.46 30.63 120.89-7.7-123.35-22.93Z" fill="#fff"/>
        <path d="m1279.15 1375.54-120.98 35.88 123.35 22.93-2.37-58.81Z" fill="#fff"/>
        <path d="m1146.14 567.613-7.28 125.318 152.32-94.603-145.04-30.715Z" fill="#FEFFFF"/>
        <path d="m1138.86 692.931 111.23 69.047 41.09-163.649-152.32 94.602Z" fill="#FCFEFD"/>
        <path d="m1257.37 89.524-53.2 138.013 87.01-10.239-33.81-127.774ZM1204.17 227.537l77.35 53.73 9.66-63.969-87.01 10.239ZM1271.86 470.472l-125.72 97.142 149.87-46.032-24.15-51.11Z" fill="#fff"/>
        <path d="m1146.14 567.614 145.04 30.715 4.83-76.747-149.87 46.032Z" fill="#F9FDFC"/>
        <path d="m1177.57 1232.37 91.84 107.38 36.25-79.21-128.09-28.17ZM1230.77 853.959l-74.97 48.571 154.78 58.809-79.81-107.38ZM1155.8 902.53l123.35 112.54 31.43-53.731-154.78-58.809ZM1264.58 1493.16l-12.04 81.82 65.24-48.57-53.2-33.25ZM1281.52 1434.35l-16.94 58.81 53.2 33.25-36.26-92.06ZM1225.94 1124.99l-48.37 107.38 142.66-46.03-94.29-61.35Z" fill="#fff"/>
        <path d="m1177.57 1232.37 128.09 28.17 14.57-74.2-142.66 46.03ZM1310.58 961.339l-31.43 53.731 50.74-10.24-19.31-43.491Z" fill="#fff"/>
        <path d="m1291.18 598.329-41.09 163.649 91.92-56.27-50.83-107.379ZM1279.15 1375.54l2.37 58.81 60.49-43.41-62.86-15.4Z" fill="#FEFEFE"/>
        <path d="m1269.41 1339.75 9.74 35.79 62.86 15.4-72.6-51.19Z" fill="#FEFEFE"/>
        <path d="m1329.89 1004.83-50.74 10.24 67.68 148.33-16.94-158.57Z" fill="#fff"/>
        <path d="m1279.15 1015.07-53.21 109.92 120.89 38.41-67.68-148.33Z" fill="#fff"/>
        <path d="m1225.94 1124.99 94.29 61.35 26.6-22.94-120.89-38.41Z" fill="#fff"/>
        <path d="m1252.54 1574.98-2.45 15.4 99.12-35.79-96.67 20.39Z" fill="#FEFEFE"/>
        <path d="m1317.78 1526.41-65.24 48.57 96.67-20.39-31.43-28.18Z" fill="#fff"/>
        <path d="m1291.18 217.298-9.66 63.97 70.14-86.985-60.48 23.015Z" fill="#FEFEFE"/>
        <path d="m1257.37 89.524 33.81 127.774 60.48-23.015-94.29-104.76Z" fill="#fff"/>
        <path d="m1317.78 1526.41 31.43 28.18 7.28-48.57-38.71 20.39Z" fill="#FEFEFE"/>
        <path d="m1281.52 1434.35 36.26 92.06 38.71-20.39-74.97-71.67Z" fill="#fff"/>
        <path d="m1342.01 1390.94-60.49 43.41 74.97 71.67-14.48-115.08Z" fill="#FBFBFB"/>
        <path d="m1230.77 853.959 79.8 107.38 53.13-94.602-132.93-12.778ZM1346.83 1163.4l-26.6 22.94 45.92-15.32-19.32-7.62Z" fill="#fff"/>
        <path d="m1291.18 598.329 50.83 107.379 31.43-15.398-82.26-91.981Z" fill="#F3FCF9"/>
        <path d="m1373.44 690.31-31.43 15.398 31.43 112.458V690.31ZM1342.01 705.708l-91.92 56.27 123.35 56.188-31.43-112.458Z" fill="#FEFEFE"/>
        <path d="m1250.09 761.978-19.32 91.981 142.67-35.793-123.35-56.188ZM1230.77 853.959l132.93 12.778 9.74-48.571-142.67 35.793ZM1320.23 1186.34l-14.57 74.2 70.15-7.69-55.58-66.51Z" fill="#fff"/>
        <path d="m1366.15 1171.02-45.92 15.32 55.58 66.51-9.66-81.83ZM1211.37 7.7l46 81.824 123.27-84.446L1211.37 7.7ZM1206.54 2.54l4.83 5.16 169.27-2.622-174.1-2.539ZM1375.81 1252.85l-70.15 7.69 77.43 84.37-7.28-92.06Z" fill="#fff"/>
        <path d="m1305.66 1260.54-36.25 79.21 113.68 5.16-77.43-84.37ZM1269.41 1339.75l72.6 51.19 41.08-46.03-113.68-5.16ZM1281.52 281.268l-9.66 189.204 128.18-112.54-118.52-76.664Z" fill="#fff"/>
        <path d="m1351.66 194.283-70.14 86.985 118.52 76.664-48.38-163.649Z" fill="#FEFEFE"/>
        <path d="m1257.37 89.524 94.29 104.759 53.21-71.587-147.5-33.172ZM1380.64 5.078l-123.27 84.446 147.5 33.172-24.23-117.618ZM1310.58 961.339l19.31 43.491 77.35-20.475-96.66-23.016Z" fill="#fff"/>
        <path d="m1363.7 866.737-53.12 94.602 96.66 23.016-43.54-117.618Z" fill="#FCFEFD"/>
        <path d="m1342.01 1390.94 14.48 115.08 50.75-43.49-65.23-71.59Z" fill="#fff"/>
        <path d="m1383.09 1344.91-41.08 46.03 65.23 71.59-24.15-117.62Z" fill="#FEFEFE"/>
        <path d="m1296.01 521.582-4.83 76.747 118.51-58.809-113.68-17.938ZM1407.24 984.355l-77.35 20.475 82.18 51.11-4.83-71.585Z" fill="#fff"/>
        <path d="m1329.89 1004.83 16.94 158.57 65.24-107.46-82.18-51.11Z" fill="#fff"/>
        <path d="m1356.49 1506.02-7.28 48.57 62.86-5.16-55.58-43.41Z" fill="#FDFDFD"/>
        <path d="m1407.24 1462.53-50.75 43.49 55.58 43.41-4.83-86.9Z" fill="#FEFEFE"/>
        <path d="m1291.18 598.329 82.26 91.981 43.46-91.981h-125.72Z" fill="#FAFEFD"/>
        <path d="m1409.69 539.52-118.51 58.809h125.72l-7.21-58.809ZM1400.04 357.932l-128.18 112.54 147.49 30.633-19.31-143.173Z" fill="#fff"/>
        <path d="m1271.86 470.472 24.15 51.11 123.34-20.477-147.49-30.633Z" fill="#FCFEFD"/>
        <path d="m1296.01 521.582 113.68 17.938 9.66-38.415-123.34 20.477ZM1346.83 1163.4l19.32 7.62 53.2-38.33-72.52 30.71Z" fill="#fff"/>
        <path d="m1412.07 1055.94-65.24 107.46 72.52-30.71-7.28-76.75Z" fill="#FEFEFE"/>
        <path d="m1366.15 1171.02 9.66 81.82L1443.5 1148l-77.35 23.02Z" fill="#FFFDFE"/>
        <path d="m1419.35 1132.69-53.2 38.33 77.35-23.02-24.15-15.31Z" fill="#FEFEFE"/>
        <path d="m1412.07 1055.94 7.28 76.75 24.15 15.31-31.43-92.06ZM1373.44 690.31v127.856l91.83-92.063-91.83-35.793Z" fill="#fff"/>
        <path d="m1416.9 598.329-43.46 91.981 91.83 35.793-48.37-127.774ZM1375.81 1252.85l7.28 92.06 89.47-51.11-96.75-40.95ZM1383.09 1344.91l24.15 117.62 72.52-86.99-96.67-30.63ZM1472.56 1293.8l-89.47 51.11 96.67 30.63-7.2-81.74Z" fill="#fff"/>
        <path d="m1465.27 726.103-91.83 92.063 108.77-43.41-16.94-48.653Z" fill="#FDFFFE"/>
        <path d="m1407.24 1462.53 4.83 86.9 74.97-86.9h-79.8ZM1479.76 1375.54l-72.52 86.99h79.8l-7.28-86.99Z" fill="#FEFEFE"/>
        <path d="m1380.64 5.078 24.23 117.618 87-91.981-111.23-25.637Z" fill="#fff"/>
        <path d="m1443.5 1148-67.69 104.84 125.72 5.17L1443.5 1148Z" fill="#FEFEFE"/>
        <path d="m1375.81 1252.85 96.75 40.95 28.97-35.79-125.72-5.16ZM1487.04 1462.53l-74.97 86.9 99.2 25.55-24.23-112.45Z" fill="#fff"/>
        <path d="m1349.21 1554.59-99.12 35.79 261.18-15.4-162.06-20.39Z" fill="#fff"/>
        <path d="m1412.07 1549.43-62.86 5.16 162.06 20.39-99.2-25.55Z" fill="#fff"/>
        <path d="m1443.5 1148 58.03 110.01 12.11-10.24-70.14-99.77Z" fill="#E9FBFB"/>
        <path d="m1363.7 866.737 43.54 117.618 106.4-84.364-149.94-33.254Z" fill="#FDFFFE"/>
        <path d="m1373.44 818.166-9.74 48.571 149.94 33.254-140.2-81.825Z" fill="#fff"/>
        <path d="m1482.21 774.756-108.77 43.41 140.2 81.825-31.43-125.235Z" fill="#FEFFFF"/>
        <path d="m1400.04 357.932 19.31 143.173 96.75-91.981-116.06-51.192ZM1513.64 1247.77l-12.11 10.24 21.77 89.44-9.66-99.68ZM1479.76 1375.54l7.28 86.99 36.26-115.08-43.54 28.09Z" fill="#fff"/>
        <path d="m1472.56 1293.8 7.2 81.74 43.54-28.09-50.74-53.65Z" fill="#fff"/>
        <path d="m1501.53 1258.01-28.97 35.79 50.74 53.65-21.77-89.44ZM1516.1 409.124l-96.75 91.981 106.41 40.954-9.66-132.935Z" fill="#fff"/>
        <path d="m1409.7 539.52 7.2 58.809 108.86-56.27-116.06-2.539Z" fill="#FEFEFE"/>
        <path d="m1419.35 501.105-9.65 38.415 116.06 2.539-106.41-40.954Z" fill="#fff"/>
        <path d="m1412.07 1055.94 31.43 92.06 84.63-10.23-116.06-81.83Z" fill="#FAFEFD"/>
        <path d="m1443.5 1148 70.14 99.77 14.49-110-84.63 10.23Z" fill="#FDFFFE"/>
        <path d="m1491.87 30.715-87 91.981 132.92 69.047-45.92-161.028ZM1404.87 122.696l-53.21 71.587 186.13-2.539-132.92-69.048ZM1482.21 774.756l31.43 125.235 26.61-84.364-58.04-40.871ZM1487.04 1462.53l24.23 112.45 28.98-76.66-53.21-35.79Z" fill="#fff"/>
        <path d="m1351.66 194.283 48.38 163.649 152.32-109.918-200.7-53.731Z" fill="#fff"/>
        <path d="m1537.79 191.744-186.13 2.539 200.7 53.731-14.57-56.27ZM1400.04 357.932l116.06 51.192 36.26-161.11-152.32 109.918ZM1412.07 1055.94l116.06 81.83 43.55-58.81-159.61-23.02Z" fill="#fff"/>
        <path d="m1465.27 726.103 16.94 48.653 96.75-58.809-113.69 10.156Z" fill="#FEFEFE"/>
        <path d="m1482.21 774.756 58.04 40.871 38.71-99.68-96.75 58.809ZM1523.3 1347.45l-36.26 115.08 91.92-99.77-55.66-15.31Z" fill="#fff"/>
        <path d="m1465.27 726.103 113.69-10.156 9.66-107.38-123.35 117.536Z" fill="#FFFFFD"/>
        <path d="m1416.9 598.329 48.37 127.774 123.35-117.536-171.72-10.238Z" fill="#fff"/>
        <path d="m1525.76 542.059-108.86 56.27 171.72 10.238-62.86-66.508Z" fill="#F9FDFC"/>
        <path d="m1513.64 899.991-106.4 84.364 181.38 23.015-74.98-107.379Z" fill="#FEFFFF"/>
        <path d="m1407.24 984.355 4.83 71.585 176.55-48.57-181.38-23.015Z" fill="#FEFFFF"/>
        <path d="m1412.07 1055.94 159.61 23.02 16.94-71.59-176.55 48.57ZM1487.04 1462.53l53.21 35.79 50.74-38.33-103.95 2.54Z" fill="#fff"/>
        <path d="m1578.96 1362.76-91.92 99.77 103.95-2.54-12.03-97.23Z" fill="#fff"/>
        <path d="m1528.13 1137.77-14.49 110 79.81-23.02-65.32-86.98Z" fill="#F9FDFC"/>
        <path d="m1593.45 1224.75-79.81 23.02 82.18 40.87-2.37-63.89Z" fill="#FEFEFE"/>
        <path d="m1513.64 1247.77 9.66 99.68 72.52-58.81-82.18-40.87Z" fill="#fff"/>
        <path d="m1523.3 1347.45 55.66 15.31 16.86-74.12-72.52 58.81Z" fill="#fff"/>
        <path d="m1540.25 815.627-26.61 84.364 84.64-51.11-58.03-33.254Z" fill="#FFFEFF"/>
        <path d="m1513.64 899.991 74.98 107.379 9.66-158.489-84.64 51.11Z" fill="#EAF9FC"/>
        <path d="m1578.96 715.947-38.71 99.68 58.03 33.254-19.32-132.934ZM1516.1 409.124l9.66 132.935 74.97-38.333-84.63-94.602Z" fill="#fff"/>
        <path d="m1525.76 542.058 62.86 66.509 12.11-104.841-74.97 38.332Z" fill="#fff"/>
        <path d="m1552.36 248.014-36.26 161.11 87.01-115.079-50.75-46.031ZM1540.25 1498.32l-28.98 76.66 91.84-74.12-62.86-2.54Z" fill="#FEFEFE"/>
        <path d="m1590.99 1459.99-50.74 38.33 62.86 2.54-12.12-40.87ZM1491.87 30.715l45.92 161.028 67.77-102.22-113.69-58.808Z" fill="#fff"/>
        <path d="m1491.87 30.715 113.69 58.809 4.83-84.446-118.52 25.637Z" fill="#fff"/>
        <path d="m1380.64 5.078 111.23 25.637 118.52-25.637h-229.75Z" fill="#fff"/>
        <path d="m1571.68 1078.96-43.55 58.81 96.75 40.95-53.2-99.76Z" fill="#F2FAFC"/>
        <path d="m1528.13 1137.77 65.32 86.98 31.43-46.03-96.75-40.95Z" fill="#fff"/>
        <path d="m1588.62 608.567-9.66 107.38 58.03-58.809-48.37-48.571Z" fill="#F9FDFE"/>
        <path d="m1603.11 1500.86-91.84 74.12 132.92 2.62-41.08-76.74ZM1516.1 409.124l84.63 94.602 50.75-76.746-135.38-17.856Z" fill="#fff"/>
        <path d="m1603.11 294.045-87.01 115.079 135.38 17.856-48.37-132.935Z" fill="#fff"/>
        <path d="m1603.11 294.045 48.37 132.935 9.66-94.603-58.03-38.332Z" fill="#fff"/>
        <path d="m1598.28 848.881-9.66 158.489 72.52-40.871-62.86-117.618Z" fill="#FCFEFD"/>
        <path d="m1603.11 294.045 58.03 38.332 7.28-117.618-65.31 79.286Z" fill="#fff"/>
        <path d="m1552.36 248.013 50.75 46.032 65.31-79.286-116.06 33.254Z" fill="#fff"/>
        <path d="m1537.79 191.744 14.57 56.27 116.06-33.255-130.63-23.015ZM1605.56 89.524l-67.77 102.22 130.63 23.015-62.86-125.235ZM1578.96 715.947l19.32 132.934 79.8-109.918-99.12-23.016Z" fill="#fff"/>
        <path d="m1636.99 657.138-58.03 58.809 99.12 23.016-41.09-81.825Z" fill="#EBFDFD"/>
        <path d="m1578.96 1362.76 12.03 97.23 89.46-63.97-101.49-33.26Z" fill="#FEFEFE"/>
        <path d="m1595.82 1288.64-16.86 74.12 101.49 33.26-84.63-107.38ZM1605.56 89.524l62.86 125.235 16.94-43.41-79.8-81.825Z" fill="#fff"/>
        <path d="m1571.68 1078.96 53.2 99.76 62.86-86.99-116.06-12.77Z" fill="#EDF9F9"/>
        <path d="m1588.62 1007.37-16.94 71.59 116.06 12.77-99.12-84.36Z" fill="#FDFFFE"/>
        <path d="m1661.14 966.499-72.52 40.871 99.12 84.36-26.6-125.231Z" fill="#CAF8F8"/>
        <path d="m1651.48 426.979-50.75 76.747 101.5 33.172-50.75-109.919Z" fill="#fff"/>
        <path d="m1600.73 503.726-12.11 104.841 113.61-71.669-101.5-33.172Z" fill="#fff"/>
        <path d="m1588.62 608.567 48.37 48.57 65.24-120.239-113.61 71.669Z" fill="#fff"/>
        <path d="m1595.82 1288.64 84.63 107.38 24.23-107.38h-108.86Z" fill="#FEFEFE"/>
        <path d="m1593.45 1224.75 2.37 63.89h108.86l-111.23-63.89ZM1624.88 1178.72l-31.43 46.03 111.23 63.89-79.8-109.92ZM1644.19 1577.61l-132.92-2.63 195.78 15.4-62.86-12.77Z" fill="#fff"/>
        <path d="m1511.27 1574.98-261.18 15.4h456.97l-195.79-15.4Z" fill="#FDFDFD"/>
        <path d="m1598.28 848.881 62.86 117.618 53.2-92.063-116.06-25.555Z" fill="#FAFEFF"/>
        <path d="m1678.08 738.962-79.8 109.919 116.06-53.731-36.26-56.188Z" fill="#fff"/>
        <path d="m1598.28 848.881 116.06 25.555V795.15l-116.06 53.731Z" fill="#ECFBF8"/>
        <path d="m1603.11 1500.86 41.08 76.74 70.15-84.44-111.23 7.7ZM1644.19 1577.6l62.86 12.78 7.29-97.22-70.15 84.44Z" fill="#fff"/>
        <path d="m1590.99 1459.99 12.12 40.87 111.23-7.7-123.35-33.17Z" fill="#fff"/>
        <path d="m1680.45 1396.02-89.46 63.97 123.35 33.17-33.89-97.14Z" fill="#FEFEFE"/>
        <path d="m1610.39 5.078-4.83 84.446 120.89-84.446h-116.06Z" fill="#fff"/>
        <path d="m1661.14 966.499 26.6 125.231 48.37-91.977-74.97-33.254Z" fill="#D8F6F6"/>
        <path d="m1714.34 874.436-53.2 92.063 74.97 33.254-21.77-125.317Z" fill="#C2F4F3"/>
        <path d="m1687.74 1091.73-62.86 86.99 113.61 35.79-50.75-122.78ZM1624.88 1178.72l79.8 109.92 33.81-74.13-113.61-35.79ZM1605.56 89.524l79.8 81.825 65.24-53.731-145.04-28.094Z" fill="#fff"/>
        <path d="m1726.45 5.078-120.89 84.446 145.04 28.094-24.15-112.54Z" fill="#fff"/>
        <path d="m1678.08 738.962 36.26 56.188 38.71-130.395-74.97 74.207Z" fill="#FFFEFF"/>
        <path d="m1636.99 657.138 41.09 81.825 74.97-74.208-116.06-7.617ZM1702.23 536.898l-65.24 120.239 116.06 7.618-50.82-127.857Z" fill="#fff"/>
        <path d="m1714.34 1493.16-7.29 97.22 58.04-20.47-50.75-76.75Z" fill="#FEFEFE"/>
        <path d="m1661.14 332.377-9.66 94.603 118.43 35.793-108.77-130.396Z" fill="#fff"/>
        <path d="m1651.48 426.979 50.75 109.919 67.68-74.125-118.43-35.794Z" fill="#fff"/>
        <path d="M1714.34 795.15v79.286l55.58-53.649-55.58-25.637Z" fill="#E2FEFF"/>
        <path d="m1738.49 1214.51-33.81 74.13 70.15 23.01-36.34-97.14Z" fill="#FDFFFE"/>
        <path d="m1704.68 1288.64-24.23 107.38 94.38-84.37-70.15-23.01Z" fill="#fff"/>
        <path d="m1687.74 1091.73 50.75 122.78 45.99-84.36-96.74-38.42Z" fill="#FEFEFE"/>
        <path d="m1685.36 171.349-16.94 43.41 118.44-25.555-101.5-17.855Z" fill="#fff"/>
        <path d="m1750.6 117.618-65.24 53.731 101.5 17.856-36.26-71.587Z" fill="#FEFEFE"/>
        <path d="m1680.45 1396.02 33.89 97.14 74.97-53.65-108.86-43.49Z" fill="#fff"/>
        <path d="m1774.83 1311.65-94.38 84.37 108.86 43.49-14.48-127.86Z" fill="#fff"/>
        <path d="m1714.34 1493.16 50.75 76.75 24.22-130.4-74.97 53.65Z" fill="#FEFEFE"/>
        <path d="m1668.42 214.759-7.28 117.618 133-58.809-125.72-58.809Z" fill="#fff"/>
        <path d="m1786.86 189.205-118.44 25.554 125.72 58.81-7.28-84.364Z" fill="#fff"/>
        <path d="m1714.34 874.436 21.77 125.317 58.03-51.191-79.8-74.126Z" fill="#FFFDFE"/>
        <path d="m1769.92 820.787-55.58 53.649 79.8 74.126-24.22-127.775Z" fill="#75F2F8"/>
        <path d="m1661.14 332.377 108.77 130.396 33.89-130.396h-142.66ZM1794.14 273.568l-133 58.809h142.66l-9.66-58.809ZM1702.23 536.898l50.82 127.857 58.04-30.633-108.86-97.224ZM1794.14 948.562l-58.03 51.191 79.8 74.127-21.77-125.318Z" fill="#fff"/>
        <path d="m1736.11 999.753-48.37 91.977 128.17-17.85-79.8-74.127Z" fill="#F7FCFF"/>
        <path d="m1687.74 1091.73 96.74 38.42 31.43-56.27-128.17 17.85ZM1811.08 634.122l-58.03 30.633 65.24 20.477-7.21-51.11Z" fill="#fff"/>
        <path d="m1753.05 664.755-38.71 130.395 103.95-109.918-65.24-20.477Z" fill="#E5FDFD"/>
        <path d="m1714.34 795.15 55.58 25.637 48.37-135.556-103.95 109.919Z" fill="#F7FBFA"/>
        <path d="m1726.45 5.078 24.15 112.54 74.97-51.11-99.12-61.43Z" fill="#fff"/>
        <path d="m1750.6 117.618 36.26 71.587 38.71-122.697-74.97 51.11ZM1789.31 1439.51l-24.22 130.4 79.8-56.27-55.58-74.13ZM1803.8 332.377l-33.88 130.396 89.54-35.793-55.66-94.603Z" fill="#fff"/>
        <path d="m1859.46 426.979-89.54 35.794 89.54 56.27v-92.064ZM1769.92 462.773l-67.69 74.126 157.23-17.856-89.54-56.27Z" fill="#fff"/>
        <path d="m1702.23 536.899 108.86 97.223 48.37-115.079-157.23 17.856Z" fill="#fff"/>
        <path d="m1769.92 820.787 24.22 127.775 65.32-58.809-89.54-68.966Z" fill="#D6F4F4"/>
        <path d="m1794.14 948.562 21.77 125.318 50.75-63.89-72.52-61.428Z" fill="#DFFBFC"/>
        <path d="m1859.46 889.753-65.32 58.809 72.52 61.428-7.2-120.237Z" fill="#85E6EC"/>
        <path d="m1818.29 685.231-48.37 135.556 101.57-84.446-53.2-51.11Z" fill="#F8FEFC"/>
        <path d="m1815.91 1073.88-31.43 56.27 87.01 10.24-55.58-66.51Z" fill="#F4FCFF"/>
        <path d="m1784.48 1130.15-46 84.36 133.01-74.12-87.01-10.24Z" fill="#EBF9F9"/>
        <path d="m1794.14 273.568 9.66 58.809 79.8 15.317-89.46-74.126ZM1803.8 332.377l55.66 94.603 24.14-79.286-79.8-15.317ZM1844.89 1513.64l-79.8 56.27 118.51 25.55-38.71-81.82ZM1765.09 1569.91l-58.04 20.47 176.55 5.08-118.51-25.55Z" fill="#fff"/>
        <path d="m1738.48 1214.51 36.35 97.14 116.06-35.79-152.41-61.35Z" fill="#FDFDFD"/>
        <path d="m1871.49 1140.39-133.01 74.12 152.41 61.35-19.4-135.47Z" fill="#F7FBFC"/>
        <path d="m1769.92 820.787 89.54 68.966 43.46-61.349-133-7.617Z" fill="#95ECF3"/>
        <path d="m1871.49 736.341-101.57 84.446 133 7.617-31.43-92.063Z" fill="#FFFEFF"/>
        <path d="m1726.45 5.078 99.12 61.43 79.81-46.031-178.93-15.399Z" fill="#fff"/>
        <path d="m1789.31 1439.51 55.58 74.13 65.32-99.68-120.9 25.55Z" fill="#FEFEFE"/>
        <path d="m1774.83 1311.65 14.48 127.86 120.9-25.55-135.38-102.31Z" fill="#FEFEFE"/>
        <path d="m1890.89 1275.86-116.06 35.79 135.38 102.31-19.32-138.1ZM1825.57 66.508l-38.71 122.697 128.17-74.126-89.46-48.57ZM1905.38 20.477l-79.81 46.031 89.46 48.571-9.65-94.602Z" fill="#fff"/>
        <path d="m1866.66 1009.99-50.75 63.89 101.58 30.71-50.83-94.6Z" fill="#F8FEFE"/>
        <path d="m1815.91 1073.88 55.58 66.51 46-35.8-101.58-30.71Z" fill="#C9F6F9"/>
        <path d="m1859.46 519.043-48.37 115.079 120.89-5.16-72.52-109.919Z" fill="#fff"/>
        <path d="m1811.09 634.122 7.2 51.11 113.69-56.27-120.89 5.16ZM1818.29 685.232l53.2 51.11 60.49-107.38-113.69 56.27ZM1905.38 20.477l9.65 94.602 24.15-99.763-33.8 5.16Z" fill="#fff"/>
        <path d="m1726.45 5.078 178.93 15.399 33.8-5.16-212.73-10.239ZM1794.14 273.568l89.46 74.126 60.41-53.649-149.87-20.477Z" fill="#fff"/>
        <path d="m1786.86 189.205 7.28 84.364 149.87 20.476-157.15-104.84ZM1915.03 115.079l-128.17 74.126 157.15 104.84-28.98-178.966Z" fill="#fff"/>
        <path d="m1844.89 1513.64 38.71 81.82 60.41-79.28-99.12-2.54Z" fill="#FEFEFE"/>
        <path d="m1910.21 1413.96-65.32 99.68 99.12 2.54-33.8-102.22ZM1859.46 519.043l72.52 109.919 14.48-86.903-87-23.016ZM1944.01 1516.18l-60.41 79.28 70.15-46.03-9.74-33.25Z" fill="#fff"/>
        <path d="m1871.49 1140.39 19.4 135.47 65.23-56.27-84.63-79.2Z" fill="#E3F8FB"/>
        <path d="m1917.49 1104.59-46 35.8 84.63 79.2-38.63-115Z" fill="#7EE5EC"/>
        <path d="m1859.46 889.753 7.2 120.237 94.29-107.46-101.49-12.777Z" fill="#3DE5E8"/>
        <path d="m1902.92 828.404-43.46 61.348 101.49 12.778-58.03-74.126Z" fill="#FDFDFD"/>
        <path d="m1871.49 736.341 31.43 92.064 62.86-102.302-94.29 10.238Z" fill="#FFFEFF"/>
        <path d="m1931.98 628.962-60.49 107.38 94.29-10.239-33.8-97.141ZM1890.89 1275.86l19.32 138.1 65.31-7.7-84.63-130.4ZM1910.21 1413.96l33.8 102.22 31.51-109.92-65.31 7.7ZM1859.46 426.979v92.064l118.43-53.731-118.43-38.333Z" fill="#fff"/>
        <path d="m1859.46 519.043 87 23.016 31.43-76.747-118.43 53.731ZM1883.6 347.694l-24.14 79.286 125.72-63.888-101.58-15.398Z" fill="#fff"/>
        <path d="m1859.46 426.98 118.43 38.332 7.29-102.22-125.72 63.888ZM1944.01 294.045l-60.41 53.649 101.58 15.398-41.17-69.047ZM1915.03 115.079l28.98 178.966 46-117.618-74.98-61.348Z" fill="#fff"/>
        <path d="m1980.35 148.333-65.32-33.254 74.98 61.348-9.66-28.094Z" fill="#fff"/>
        <path d="m1956.12 1219.59-65.23 56.27 99.12-33.25-33.89-23.02Z" fill="#9BEAEF"/>
        <path d="m1917.49 1104.59 38.63 115 48.38-109.92-87.01-5.08Z" fill="#77F9F9"/>
        <path d="m1956.12 1219.59 33.89 23.02 14.49-132.94-48.38 109.92Z" fill="#fff"/>
        <path d="m1939.18 15.316-24.15 99.763 99.12-53.731-74.97-46.032Z" fill="#FEFEFE"/>
        <path d="m1915.03 115.079 65.32 33.254 33.8-86.985-99.12 53.731ZM1890.89 1275.86l84.63 130.4 38.63-99.68-123.26-30.72Z" fill="#fff"/>
        <path d="m1990.01 1242.61-99.12 33.25 123.26 30.72-24.14-63.97Z" fill="#FCFEFD"/>
        <path d="m1902.92 828.404 58.03 74.126 58.03-68.966-116.06-5.16Z" fill="#6EEDF3"/>
        <path d="m1965.78 726.103-62.86 102.302 116.06 5.16-53.2-107.462ZM1953.75 1549.43l-70.15 46.03 137.84-5.08-67.69-40.95ZM1946.46 542.059l-14.48 86.903 91.83 23.015-77.35-109.918Z" fill="#fff"/>
        <path d="m1931.98 628.962 33.8 97.141 58.03-74.125-91.83-23.016Z" fill="#FEFFFF"/>
        <path d="m1960.95 902.53-94.29 107.46 166.81 20.4-72.52-127.86Z" fill="#92EAEE"/>
        <path d="m1866.66 1009.99 50.83 94.6 115.98-74.2-166.81-20.4Z" fill="#64EFF4"/>
        <path d="m1917.49 1104.59 87.01 5.08 28.97-79.28-115.98 74.2Z" fill="#8AFAFC"/>
        <path d="m1985.18 363.092-7.28 102.22 60.48-12.778-53.2-89.442ZM1975.52 1406.26l-31.51 109.92 99.2-74.13-67.69-35.79Z" fill="#fff"/>
        <path d="m2014.15 1306.58-38.63 99.68 67.69 35.79-29.06-135.47Z" fill="#FEFEFE"/>
        <path d="m1944.01 294.045 41.17 69.048 72.52-104.841-113.69 35.793ZM1990.01 176.427l-46 117.618 113.69-35.793-67.69-81.825Z" fill="#fff"/>
        <path d="m1990.01 176.427 67.69 81.825 2.37-120.157-70.06 38.332Z" fill="#fff"/>
        <path d="m1980.35 148.333 9.66 28.094 70.06-38.332-79.72 10.238Z" fill="#fff"/>
        <path d="m2014.15 61.348-33.8 86.985 79.72-10.238-45.92-76.747Z" fill="#fff"/>
        <path d="m2018.98 833.564-58.03 68.966 99.12-7.617-41.09-61.349Z" fill="#D0F8F8"/>
        <path d="m1960.95 902.53 72.52 127.86 26.6-135.477-99.12 7.617Z" fill="#B8F2F3"/>
        <path d="m1953.75 1549.43 67.69 40.95 41.09-97.22-108.78 56.27Z" fill="#fff"/>
        <path d="m1944.01 1516.17 9.74 33.26 108.78-56.27-118.52 23.01Z" fill="#FEFEFE"/>
        <path d="m2043.21 1442.05-99.2 74.13 118.52-23.02-19.32-51.11ZM1985.18 363.092l53.2 89.442 26.6-35.793-79.8-53.649ZM2014.15 61.348l45.92 76.747 16.94-86.985-62.86 10.238Z" fill="#fff"/>
        <path d="m1939.18 15.316 74.97 46.032 62.86-10.238-137.83-35.794ZM1946.46 542.059l77.35 109.918 53.2-74.125-130.55-35.793ZM1977.89 465.312l-31.43 76.747 130.55 35.793-99.12-112.54ZM2038.38 452.535l-60.48 12.777 99.11 112.54-38.63-125.317Z" fill="#fff"/>
        <path d="m2018.98 833.564 41.09 61.349 19.4-46.032-60.49-15.317Z" fill="#61EFF3"/>
        <path d="m2033.47 1030.39-28.97 79.28 74.97-53.73-46-25.55Z" fill="#8DF5F6"/>
        <path d="m1990.01 1242.61 24.14 63.97 72.52-122.78-96.66 58.81Z" fill="#F1F9FB"/>
        <path d="m2004.5 1109.67-14.49 132.94 96.66-58.81-82.17-74.13Z" fill="#7DF7F8"/>
        <path d="m2079.47 1055.94-74.97 53.73 82.17 74.13-7.2-127.86Z" fill="#54D9E0"/>
        <path d="m2057.7 258.252-72.52 104.841 111.23-30.715-38.71-74.126Z" fill="#fff"/>
        <path d="m1985.18 363.092 79.8 53.649 31.43-84.364-111.23 30.715ZM2062.53 1493.16l-41.09 97.22 77.35-25.55-36.26-71.67Z" fill="#fff"/>
        <path d="m2098.79 1564.83-77.35 25.55 82.18-5.16-4.83-20.39Z" fill="#fff"/>
        <path d="m2098.79 1564.83 4.83 20.39 2.45-33.25-7.28 12.86Z" fill="#fff"/>
        <path d="m2062.53 1493.16 36.26 71.67 7.28-12.86-43.54-58.81Z" fill="#FEFEFE"/>
        <path d="m2018.98 833.565 60.49 15.316 31.43-122.778-91.92 107.462Z" fill="#8EE3E8"/>
        <path d="m2077.01 577.852-53.2 74.126 87.09 74.125-33.89-148.251ZM1965.78 726.103l53.2 107.462 91.92-107.462h-145.12Z" fill="#fff"/>
        <path d="m2023.81 651.978-58.03 74.125h145.12l-87.09-74.125Z" fill="#fff"/>
        <path d="m2079.47 848.881-19.4 46.032 50.83 56.27-31.43-102.302Z" fill="#F6FBFF"/>
        <path d="m2060.07 894.913-26.6 135.477 77.43-79.207-50.83-56.27Z" fill="#31EEF2"/>
        <path d="m2033.47 1030.39 46 25.55 31.43-104.757-77.43 79.207Z" fill="#7BE1E5"/>
        <path d="m2077.01 51.11-16.94 86.985 53.2-63.97-36.26-23.015Z" fill="#fff"/>
        <path d="m2014.15 1306.58 29.06 135.47 79.8-115.08-108.86-20.39Z" fill="#FDFDFD"/>
        <path d="m2086.67 1183.8-72.52 122.78 108.86 20.39-36.34-143.17Z" fill="#5DF2F6"/>
        <path d="m2064.98 416.741-26.6 35.793 89.46 53.731-62.86-89.524ZM2038.38 452.535l38.63 125.317 50.83-71.587-89.46-53.73Z" fill="#fff"/>
        <path d="m2110.9 726.103-31.43 122.778 58.03-58.809-26.6-63.969Z" fill="#ADF9F9"/>
        <path d="m2137.5 790.072-58.03 58.809 62.86-38.332-4.83-20.477Z" fill="#FBFCFE"/>
        <path d="m2062.53 1493.16 43.54 58.81 41.09-135.48-84.63 76.67Z" fill="#fff"/>
        <path d="m2043.21 1442.05 19.32 51.11 84.63-76.67-103.95 25.56Z" fill="#FDFDFD"/>
        <path d="m2123.01 1326.97-79.8 115.08 103.95-25.56-24.15-89.52Z" fill="#FEFFFF"/>
        <path d="m2096.41 332.377-31.43 84.364 101.5-84.364h-70.07Z" fill="#fff"/>
        <path d="m2079.47 848.881 31.43 102.302h55.58l-87.01-102.302Z" fill="#E0F5F6"/>
        <path d="m2142.33 810.549-62.86 38.332 87.01 102.302-24.15-140.634Z" fill="#FEFFFF"/>
        <path d="m2064.98 416.741 62.86 89.524 45.92-51.11-108.78-38.414Z" fill="#fff"/>
        <path d="m2166.48 332.377-101.5 84.364 108.78 38.415-7.28-122.779ZM2113.27 74.126l-53.2 63.969 116.06-7.7-62.86-56.27Z" fill="#FEFEFE"/>
        <path d="m2110.9 951.183-31.43 104.757 99.12-35.79-67.69-68.967Z" fill="#58E7ED"/>
        <path d="M2166.48 951.183h-55.58l67.69 68.967-12.11-68.967Z" fill="#4FE6ED"/>
        <path d="m2123.01 1326.97 24.15 89.52 33.89-112.53-58.04 23.01Z" fill="#46DFE7"/>
        <path d="m2086.67 1183.8 36.34 143.17 58.04-23.02-94.38-120.15Z" fill="#4AD9E9"/>
        <path d="m2113.27 74.125 62.86 56.27 7.29-104.84-70.15 48.57Z" fill="#fff"/>
        <path d="m2077.01 51.11 36.26 23.015 70.15-48.57-106.41 25.555ZM1939.18 15.316l137.83 35.794 106.41-25.555-244.24-10.239ZM2077.01 577.852l33.89 148.251 72.52-97.141-106.41-51.11Z" fill="#fff"/>
        <path d="m2127.84 506.266-50.83 71.586 106.41 51.11-55.58-122.696ZM2060.07 138.095l-2.37 120.157 128.17-35.793-125.8-84.364Z" fill="#FEFEFE"/>
        <path d="m2176.13 130.396-116.06 7.699 125.8 84.364-9.74-92.063Z" fill="#fff"/>
        <path d="m2057.7 258.252 38.71 74.125 89.46-109.919-128.17 35.794ZM2096.41 332.377h70.07l19.39-109.919-89.46 109.919ZM2181.05 1303.96l-33.89 112.53h48.37l-14.48-112.53ZM2185.88 222.458l-19.4 109.919 31.43-86.903-12.03-23.016ZM2197.91 245.475l-31.43 86.903 33.88 2.539-2.45-89.442Z" fill="#fff"/>
        <path d="m2086.67 1183.8 94.38 120.15 21.69-143.17-116.07 23.02Z" fill="#BEEEF2"/>
        <path d="m2079.47 1055.94 7.2 127.86 116.07-23.02-123.27-104.84Z" fill="#85E2E9"/>
        <path d="m2178.59 1020.15-99.12 35.79 123.27 104.84-24.15-140.63Z" fill="#56DFE7"/>
        <path d="m2166.48 951.183 12.11 68.967 28.98-63.889-41.09-5.078Z" fill="#D6F0F1"/>
        <path d="m2147.16 1416.49-41.09 135.48 103.95-51.11-62.86-84.37ZM2195.53 1416.49h-48.37l62.86 84.37-14.49-84.37ZM2166.48 332.377l7.28 122.779 38.72-43.493-46-79.286ZM2200.36 334.917l-33.88-2.54 46 79.286-12.12-76.746Z" fill="#fff"/>
        <path d="m2137.5 790.072 4.83 20.477 77.35-38.414-82.18 17.937Z" fill="#FEFEFE"/>
        <path d="m2110.9 726.103 26.6 63.969 82.18-17.937-108.78-46.032Z" fill="#FDFDFF"/>
        <path d="m2183.42 628.962-72.52 97.141 108.78 46.032-36.26-143.173Z" fill="#FDFEFF"/>
        <path d="m2219.68 772.135-77.35 38.414 91.84 20.395-14.49-58.809Z" fill="#E7F9FB"/>
        <path d="m2142.33 810.549 24.15 140.634 67.69-120.239-91.84-20.395Z" fill="#FEFFFF"/>
        <path d="m2181.05 1303.96 14.48 112.53 43.55-86.9-58.03-25.63Z" fill="#F7FBFA"/>
        <path d="m2106.07 1551.97-2.45 33.25 142.66-17.85-140.21-15.4ZM2210.02 1500.86l-103.95 51.11 140.21 15.4-36.26-66.51Z" fill="#fff"/>
        <path d="m2166.48 951.183 41.09 5.078 41.17-69.048-82.26 63.97Z" fill="#68EAEC"/>
        <path d="m2234.17 830.943-67.69 120.239 82.26-63.969-14.57-56.27Z" fill="#E0F8FA"/>
        <path d="m2210.02 1500.86 36.26 66.51 4.83-33.26-41.09-33.25ZM1939.18 15.316l244.24 10.239 67.69-23.016-311.93 12.777Z" fill="#fff"/>
        <path d="m1726.45 5.078 212.73 10.238L2251.11 2.54l-524.66 2.54ZM2197.91 245.475l2.45 89.442 65.24-81.825-67.69-7.617ZM2185.88 222.458l12.03 23.016 67.69 7.618-79.72-30.634Z" fill="#fff"/>
        <path d="m2212.48 411.663-38.72 43.493 91.84 56.188-53.12-99.681Z" fill="#FEFEFE"/>
        <path d="m2173.76 455.156-45.92 51.11 137.76 5.078-91.84-56.188Z" fill="#fff"/>
        <path d="m2127.84 506.266 55.58 122.696 82.18-117.618-137.76-5.078Z" fill="#FDFDFD"/>
        <path d="m2183.42 25.555-7.29 104.84 101.58-51.11-94.29-53.73Z" fill="#fff"/>
        <path d="m2251.11 2.54-67.69 23.015 94.29 53.73-26.6-76.746Z" fill="#FEFEFE"/>
        <path d="m2210.02 1500.86 41.09 33.25 26.6-30.71-67.69-2.54Z" fill="#fff"/>
        <path d="m2178.59 1020.15 24.15 140.63 77.43-38.33-101.58-102.3Z" fill="#37DFE8"/>
        <path d="m2248.74 887.213-41.18 69.048 72.61-23.016-31.43-46.032Z" fill="#BAEBEF"/>
        <path d="m2277.71 79.286-101.58 51.109 111.24-15.316-9.66-35.793ZM2185.88 222.459l79.72 30.633 21.77-58.809-101.49 28.176ZM2176.13 130.396l9.74 92.063 101.5-28.176-111.24-63.887Z" fill="#fff"/>
        <path d="m2287.37 115.079-111.24 15.317 111.24 63.887v-79.204Z" fill="#FEFEFE"/>
        <path d="m2183.42 628.962 36.26 143.173 72.52-122.696-108.78-20.477Z" fill="#fff"/>
        <path d="m2265.6 511.344-82.18 117.618 108.78 20.477-26.6-138.095Z" fill="#FEFEFE"/>
        <path d="m2195.53 1416.49 14.49 84.37 82.18-40.87-96.67-43.5Z" fill="#fff"/>
        <path d="m2210.02 1500.86 67.69 2.54 14.49-43.41-82.18 40.87Z" fill="#FEFEFE"/>
        <path d="m2239.08 1329.59-43.55 86.9 96.67 43.5-53.12-130.4Z" fill="#EBFBFB"/>
        <path d="m2200.36 334.917 12.12 76.746 82.17-81.825-94.29 5.079Z" fill="#fff"/>
        <path d="m2265.6 253.092-65.24 81.825 94.29-5.079-29.05-76.746ZM2292.2 649.438l-72.52 122.697 74.97 10.238-2.45-132.935Z" fill="#fff"/>
        <path d="m2294.65 782.373-14.48 150.872 14.48-150.872Z" fill="#FDFEFF"/>
        <path d="m2292.2 649.438 2.45 132.935-2.45-132.935Z" fill="#fff"/>
        <path d="m2219.68 772.135 14.49 58.809 60.48-48.571-74.97-10.238Z" fill="#FDFFFE"/>
        <path d="m2294.65 782.373-74.97-10.238 74.97 10.238Z" fill="#fff"/>
        <path d="m2178.59 1020.15 101.58 102.3 16.94-109.92-118.52 7.62Z" fill="#3FE5F1"/>
        <path d="m2207.56 956.261-28.97 63.889 118.52-7.62-89.55-56.269Z" fill="#47DEE7"/>
        <path d="m2280.17 933.245-72.61 23.016 89.55 56.269-16.94-79.285Z" fill="#84DBE4"/>
        <path d="m2280.17 1122.45-77.43 38.33 116.06 56.27-38.63-94.6Z" fill="#2BECF5"/>
        <path d="m2202.74 1160.78-21.69 143.17 137.75-86.9-116.06-56.27ZM2181.05 1303.95l58.03 25.64 79.72-112.54-137.75 86.9ZM2292.2 1459.99l-14.49 43.41 41.09 33.25-26.6-76.66Z" fill="#fff"/>
        <path d="m2251.11 1534.11-4.83 33.26 72.52-30.72-67.69-2.54Z" fill="#fff"/>
        <path d="m2277.71 1503.4-26.6 30.71 67.69 2.54-41.09-33.25Z" fill="#FEFFFF"/>
        <path d="m2294.65 782.373-14.48 150.872 43.46-92.063-28.98-58.809Z" fill="#fff"/>
        <path d="m2294.65 782.373 28.98 58.809-28.98-58.809Z" fill="#F9FDFE"/>
        <path d="m2294.65 782.373-60.48 48.571 89.46 10.238-28.98-58.809Z" fill="#EAFAF9"/>
        <path d="m2248.74 887.214 31.43 46.031 43.46-92.063-74.89 46.032Z" fill="#EAF8F9"/>
        <path d="m2280.17 933.245 14.48-150.872 28.98 58.809-43.46 92.063Z" fill="#fff"/>
        <path d="m2234.17 830.943 14.57 56.27 74.89-46.031-89.46-10.239Z" fill="#FEFFFF"/>
        <path d="m2277.71 79.286 9.66 35.793 48.37-56.27-58.03 20.477Z" fill="#fff"/>
        <path d="m2251.11 2.54 26.6 76.746 58.03-20.477-84.63-56.27Z" fill="#fff"/>
        <path d="m2318.8 1217.05-79.72 112.54 96.66-23.01-16.94-89.53Z" fill="#FAFEFD"/>
        <path d="M2287.37 115.079v79.204l60.48-56.188-60.48-23.016Z" fill="#fff"/>
        <path d="m2335.74 58.81-48.37 56.269 60.48 23.016-12.11-79.286Z" fill="#fff"/>
        <path d="m2287.37 194.283-21.77 58.809 87.08 15.398-65.31-74.207Z" fill="#FEFEFE"/>
        <path d="m2265.6 253.092 29.05 76.746 58.03-61.348-87.08-15.398Z" fill="#fff"/>
        <path d="m2280.17 933.245 16.94 79.285 62.86-102.301-79.8 23.016Z" fill="#3CE4F1"/>
        <path d="m2323.63 841.182-43.46 92.063 79.8-23.015-36.34-69.048Z" fill="#fff"/>
        <path d="m2297.11 1012.53-16.94 109.92 79.8 20.48-62.86-130.4Z" fill="#80EBF1"/>
        <path d="m2280.17 1122.45 38.63 94.6 41.17-74.12-79.8-20.48Z" fill="#FEFEFE"/>
        <path d="m2239.08 1329.59 53.12 130.4 67.77-92.07-120.89-38.33ZM2335.74 1306.58l-96.66 23.01 120.89 38.33-24.23-61.34ZM2352.68 268.49l-58.03 61.348 67.69 33.254-9.66-94.602Z" fill="#fff"/>
        <path d="m2212.48 411.663 53.12 99.68 96.74-148.251-149.86 48.571Z" fill="#fff"/>
        <path d="m2294.65 329.838-82.17 81.825 149.86-48.571-67.69-33.254Z" fill="#fff"/>
        <path d="m2323.63 841.182 36.34 69.048 2.37-33.255-38.71-35.793Z" fill="#FFFEFF"/>
        <path d="m2265.6 511.344 26.6 138.095 72.6-112.54-99.2-25.555Z" fill="#FDFDFD"/>
        <path d="m2292.2 649.438 48.37-7.699 24.23-104.841-72.6 112.54ZM2318.8 1536.65l-72.52 30.72 123.35-12.78-50.83-17.94Z" fill="#fff"/>
        <path d="m2359.97 1367.92-67.77 92.07 89.46 7.61-21.69-99.68Z" fill="#ECFAFD"/>
        <path d="m2292.2 1459.99 26.6 76.66 62.86-69.05-89.46-7.61Z" fill="#FEFEFE"/>
        <path d="m2318.8 1536.65 50.83 17.94 12.03-86.99-62.86 69.05Z" fill="#fff"/>
        <path d="m2323.63 841.182 38.71 35.793 24.23-148.251-62.94 112.458Z" fill="#FEFFFF"/>
        <path d="m2294.65 782.373 28.98 58.809 62.94-112.458-91.92 53.649Z" fill="#F7FDFB"/>
        <path d="m2292.2 649.438 2.45 132.935 91.92-53.649-94.37-79.286Z" fill="#FFFFFD"/>
        <path d="m2340.57 641.739-48.37 7.7 94.37 79.285-46-86.985Z" fill="#DCF2F0"/>
        <path d="m2347.85 138.095-60.48 56.188 108.86 33.254-48.38-89.442Z" fill="#fff"/>
        <path d="m2287.37 194.283 65.31 74.207 43.55-40.953-108.86-33.254Z" fill="#FEFEFE"/>
        <path d="m2359.97 910.229-62.86 102.301 103.95-56.269-41.09-46.032Z" fill="#BCEFF3"/>
        <path d="m2364.8 536.898-24.23 104.841 70.15-74.126-45.92-30.715ZM2359.97 1367.92l21.69 99.68 29.06-2.53-50.75-97.15Z" fill="#fff"/>
        <path d="m2381.66 1467.6-12.03 86.99 41.09-89.52-29.06 2.53ZM2335.74 1306.58l24.23 61.34 53.2-38.33-77.43-23.01Z" fill="#FFFEFF"/>
        <path d="m2297.11 1012.53 62.86 130.4 53.2-120.16-116.06-10.24Z" fill="#51DFE9"/>
        <path d="m2401.06 956.261-103.95 56.269 116.06 10.24-12.11-66.509Z" fill="#FEFFFF"/>
        <path d="m2359.97 1367.92 50.75 97.15 2.45-122.7-53.2 25.55Z" fill="#fff"/>
        <path d="m2413.17 1329.59-53.2 38.33 53.2-25.55v-12.78Z" fill="#F8FCFD"/>
        <path d="m2352.68 268.49 9.66 94.602 50.83-15.398-60.49-79.204Z" fill="#FEFEFE"/>
        <path d="m2347.85 138.095 48.38 89.442 16.94-10.238-65.32-79.204Z" fill="#fff"/>
        <path d="m2413.17 217.298-16.94 10.239 19.31 53.73-2.37-63.969Z" fill="#fff"/>
        <path d="m2396.23 227.537-43.55 40.953 62.86 12.777-19.31-53.73ZM2352.68 268.49l60.49 79.204 2.37-66.426-62.86-12.778Z" fill="#FEFEFE"/>
        <path d="m2401.06 956.261 12.11 66.509 2.37-92.064-14.48 25.555Z" fill="#D7EFF1"/>
        <path d="m2386.57 728.724-24.23 148.251 53.2 53.731-28.97-201.982Z" fill="#FFFEFF"/>
        <path d="m2362.34 876.975-2.37 33.254 55.57 20.477-53.2-53.731Z" fill="#FFFEFF"/>
        <path d="m2359.97 910.229 41.09 46.032 14.48-25.555-55.57-20.477Z" fill="#4EE3EA"/>
        <path d="m2415.54 930.706-2.37 92.064 2.37 94.6V930.706Z" fill="#D7F3F6"/>
        <path d="m2413.17 1022.77-53.2 120.16 55.57-25.56-2.37-94.6Z" fill="#37EAF1"/>
        <path d="m2415.54 1117.37-55.57 25.56 55.57 76.66v-102.22Z" fill="#6BDDE7"/>
        <path d="M2413.17 1329.59v12.78l2.37-122.78-2.37 110Z" fill="#47EAEF"/>
        <path d="m2359.97 1142.93-41.17 74.12 96.74 2.54-55.57-76.66Z" fill="#EAFAFA"/>
        <path d="m2318.8 1217.05 16.94 89.53 79.8-86.99-96.74-2.54Z" fill="#fff"/>
        <path d="m2335.74 1306.58 77.43 23.01 2.37-110-79.8 86.99Z" fill="#48E2EE"/>
        <path d="m2386.57 728.724 28.97 201.982V669.915l-28.97 58.809Z" fill="#FAFCF9"/>
        <path d="m2340.57 641.739 46 86.985 28.97-58.809-74.97-28.176Z" fill="#FBFDFC"/>
        <path d="m2410.72 567.613-70.15 74.126 74.97 28.176-4.82-102.302Z" fill="#E3F3F3"/>
        <path d="m2410.71 567.613 4.83 102.302V565.074l-4.83 2.539Z" fill="#fff"/>
        <path d="m2364.8 536.898 45.92 30.715 4.82-2.539-50.74-28.176Z" fill="#fff"/>
        <path d="m2364.8 536.899 50.74 28.176V455.156l-50.74 81.743ZM2415.54 281.268l-2.37 66.426 2.37 107.462V281.268Z" fill="#fff"/>
        <path d="m2413.17 347.694-50.83 15.398 53.2 92.063-2.37-107.461Z" fill="#FEFEFE"/>
        <path d="m2362.34 363.092-96.74 148.251 149.94-56.188-53.2-92.063Z" fill="#FEFEFE"/>
        <path d="m2265.6 511.344 99.2 25.555 50.74-81.743-149.94 56.188ZM2413.17 217.299l2.37 63.969L2418 0l-4.83 217.299ZM2335.74 58.809l12.11 79.286L2418 0l-82.26 58.809Z" fill="#fff"/>
        <path d="m2347.85 138.095 65.32 79.204L2418 0l-70.15 138.095ZM2251.11 2.54l84.63 56.269L2418 0l-166.89 2.54Z" fill="#fff"/>
        <path d="m2413.17 1342.37-2.45 122.7L2418 1598l-4.83-255.63Z" fill="#FCFDFF"/>
        <path d="m2410.72 1465.07-41.09 89.52L2418 1598l-7.28-132.93Z" fill="#FEFEFE"/>
        <path d="m2369.63 1554.59-123.35 12.78L2418 1598l-48.37-43.41Z" fill="#FFFFFD"/>
        <path d="m2246.28 1567.37-142.66 17.85L2418 1598l-171.72-30.63ZM2103.62 1585.22l-82.18 5.16L2418 1598l-314.38-12.78Z" fill="#fff"/>
    </g>
    <defs>
        <clipPath id="a">
            <path fill="#fff" d="M0 0h2418v1598H0z"/>
        </clipPath>
    </defs>
</svg>
