<svg width="22" height="22" viewBox="0 0 22 22" fill="none" xmlns="http://www.w3.org/2000/svg">
<path d="M18.1 21.8999C18 21.8999 17.9 21.8999 17.8 21.8999C14.7 21.5999 11.7 20.4999 9.1 18.7999C6.7 17.2999 4.6 15.1999 3.1 12.7999C1.4 10.1999 0.4 7.19995 0 4.09995C0 3.69995 2.23517e-08 3.29995 0.1 2.89995C0.2 2.49995 0.4 2.19995 0.7 1.89995C1 1.59995 1.3 1.39995 1.7 1.19995C2.2 1.09995 2.6 0.999946 3 0.999946H5.9C6.6 0.999946 7.3 1.19995 7.8 1.69995C8.3 2.19995 8.7 2.79995 8.8 3.49995C8.8 4.29995 9 5.19995 9.3 5.99995C9.5 6.49995 9.5 7.09995 9.4 7.59995C9.3 8.09995 9 8.59995 8.6 8.99995L8 9.69995C9.1 11.4999 10.6 12.9999 12.4 14.0999L13.1 13.3999C13.5 12.9999 14 12.6999 14.5 12.5999C15 12.4999 15.6 12.4999 16.1 12.6999C16.9 12.9999 17.7 13.1999 18.6 13.2999C19.3 13.3999 19.9 13.6999 20.4 14.2999C20.9 14.7999 21.1 15.4999 21.1 16.1999V18.9999C21.1 19.3999 21 19.7999 20.9 20.1999C20.7 20.5999 20.5 20.8999 20.2 21.1999C19.9 21.4999 19.6 21.6999 19.2 21.7999C18.7 21.8999 18.4 21.8999 18.1 21.8999ZM5.8 2.89995H3C2.8 2.89995 2.7 2.99995 2.6 2.99995C2.5 3.09995 2.4 3.09995 2.3 3.19995C2.2 3.29995 2.1 3.39995 2.1 3.59995C2 3.69995 2 3.79995 2 3.99995C2.3 6.79995 3.3 9.49995 4.8 11.7999C6.2 13.9999 8.1 15.8999 10.2 17.1999C12.5 18.6999 15.2 19.6999 18 19.9999C18.1 19.9999 18.2 19.9999 18.4 19.9999C18.5 19.9999 18.6 19.8999 18.7 19.7999C18.8 19.6999 18.9 19.5999 18.9 19.4999C19 19.3999 19 19.1999 19 19.0999V16.1999C19 15.9999 18.9 15.6999 18.8 15.5999C18.6 15.3999 18.4 15.2999 18.2 15.2999C17.2 15.1999 16.2 14.8999 15.3 14.5999C15.1 14.4999 14.9 14.4999 14.8 14.5999C14.6 14.5999 14.5 14.6999 14.3 14.8999L13.1 16.0999C12.8 16.3999 12.3 16.4999 12 16.2999C9.5 14.8999 7.4 12.7999 5.9 10.1999C5.7 9.79995 5.8 9.39995 6.1 9.09995L7.3 7.89995C7.4 7.79995 7.5 7.59995 7.6 7.39995C7.6 7.19995 7.6 6.99995 7.6 6.89995C7.2 5.69995 6.9 4.69995 6.8 3.69995C6.8 3.49995 6.7 3.29995 6.5 3.09995C6.3 2.99995 6.1 2.89995 5.8 2.89995ZM17.2 9.59995C17 9.59995 16.7 9.49995 16.5 9.29995L12.7 5.49995C12.4 5.19995 12.3 4.69995 12.5 4.39995C12.7 3.99995 13.1 3.79995 13.5 3.89995C14.5 4.09995 15.3 4.49995 16.1 5.09995L12.7 1.69995C12.4 1.39995 12.3 0.999946 12.5 0.599946C12.7 0.199946 13.1 -5.37131e-05 13.5 0.0999463C15.6 0.299946 17.7 1.29995 19.2 2.79995C20.7 4.29995 21.7 6.29995 21.9 8.49995C21.9 8.89995 21.7 9.29995 21.4 9.49995C21 9.69995 20.6 9.59995 20.3 9.29995L16.9 5.89995C17.5 6.59995 18 7.49995 18.1 8.49995C18.2 8.89995 18 9.29995 17.6 9.49995C17.5 9.49995 17.3 9.59995 17.2 9.59995Z" fill="white"/>
</svg>
