<svg width="220" height="180" viewBox="0 0 220 180" fill="none" xmlns="http://www.w3.org/2000/svg">
<path d="M185 112.568C185 111.419 184.122 110.541 182.973 110.541H175.541V74.8649H178.716C179.865 74.8649 180.743 73.9865 180.743 72.8378V49.1216C180.743 47.973 179.865 47.0946 178.716 47.0946H73.1081V43.1757C73.1081 38.6486 69.4595 35 64.9324 35H43.1757C38.6486 35 35 38.6486 35 43.1757V72.8378C35 73.9865 35.8784 74.8649 37.027 74.8649H40.2027V130.743H38.3784C37.2297 130.743 36.3514 131.622 36.3514 132.77V142.23C36.3514 143.378 37.2297 144.257 38.3784 144.257H178.784C179.932 144.257 180.811 143.378 180.811 142.23V132.77C180.811 131.622 179.932 130.743 178.784 130.743H175.541V123.378C180.878 122.635 185 118.041 185 112.568ZM174.122 119.392H173.851H173.784H173.716C173.649 119.392 173.649 119.392 173.581 119.392C173.514 119.392 173.514 119.392 173.446 119.392H162.5C162.432 119.392 162.432 119.392 162.365 119.392C162.297 119.392 162.297 119.392 162.23 119.392H109.662C110.743 118.041 111.554 116.351 111.892 114.595H180.676C179.797 117.365 177.162 119.392 174.122 119.392ZM55.4054 130.743V109.189H89.8649V112.568C89.8649 118.581 94.7297 123.446 100.743 123.446H101.149C101.216 123.446 101.284 123.446 101.351 123.446H160.27V130.743H55.4054ZM71.0811 74.8649H89.9324V93.5135H55.473V74.8649H71.0811ZM151.419 63.0405H153.784C158.784 63.0405 162.838 67.0946 162.838 72.0946V110.541H110C108.851 110.541 107.973 111.419 107.973 112.568C107.973 116.284 105 119.324 101.284 119.392H100.743H100.676C96.8919 119.392 93.8514 116.284 93.8514 112.568V107.23V107.162V107.095V95.6081V95.5405V95.473V72.9054V72.8378V72.7703V72.027C93.8514 68.5135 92.4324 65.3378 90.2027 62.973H151.419V63.0405ZM55.4054 97.5676H89.8649V105.135H55.4054V97.5676ZM171.486 110.541H166.892V74.8649H171.486V110.541ZM176.689 51.1486V70.8108H166.824C166.554 67.7703 165.203 65.0676 163.243 63.0405H168.041C169.189 63.0405 170.068 62.1622 170.068 61.0135C170.068 59.8649 169.189 58.9865 168.041 58.9865H153.784H151.419H80.8784H79.4595H78.5135C77.3649 58.9865 76.4865 59.8649 76.4865 61.0135C76.4865 62.1622 77.3649 63.0405 78.5135 63.0405H79.4595H80.8784C85.473 63.0405 89.1892 66.4189 89.7973 70.8108H73.1081V51.1486H176.689ZM39.0541 43.1757C39.0541 40.8784 40.8784 39.0541 43.1757 39.0541H64.8649C67.1622 39.0541 68.9865 40.8784 68.9865 43.1757V70.8108H53.4459H42.2297H39.0541V43.1757ZM44.2568 74.8649H51.4189V95.473V95.5405V95.6081V107.027V107.095V107.162V130.676H44.2568V74.8649ZM176.689 140.203H40.4054V134.797H176.757V140.203H176.689ZM164.324 130.743V123.446H171.486V130.743H164.324Z" fill="white"/>
</svg>
