<svg width="100" height="100" viewBox="0 0 100 100" fill="none" xmlns="http://www.w3.org/2000/svg">
<path d="M49.9993 0.00147139C36.738 0.00147139 24.0199 5.26924 14.6444 14.6459C5.269 24.0226 0 36.7404 0 50.0007C0 63.2611 5.26777 75.9801 14.6444 85.3556C24.0211 94.731 36.7389 100 49.9993 100C63.2596 100 75.9787 94.7322 85.3541 85.3556C94.7295 75.9789 99.9985 63.2611 99.9985 50.0007C99.9842 36.7443 94.7116 24.0361 85.3379 14.6606C75.9642 5.28519 63.2549 0.0144766 49.9978 0L49.9993 0.00147139ZM49.9993 95.709V95.7081C37.8777 95.7081 26.2515 90.8928 17.6796 82.3211C9.10775 73.7495 4.29268 62.1236 4.29268 50.0015C4.29268 37.8794 9.108 26.2537 17.6796 17.6819C26.2512 9.10998 37.8772 4.29491 49.9993 4.29491C62.1213 4.29491 73.747 9.11023 82.3189 17.6819C90.8908 26.2535 95.7058 37.8794 95.7058 50.0015C95.6924 62.1194 90.8724 73.7368 82.3037 82.3064C73.735 90.8761 62.1174 95.6951 49.9988 95.7086L49.9993 95.709ZM73.0215 36.5807C73.8161 37.4596 73.749 38.8158 72.871 39.6122L42.4284 67.2061C42.0326 67.5645 41.5189 67.7629 40.985 67.7629H40.8115C40.2211 67.714 39.6776 67.4227 39.3086 66.9597L26.8909 51.3444C26.5353 50.8997 26.3704 50.3313 26.4337 49.7658C26.497 49.1993 26.7826 48.6818 27.2283 48.3262C28.1541 47.5853 29.5056 47.7367 30.2465 48.6626L41.2372 62.4865L69.9868 36.4286C70.4095 36.0462 70.9663 35.8469 71.5347 35.8756C72.104 35.9034 72.6388 36.1564 73.0213 36.5791L73.0215 36.5807Z" fill="#38B5BC"/>
</svg>
