<svg width="220" height="180" viewBox="0 0 220 180" fill="none" xmlns="http://www.w3.org/2000/svg">
<g clip-path="url(#clip0_1_2024)">
<path d="M119.808 123.077H100.115C95.1923 123.077 91.1154 119.462 90.3846 114.731H36.8077C35.8077 114.731 35 113.923 35 112.923C35 111.923 35.8077 111.115 36.8077 111.115H92.0385C92.9615 111.115 93.8461 111.731 93.8461 113.192C93.8461 116.654 96.6538 119.462 100.115 119.462H119.808C123.269 119.462 126.077 116.654 126.077 113.192C126.077 111.769 126.885 111.115 127.885 111.115H183.077C184.077 111.115 184.885 111.923 184.885 112.923C184.885 113.923 184.077 114.731 183.077 114.731H129.538C128.808 119.462 124.731 123.077 119.808 123.077Z" fill="white"/>
<path d="M183.231 135.923H36.9229C35.9229 135.923 35.1152 135.193 35.1152 134.193C35.1152 133.193 35.9229 132.462 36.9229 132.462H183.231C184.231 132.462 185.038 133.193 185.038 134.193C185 135.193 184.192 135.923 183.231 135.923Z" fill="white"/>
<path d="M141.692 44H78.4231C77.4231 44 76.6154 44.7308 76.6154 45.7308C76.6154 46.7308 77.4231 47.4615 78.4231 47.4615H96.3462V56.5385C96.3462 57.5385 97.1539 58.2308 98.1154 58.2308H98.6539V70.1538H95.7308C94.7308 70.1538 94.0385 71.0769 94.0385 72.0385V81.3846C94.0385 81.7308 94.0769 82.0769 94.2692 82.3462L99 89.6923C99.3462 90.1923 99.8846 90.5 100.5 90.5H103.269V111.077C103.269 111.538 103.577 111.962 103.885 112.308L108.769 117.346C109.5 118.115 110.692 118.077 111.385 117.346L116.192 112.308C116.5 111.962 116.731 111.538 116.731 111.077V90.5385H119C119.577 90.5385 120.038 90.2692 120.385 89.8077L125.731 82.4615C125.962 82.1538 125.962 81.7692 125.962 81.3846V72.0385C125.962 71.0385 125.385 70.1538 124.385 70.1538H121.346V58.2308H123.192C124.192 58.2308 124.808 57.5385 124.808 56.5385V47.4615H141.692C142.692 47.4615 143.5 46.7308 143.5 45.7308C143.5 44.7308 142.692 44 141.692 44ZM112.885 110.385L110 113.538L107.154 110.423L112.885 106.577V110.385ZM112.885 102.269L107.115 106.115V102.577L112.885 98.7308V102.269ZM112.885 94.4231L107.115 98.2692V90.5385H112.885V94.4231ZM122.5 74V80.8077L118.077 87.0769H101.462L98.2692 82.0769H116.615C117.615 82.0769 118.423 81.3462 118.423 80.3462C118.423 79.3462 117.615 78.6154 116.615 78.6154H97.5H97.4615V74H122.5ZM102.115 58.2308H117.885V70.1538H102.115V58.2308ZM121.346 54.7692H99.8077V47.4615H121.346V54.7692Z" fill="white"/>
</g>
<defs>
<clipPath id="clip0_1_2024">
<rect width="150" height="91.9231" fill="white" transform="translate(35 44)"/>
</clipPath>
</defs>
</svg>
