<svg width="220" height="180" viewBox="0 0 220 180" fill="none" xmlns="http://www.w3.org/2000/svg">
<path d="M139.13 106.692C139.013 106.692 138.926 106.692 138.809 106.663L44.8643 92.7965C43.7865 92.6509 43 91.7187 43 90.6409V22.1848C43 20.9904 43.9904 20 45.1848 20H139.13C140.324 20 141.315 20.9904 141.315 22.1848V104.507C141.315 105.148 141.052 105.759 140.557 106.167C140.149 106.488 139.654 106.692 139.13 106.692ZM47.3695 88.7474L136.945 101.973V24.3695H47.3695V88.7474Z" fill="white"/>
<path d="M139.13 160C138.984 160 138.839 159.971 138.693 159.942L44.7478 140.25C43.7283 140.046 43 139.143 43 138.123V90.6409C43 90 43.2622 89.3883 43.7574 88.9804C44.2526 88.5726 44.8643 88.3687 45.5052 88.4852L139.45 102.351C140.528 102.497 141.315 103.429 141.315 104.507V157.815C141.315 158.485 141.023 159.097 140.499 159.505C140.12 159.825 139.625 160 139.13 160ZM47.3695 136.346L136.945 155.106V106.4L47.3695 93.1752V136.346Z" fill="white"/>
<path d="M139.13 160C138.664 160 138.169 159.854 137.79 159.534C137.265 159.126 136.945 158.485 136.945 157.815V104.507C136.945 103.429 137.732 102.526 138.78 102.351L173.591 96.8165C174.232 96.7291 174.873 96.9039 175.339 97.3117C175.834 97.7195 176.096 98.3313 176.096 98.9721V148.785C176.096 149.775 175.426 150.649 174.465 150.911L139.654 159.942C139.509 159.971 139.305 160 139.13 160ZM141.315 106.371V154.99L171.756 147.095V101.536L141.315 106.371Z" fill="white"/>
<path d="M139.13 106.692C138.605 106.692 138.11 106.517 137.702 106.167C137.207 105.759 136.945 105.148 136.945 104.507V22.1848C136.945 20.9904 137.936 20 139.13 20H173.94C175.135 20 176.125 20.9904 176.125 22.1848V98.9721C176.125 100.05 175.339 100.953 174.29 101.128L139.479 106.663C139.363 106.692 139.246 106.692 139.13 106.692ZM141.315 24.3695V101.943L171.756 97.1078V24.3695H141.315Z" fill="white"/>
<path d="M45.1848 92.8256C44.1652 92.8256 43.2622 92.1265 43.0583 91.0778C42.8252 89.8835 43.5826 88.7474 44.7478 88.4852L66.8868 83.8826V22.1848C66.8868 20.9904 67.8772 20 69.0716 20C70.2659 20 71.2563 20.9904 71.2563 22.1848V85.6887C71.2563 86.7374 70.5281 87.6113 69.5085 87.8152L45.6217 92.7674C45.4761 92.8256 45.3304 92.8256 45.1848 92.8256Z" fill="white"/>
<path d="M173.94 101.273C173.853 101.273 173.766 101.273 173.649 101.244L127.915 95.4182C126.72 95.2726 125.876 94.1656 126.021 92.9713C126.167 91.7769 127.274 90.9322 128.468 91.0778L174.203 96.9039C175.397 97.0495 176.242 98.1565 176.096 99.3508C175.98 100.458 175.018 101.273 173.94 101.273Z" fill="white"/>
<path d="M86.9867 90.1748C86.8993 90.1748 86.8119 90.1748 86.6954 90.1456L68.7803 87.8444C67.5859 87.6987 66.7412 86.5918 66.8868 85.3974C67.0325 84.2031 68.1394 83.3583 69.3337 83.504L87.2489 85.8052C88.4432 85.9509 89.288 87.0578 89.1423 88.2522C89.0258 89.3591 88.0645 90.1748 86.9867 90.1748Z" fill="white"/>
<path d="M107.669 64.4819C102.688 64.4819 98.6388 60.4328 98.6388 55.4515V52.3928C98.6388 47.4116 102.688 43.3625 107.669 43.3625C112.65 43.3625 116.7 47.4116 116.7 52.3928V55.4515C116.7 60.4328 112.65 64.4819 107.669 64.4819ZM107.669 47.732C105.106 47.732 103.008 49.8294 103.008 52.3928V55.4515C103.008 58.015 105.106 60.1124 107.669 60.1124C110.233 60.1124 112.33 58.015 112.33 55.4515V52.3928C112.33 49.8294 110.233 47.732 107.669 47.732Z" fill="white"/>
<path d="M102.222 95.593C100.794 95.593 99.3962 95.0687 98.3184 94.1074C97.0658 93.0004 96.3666 91.3691 96.3666 89.7087C96.3958 86.8248 98.5514 84.3487 101.406 83.9409C101.494 83.9409 101.552 83.9118 101.639 83.9118L112.913 83.5622V78.9888C112.913 77.7944 113.903 76.804 115.097 76.804C116.292 76.804 117.282 77.7944 117.282 78.9888V85.6887C117.282 86.8831 116.35 87.8444 115.156 87.8735L101.901 88.2813C101.231 88.427 100.707 89.0387 100.707 89.7378C100.707 90.3204 101.027 90.6991 101.202 90.8448C101.377 91.0196 101.785 91.2817 102.367 91.2235C102.426 91.2235 102.484 91.2235 102.571 91.2235L115.214 90.8739C118.069 90.7283 120.312 88.3687 120.312 85.5139V77.4157C120.312 71.4732 115.476 66.6667 109.563 66.6667H106.912C100.969 66.6667 96.1627 71.5023 96.1627 77.4157V85.1644C96.1627 86.3587 95.1723 87.3491 93.9779 87.3491C92.7836 87.3491 91.7932 86.3587 91.7932 85.1644V77.4157C91.7932 69.0845 98.5805 62.2971 106.912 62.2971H109.563C117.894 62.2971 124.681 69.0845 124.681 77.4157V85.5139C124.681 90.7283 120.603 95.0104 115.389 95.2434H115.36L102.775 95.593C102.601 95.593 102.426 95.593 102.222 95.593Z" fill="white"/>
<path d="M101.115 87.8735C99.9205 87.8735 98.9301 86.8831 98.9301 85.6887V78.9888C98.9301 77.7944 99.9205 76.804 101.115 76.804C102.309 76.804 103.3 77.7944 103.3 78.9888V85.6887C103.3 86.8831 102.309 87.8735 101.115 87.8735Z" fill="white"/>
</svg>
