<svg width="100" height="100" viewBox="0 0 100 100" fill="none" xmlns="http://www.w3.org/2000/svg">
<path d="M49.9993 0.00147139C36.738 0.00147139 24.0199 5.26924 14.6444 14.6459C5.269 24.0226 0 36.7404 0 50.0007C0 63.2611 5.26777 75.9801 14.6444 85.3556C24.0211 94.731 36.7389 100 49.9993 100C63.2596 100 75.9787 94.7322 85.3541 85.3556C94.7295 75.9789 99.9985 63.2611 99.9985 50.0007C99.9842 36.7443 94.7116 24.0361 85.3379 14.6606C75.9642 5.28519 63.2549 0.0144766 49.9978 0L49.9993 0.00147139ZM49.9993 95.709C37.8777 95.709 26.2515 90.8928 17.6796 82.3211C9.10775 73.7495 4.29268 62.1236 4.29268 50.0015C4.29268 37.8794 9.108 26.2537 17.6796 17.6819C26.2512 9.10998 37.8772 4.29491 49.9993 4.29491C62.1213 4.29491 73.747 9.11023 82.3189 17.6819C90.8908 26.2535 95.7058 37.8794 95.7058 50.0015C95.6924 62.1194 90.8724 73.7367 82.3037 82.3064C73.735 90.8761 62.1179 95.6955 49.9993 95.709Z" fill="#38B5BC"/>
<path fill-rule="evenodd" clip-rule="evenodd" d="M64.213 67.2122L34.2139 37.2131L36.2138 35.2131L66.213 65.2123L64.213 67.2122Z" fill="#38B5BC"/>
<path fill-rule="evenodd" clip-rule="evenodd" d="M66.213 37.215L36.2138 67.2142L34.2139 65.2142L64.213 35.2151L66.213 37.215Z" fill="#38B5BC"/>
</svg>
