<svg width="25" height="25" viewBox="0 0 25 25" fill="none" xmlns="http://www.w3.org/2000/svg">
<path d="M10.0191 20H13.0334V23H10.0191V20ZM12.0286 3C17.4041 3.22 19.7452 8.62 16.5501 12.67C15.7161 13.67 14.3697 14.33 13.7066 15.17C13.0334 16 13.0334 17 13.0334 18H10.0191C10.0191 16.33 10.0191 14.92 10.6923 13.92C11.3554 12.92 12.7018 12.33 13.5358 11.67C15.9673 9.43 15.3644 6.26 12.0286 6C11.2292 6 10.4625 6.31607 9.89718 6.87868C9.33188 7.44129 9.01431 8.20435 9.01431 9H6C6 7.4087 6.63516 5.88258 7.76574 4.75736C8.89632 3.63214 10.4297 3 12.0286 3Z" fill="white"/>
</svg>
