<svg width="220" height="180" viewBox="0 0 220 180" fill="none" xmlns="http://www.w3.org/2000/svg">
<path d="M158.334 72.827C159.236 71.9257 159.183 70.5465 158.334 69.7433C157.547 68.9336 156.059 68.9336 155.249 69.7433C154.517 70.4371 154.305 71.6469 155.249 72.827C156.151 73.7283 157.531 73.6746 158.334 72.827Z" fill="white"/>
<path d="M147.944 72.827C148.875 71.8942 148.709 70.4675 147.944 69.7433C147.029 68.8273 145.663 68.9389 144.859 69.7433C143.89 70.6614 144.098 72.1417 144.859 72.827C145.604 73.6125 147.036 73.7335 147.944 72.827Z" fill="white"/>
<path d="M42.1874 160H177.038C178.247 160 179.226 159.022 179.226 157.812C179.226 156.603 178.248 155.624 177.038 155.624H166.909V148.508C166.909 147.299 165.931 146.32 164.721 146.32H156.661V95.9036H164.241C168.366 95.9036 171.723 92.5471 171.723 88.4219V66.8316C171.723 62.7053 168.366 59.3488 164.241 59.3488L135.748 59.3519V48.4274H151.443C152.652 48.4274 153.631 47.4482 153.631 46.2395L153.63 22.1879C153.63 20.9802 152.652 20 151.442 20L115.68 20.0011C114.472 20.0011 113.493 20.9802 113.493 22.1889V46.2395C113.493 47.4472 114.471 48.4274 115.68 48.4274H131.374V59.3519H54.9738C50.8486 59.3519 47.4921 62.7084 47.4921 66.8347V88.425C47.4921 92.5502 50.8486 95.9068 54.9738 95.9068H62.5661V146.323L54.5054 146.322C53.2967 146.322 52.3175 147.3 52.3175 148.51V155.626L42.1879 155.625C40.9792 155.625 40 156.603 40 157.813C40 159.022 40.9792 160 42.1879 160L42.1874 160ZM117.867 24.3754H149.255V44.0515H117.867V24.3754ZM162.535 155.625H146.414V150.697H162.535V155.625ZM152.287 116.422H140.599V95.9032H152.287V116.422ZM83.9438 87.2741H136.223V93.685C136.223 93.6966 136.216 93.706 136.216 93.7166C136.216 93.7281 136.223 93.7376 136.223 93.7481V143.593H83.9438V87.2741ZM51.8664 88.4228V66.8325C51.8664 65.1195 53.2594 63.7256 54.9723 63.7256H164.239C165.952 63.7256 167.345 65.1196 167.345 66.8325V88.4228C167.345 90.1358 165.952 91.5286 164.239 91.5286H140.597V87.2729H151.44C152.649 87.2729 153.628 86.2948 153.628 85.0851C153.628 83.8764 152.65 82.8972 151.44 82.8972C151.665 82.8972 133.767 82.8877 68.7253 82.8972C67.5166 82.8972 66.5374 83.8753 66.5374 85.0851C66.5374 86.2938 67.5155 87.2729 68.7253 87.2729H79.5668V91.5286H54.9717C53.2587 91.5286 51.8659 90.1357 51.8659 88.4228H51.8664ZM79.5665 95.9045V116.423H66.9393V95.9045H79.5665ZM66.9393 120.797H79.5665V145.779C79.5665 146.988 80.5446 147.967 81.7544 147.967H138.411C139.619 147.967 140.598 146.989 140.598 145.779L140.597 120.797H152.285V146.321H144.226C143.017 146.321 142.038 147.299 142.038 148.509V155.625H77.1877V148.509C77.1877 147.3 76.2096 146.321 74.9998 146.321H66.9402L66.9393 120.797ZM56.6916 150.697H72.8122V155.625H56.6916V150.697Z" fill="white"/>
<path d="M75.1855 73.4685C76.3942 73.4685 77.3734 72.4893 77.3734 71.2806C77.3734 70.073 76.3952 69.0928 75.1855 69.0928L62.4279 69.0938C61.2192 69.0938 60.24 70.073 60.24 71.2817C60.24 72.4893 61.2181 73.4696 62.4279 73.4696L75.1855 73.4685Z" fill="white"/>
<path d="M126.92 32.6609H140.199C141.408 32.6609 142.387 31.6818 142.387 30.4731C142.387 29.2654 141.409 28.2852 140.199 28.2852H126.92C125.711 28.2852 124.732 29.2644 124.732 30.4731C124.732 31.6807 125.71 32.6609 126.92 32.6609Z" fill="white"/>
<path d="M142.386 37.9495C142.386 36.7418 141.408 35.7616 140.198 35.7616H126.919C125.71 35.7616 124.731 36.7408 124.731 37.9495C124.731 39.1571 125.709 40.1374 126.919 40.1374H140.198C141.407 40.1374 142.386 39.1582 142.386 37.9495Z" fill="white"/>
<path d="M125.761 96.6593H94.4087C93.2 96.6593 92.2208 97.6374 92.2208 98.8472C92.2208 100.056 93.199 101.035 94.4087 101.035H125.761C126.97 101.035 127.949 100.057 127.949 98.8472C127.949 97.6374 126.97 96.6593 125.761 96.6593Z" fill="white"/>
<path d="M125.761 113.246H94.4087C93.2 113.246 92.2208 114.225 92.2208 115.434C92.2208 116.643 93.199 117.622 94.4087 117.622H125.761C126.97 117.622 127.949 116.644 127.949 115.434C127.949 114.225 126.97 113.246 125.761 113.246Z" fill="white"/>
<path d="M125.761 129.836H94.4087C93.2 129.836 92.2208 130.814 92.2208 132.024C92.2208 133.233 93.199 134.212 94.4087 134.212H125.761C126.97 134.212 127.949 133.234 127.949 132.024C127.949 130.814 126.97 129.836 125.761 129.836Z" fill="white"/>
</svg>
