<svg width="220" height="180" viewBox="0 0 220 180" fill="none" xmlns="http://www.w3.org/2000/svg">
<path d="M177.027 76.027H182.973C184.122 76.027 185 75.1486 185 74V40.5541C185 36.5 181.689 33.1892 177.635 33.1892H172.432C168.919 33.1892 165.946 35.6892 165.27 38.9324V31.027C165.27 29.8784 164.392 29 163.243 29H124.459C123.311 29 122.432 29.8784 122.432 31.027V39.473H54.8649C54.3243 35.8919 51.2838 33.1892 47.5676 33.1892H42.3649C38.3108 33.1892 35 36.5 35 40.5541V74C35 75.1486 35.8784 76.027 37.027 76.027H42.973V136.77L38.5135 132.311C37.7027 131.5 36.4189 131.5 35.6757 132.311C34.8649 133.122 34.8649 134.405 35.6757 135.149L50.8784 150.351C51.2838 150.757 51.8243 150.959 52.2973 150.959C52.7703 150.959 53.3108 150.757 53.7162 150.351C54.527 149.541 54.527 148.257 53.7162 147.514L47.0946 140.892V112.378H74.7297V122.243C74.7297 128.122 79.4595 132.851 85.3378 132.851H85.7432C85.8108 132.851 85.9459 132.851 86.0135 132.851H156.149C156.216 132.851 156.216 132.851 156.284 132.851H156.622C162.5 132.851 167.23 128.122 167.23 122.243C167.23 121.095 166.351 120.216 165.203 120.216H149.73V112.378H173.108V136.432L168.986 132.311C168.176 131.5 166.892 131.5 166.149 132.311C165.338 133.122 165.338 134.405 166.149 135.149L181.351 150.351C181.757 150.757 182.297 150.959 182.77 150.959C183.243 150.959 183.784 150.757 184.189 150.351C185 149.541 185 148.257 184.189 147.514L177.027 140.486V76.027ZM172.973 96.2973H149.595V72.0405H165V74C165 75.1486 165.878 76.027 167.027 76.027H172.973V96.2973ZM126.419 55.8243V49.2027H138.108V49.6081V49.6757V49.7432V55.8243H136.892H134.595H126.419ZM66.3514 55.8243H65.9459H63.6487H54.9324V51.7027H122.365V55.8243H66.3514ZM165.068 43.527V47.6486H142.162V47.1757C142.162 46.027 141.284 45.1486 140.135 45.1486H124.392C123.243 45.1486 122.365 46.027 122.365 47.1757V47.6486H54.9324V43.527H165.068ZM150 39.473V33.0541H153.784V39.473H150ZM145.946 39.473H142.162V33.0541H145.946V39.473ZM138.108 39.473H134.324V33.0541H138.108V39.473ZM149.595 67.9865C149.459 64.8784 148.176 62.0405 146.216 59.8784H165.068V67.9865H149.595ZM142.162 51.7027H165.068V55.8243H145.608H142.162V51.7027ZM54.9324 59.8784H63.6487H65.9459C70.5405 59.8784 74.3243 63.4595 74.5946 67.9865H54.9324V59.8784ZM169.122 40.5541C169.122 38.7297 170.608 37.2432 172.432 37.2432H177.635C179.459 37.2432 180.946 38.7297 180.946 40.5541V71.973H169.122V40.5541ZM161.149 39.473H157.838V33.0541H161.149V39.473ZM126.419 33.0541H130.203V39.473H126.419V33.0541ZM39.0541 40.5541C39.0541 38.7297 40.5405 37.2432 42.3649 37.2432H47.5676C49.3919 37.2432 50.8784 38.7297 50.8784 40.5541V41.5V57.8514V71.973H39.0541V40.5541ZM52.9054 76.027C54.0541 76.027 54.9324 75.1486 54.9324 74V72.0405H74.5946V96.2973H47.027V76.027H52.9054ZM47.027 108.257V100.351H74.6622V108.257H47.027ZM156.554 128.73H156.351C156.284 128.73 156.284 128.73 156.216 128.73H93.9189C94.9324 127.446 95.6757 125.892 96.0135 124.203H162.77C161.892 126.838 159.459 128.73 156.554 128.73ZM94.1892 120.149C93.0405 120.149 92.1622 121.027 92.1622 122.176C92.1622 125.689 89.3919 128.595 85.8784 128.73H85.2703H85.2027C81.6216 128.662 78.7162 125.757 78.7162 122.176V110.351V110.284V110.216V98.3919V98.3243V98.2568V70.0811V70.0135V69.9459V68.527C78.7162 65.1487 77.4324 62.1081 75.2703 59.8784H134.595H136.892C141.689 59.8784 145.541 63.7973 145.541 68.527V120.081H94.1892V120.149ZM149.662 108.257V100.351H173.041V108.257H149.662Z" fill="white"/>
</svg>
