<svg width="220" height="180" viewBox="0 0 220 180" fill="none" xmlns="http://www.w3.org/2000/svg">
<g clip-path="url(#clip0_1_1996)">
<path d="M130.034 86.0171V85.9795C130.034 85.9419 130.034 85.8668 129.997 85.8292C129.959 85.7165 129.921 85.6413 129.883 85.5286L121.047 67.5308L121.009 67.3805L120.934 67.3053C120.896 67.2302 120.82 67.1174 120.745 67.0799C120.669 67.0047 120.594 66.9296 120.518 66.892L119.008 65.9902L118.781 66.7793C118.441 66.9672 118.177 67.3053 118.026 67.7186L109.303 95.8614C109.189 96.162 109.189 96.5002 109.303 96.8008L109.189 97.2516L110.058 97.7401C110.134 97.7777 110.209 97.8153 110.247 97.8153C110.285 97.8528 110.322 97.8528 110.398 97.8904C110.549 97.928 110.7 97.9655 110.889 97.9655H111.078C111.153 97.9655 111.229 97.928 111.342 97.928C111.493 97.8904 111.606 97.8528 111.72 97.7777L129.279 87.6703L129.393 87.5952C129.43 87.5952 129.43 87.5576 129.43 87.5576C129.468 87.5576 129.468 87.52 129.506 87.52L129.695 87.3697V87.3322C129.732 87.257 129.77 87.2194 129.846 87.1443L129.921 87.0316C129.959 86.9188 130.034 86.8061 130.034 86.731L130.072 86.6183V86.5431C130.072 86.5055 130.072 86.468 130.072 86.4304V86.3928V86.1674C130.034 86.0546 130.034 86.0546 130.034 86.0171ZM125.201 86.2049L113.608 92.8555L117.12 81.5082L125.201 86.2049ZM118.101 78.352L119.914 72.5281L124.634 82.1094L118.101 78.352Z" fill="white"/>
<path d="M165.758 106.645L129.053 31.7606L129.015 31.6854C129.015 31.6479 128.977 31.6479 128.977 31.6103C128.94 31.5351 128.864 31.46 128.826 31.4224C128.789 31.3848 128.751 31.3473 128.713 31.3097C128.675 31.2721 128.6 31.197 128.524 31.1594L128.486 31.1218L109.605 20.1878C109.114 19.8873 108.472 19.8873 107.981 20.1878L91.9322 29.431L91.8189 29.5061C91.7811 29.5437 91.7434 29.5813 91.6678 29.6189L91.5546 29.694C91.3657 29.8819 91.2525 30.1073 91.1769 30.3328L55.0758 147.037C54.8492 147.751 55.1513 148.54 55.7933 148.916L74.5991 159.775C74.6746 159.812 74.7502 159.85 74.7879 159.85C74.8257 159.887 74.9012 159.887 74.939 159.925C75.09 159.962 75.2788 160 75.4299 160C75.5432 160 75.6565 160 75.8075 159.962C75.8453 159.962 75.883 159.962 75.9208 159.925L76.0341 159.887C76.0718 159.887 76.1096 159.85 76.1474 159.85H76.1851L96.5015 148.202C96.8413 148.014 97.1057 147.676 97.2567 147.262L105.225 121.412L125.163 109.952L143.176 120.36L143.252 120.435L143.327 120.472C143.403 120.51 143.478 120.547 143.554 120.547L143.667 120.585C143.743 120.585 143.78 120.623 143.856 120.623H144.007C144.045 120.623 144.082 120.623 144.12 120.623C144.158 120.623 144.196 120.623 144.234 120.623C144.309 120.623 144.347 120.585 144.422 120.585C144.46 120.585 144.536 120.547 144.573 120.547C144.611 120.547 144.687 120.51 144.724 120.472L144.8 120.435L165.192 108.712C165.834 108.298 166.136 107.397 165.758 106.645ZM134.906 104.278L140.155 114.949L128.298 108.073L134.906 104.278ZM136.832 100.972C136.794 100.934 136.794 100.934 136.757 100.896C136.681 100.821 136.605 100.784 136.568 100.709L135.397 99.9946L135.17 100.445C135.057 100.483 134.944 100.521 134.831 100.596L102.997 118.894C102.657 119.082 102.392 119.42 102.241 119.834L94.2735 145.684L78.1866 154.928L112.928 42.7697L126.938 34.7289L162.209 106.683L144.687 116.753L137.096 101.347C137.021 101.197 136.945 101.084 136.832 100.972ZM58.5499 146.774L93.707 33.226L109.643 42.4315L74.4858 155.98L58.5499 146.774ZM111.569 39.8389L96.0106 30.8212L108.85 23.4568L124.408 32.4745L111.569 39.8389Z" fill="white"/>
</g>
<defs>
<clipPath id="clip0_1_1996">
<rect width="110.909" height="140" fill="white" transform="translate(55 20)"/>
</clipPath>
</defs>
</svg>
