<svg width="244" height="151" viewBox="0 0 244 151" fill="none" xmlns="http://www.w3.org/2000/svg">
<path d="M0.000440246 138.824C0.000440246 130.534 0.000441213 122.244 0.0162939 113.954C0.0162939 113.162 0.0321462 112.353 0.206526 111.593C0.682108 109.532 2.55273 108.185 5.00991 108.137C7.64146 108.09 10.2889 108.106 12.9204 108.106C18.2945 108.106 23.6527 108.09 29.0268 108.121C31.7376 108.137 33.5766 109.389 34.1156 111.561C34.2899 112.258 34.3216 113.003 34.3216 113.732C34.3375 122.656 34.3375 131.58 34.3216 140.504C34.3216 141.994 33.957 142.359 32.451 142.359C29.978 142.359 27.4891 142.359 25.0161 142.359C23.6686 142.359 23.2564 141.962 23.2564 140.583C23.2564 133.53 23.2564 119.233 23.2564 119.138C23.2723 116.617 22.9077 116.253 20.4188 116.253C18.1043 116.253 15.7739 116.253 13.4594 116.253C11.5729 116.253 11.0498 116.728 11.0498 118.599C11.0339 125.716 11.0339 132.832 11.0339 139.949C11.0339 140.33 11.0498 140.71 11.0181 141.091C10.9705 141.883 10.495 142.327 9.73402 142.343C6.94394 142.359 4.13801 142.359 1.34792 142.343C0.713814 142.343 0.365055 142.042 0.143116 141.598C-0.015411 141.265 0.000440246 139.173 0.000440246 138.824Z" fill="white"/>
<path d="M39.0129 150.697C38.6641 150.697 38.3154 150.617 38.0142 150.427C37.491 150.11 37.3008 149.603 37.3008 148.826C37.3325 139.744 37.3166 130.661 37.3166 121.579C37.3166 118.219 38.8702 116.523 42.2151 116.475C46.6222 116.396 51.0451 116.443 55.468 116.459C57.2752 116.475 59.0032 116.871 60.5726 117.775C62.9505 119.154 64.1553 121.341 64.6467 123.925C65.4077 127.999 65.2967 132.088 64.187 136.098C63.2517 139.506 60.9531 141.567 57.4972 142.026C55.0875 142.343 48.0965 142.359 46.8917 142.359C46.8917 142.866 46.8917 143.294 46.8917 143.722C46.8917 145.434 46.8917 146.797 46.8917 148.509C46.8917 149.952 46.2259 150.665 44.7991 150.681C43.4675 150.712 40.186 150.712 39.0129 150.697ZM46.9392 134.323C46.9551 134.941 47.4465 135.417 48.0648 135.432C49.1586 135.464 50.6329 135.448 51.6634 135.432C53.8035 135.385 54.8973 134.228 55.1034 132.136C55.2936 130.233 55.2619 128.268 55.04 126.366C54.8339 124.464 53.4864 123.449 51.5524 123.386C50.5695 123.354 49.5866 123.37 48.6038 123.37C47.2563 123.37 46.8917 123.719 46.8917 125.05C46.8758 127.507 46.9075 132.167 46.9392 134.323Z" fill="white"/>
<path d="M96.417 124.527C95.4658 119.787 93.0721 117.346 88.3638 116.585C83.8617 115.856 79.3119 115.856 74.8097 116.696C71.0051 117.41 68.5796 119.708 67.6126 123.449C66.598 127.364 66.598 131.311 67.5809 135.226C68.5321 139.014 70.9258 141.392 74.7939 142.057C77.1242 142.454 85.5262 142.565 87.3175 142.374C92.4063 141.82 95.2756 139.394 96.3219 134.75C97.0828 131.358 97.0987 127.935 96.417 124.527ZM87.27 131.453C87.27 133.926 85.2725 135.923 82.7995 135.923H80.9606C78.4876 135.923 76.4901 133.926 76.4901 131.453V127.079C76.4901 124.606 78.4876 122.609 80.9606 122.609H82.7044C85.225 122.609 87.27 124.653 87.27 127.174V131.453Z" fill="white"/>
<path d="M107.387 142.248C102.346 141.836 99.54 139.062 98.9376 134.037C98.5413 130.772 98.5413 127.507 99.112 124.257C99.8887 119.708 102.996 116.744 107.593 116.554C112.381 116.364 117.184 116.443 121.987 116.443C122.939 116.443 123.351 116.903 123.367 117.886C123.398 119.058 123.382 120.231 123.367 121.42C123.351 122.53 122.907 122.958 121.781 122.958C119.182 122.974 116.566 122.958 113.966 122.974C110.51 122.989 108.861 124.432 108.592 127.903C108.481 129.441 108.513 131.026 108.75 132.547C109.083 134.703 110.383 135.733 112.587 135.797C115.535 135.86 118.5 135.844 121.448 135.844C123.779 135.844 123.906 135.971 123.906 138.333C123.906 139.157 123.906 139.981 123.906 140.806C123.89 141.947 123.493 142.375 122.352 142.375C119.958 142.391 109.971 142.47 107.387 142.248Z" fill="white"/>
<path d="M126.314 130.756C126.314 127.649 126.298 124.526 126.314 121.42C126.33 118.265 127.931 116.522 131.086 116.49C137.189 116.411 143.292 116.411 149.38 116.49C152.598 116.522 154.183 118.25 154.183 121.483C154.199 127.871 154.199 134.259 154.183 140.646C154.183 142.01 153.803 142.374 152.408 142.374C150.442 142.374 148.46 142.374 146.494 142.374C144.988 142.374 144.624 142.01 144.624 140.535C144.624 135.384 144.624 130.248 144.624 125.097C144.624 123.369 144.228 122.973 142.484 122.957C140.898 122.957 139.313 122.941 137.712 122.957C136.285 122.973 135.826 123.433 135.826 124.859C135.826 130.042 135.826 135.21 135.826 140.393C135.826 142.057 135.509 142.374 133.812 142.374C131.878 142.374 129.928 142.374 127.994 142.374C126.679 142.374 126.282 141.978 126.282 140.678C126.314 137.365 126.314 134.068 126.314 130.756Z" fill="white"/>
<path d="M180.31 132.072C182.688 132.056 184.098 131.01 184.32 128.648C184.511 126.714 184.463 124.701 184.162 122.783C183.512 118.678 181.784 116.95 177.726 116.459C172.986 115.904 168.198 115.856 163.474 116.601C159.083 117.299 157.149 119.169 156.864 123.544C156.594 127.618 156.658 131.739 157.022 135.812C157.403 139.981 159.749 142.089 163.95 142.232C170.037 142.438 176.14 142.359 182.244 142.374C183.116 142.374 183.575 141.851 183.575 140.98C183.575 139.87 183.575 138.761 183.575 137.651C183.575 135.701 183.338 135.464 181.388 135.464C177.345 135.464 173.319 135.479 169.276 135.432C167.152 135.4 166.153 134.307 166.264 132.119C166.692 132.087 176.014 132.087 180.31 132.072ZM168.658 122.767C169.974 122.688 171.321 122.736 172.637 122.783C173.097 122.799 173.572 122.957 174 123.164C174.73 123.528 175.062 124.146 174.872 124.971C174.682 125.763 173.953 125.985 173.224 125.985C170.877 126.001 168.674 125.985 166.28 125.985C165.963 123.861 166.676 122.894 168.658 122.767Z" fill="white"/>
<path d="M196.479 118.218C196.479 116.839 196.098 116.443 194.751 116.427C192.69 116.411 190.629 116.411 188.553 116.427C187.3 116.427 186.888 116.823 186.888 118.091C186.872 125.652 186.872 133.213 186.888 140.758C186.888 141.931 187.332 142.359 188.521 142.359C190.55 142.375 192.579 142.359 194.624 142.359C196.098 142.359 196.479 141.962 196.479 140.504C196.479 136.795 196.479 133.07 196.479 129.361C196.479 125.652 196.479 121.943 196.479 118.218Z" fill="white"/>
<path d="M215.708 141.55C214.202 139.584 210.001 134.132 207.861 131.516C206.133 129.392 206.117 128.774 207.718 126.603C207.893 126.381 213.489 119.042 214.836 117.251C215.058 116.95 214.852 116.537 214.487 116.522C212.617 116.49 208.273 116.411 206.18 116.474C205.61 116.49 204.849 116.886 204.516 117.346C202.328 120.389 200.236 123.496 198.096 126.571C196.891 128.315 196.938 129.931 198.206 131.643C200.6 134.845 202.915 138.11 205.277 141.344C205.8 142.073 206.482 142.39 207.401 142.374C209.399 142.342 213.52 142.295 215.359 142.263C215.724 142.279 215.93 141.851 215.708 141.55Z" fill="white"/>
<path d="M243.99 118.123C243.974 116.823 243.578 116.427 242.135 116.427C239.662 116.427 237.205 116.427 234.732 116.427C234.018 116.427 222.921 116.427 218.086 116.427C216.755 116.427 216.374 116.823 216.374 118.123C216.374 119.359 216.358 120.595 216.374 121.832C216.39 122.704 216.818 123.195 217.722 123.211C218.895 123.227 223.952 123.211 225.41 123.211C225.41 123.686 225.41 124.019 225.41 124.368C225.41 129.741 225.41 135.099 225.41 140.472C225.41 142.041 225.743 142.358 227.328 142.358C229.199 142.358 231.07 142.358 232.956 142.358C234.668 142.358 234.969 142.057 234.969 140.377C234.969 135.067 234.969 129.773 234.969 124.463C234.969 124.083 234.969 123.718 234.969 123.211C237.062 123.211 241.422 123.211 242.531 123.211C243.498 123.195 243.974 122.704 243.974 121.832C244.006 120.611 244.006 119.375 243.99 118.123Z" fill="white"/>
<path fill-rule="evenodd" clip-rule="evenodd" d="M103.249 0L77.0765 10.287V19.1691L82.5928 16.9602V23.3163L77.0765 25.4566V31.5322L82.5928 29.3232V35.6793L77.0765 37.8197V43.833C77.0765 44.7048 85.8712 46.2073 85.8712 46.2073C86.7431 46.2073 85.8712 57.4106 85.8712 57.4106C85.8712 57.4106 103.249 63.6642 103.249 62.7924V4.35892L122.59 10.5565V106.152C122.59 106.881 123.176 107.467 123.905 107.467H125.491C126.22 107.467 126.806 106.881 126.806 106.152V7.67169L103.249 0Z" fill="white"/>
<path fill-rule="evenodd" clip-rule="evenodd" d="M39.1564 42.3211L57.7199 34.6494L88.9974 45.301V106.389C88.9974 107.01 88.4943 107.003 87.8914 106.994C87.8174 106.993 87.742 106.992 87.6657 106.992H85.9219C85.8463 106.992 85.7707 106.993 85.696 106.994C85.0814 107.003 84.5269 107.011 84.5269 106.389V48.1541L57.7358 39.151L58.0053 106.215C58.0053 107.023 57.3553 107.673 56.5627 107.673H40.599C39.8063 107.673 39.1564 107.023 39.1564 106.215V56.6476L45.7343 54.2089V47.6943L39.1564 50.3547V42.3211Z" fill="white"/>
<path fill-rule="evenodd" clip-rule="evenodd" d="M67.755 62.6422L92.7548 55.3984L108.544 62.4837V106.453C108.544 107.119 108.005 107.674 107.323 107.674H105.611C104.946 107.674 104.391 107.135 104.391 106.453V65.2417L92.7548 60.6608V106.58C92.7548 107.182 92.2633 107.674 91.6609 107.674H68.8488C68.2464 107.674 67.755 107.182 67.755 106.58V84.2281L73.9223 82.0914V76.084L67.755 78.2064V62.6422Z" fill="white"/>
<path d="M159.772 20.9463L136.991 28.6655V106.381C136.991 107.078 137.641 107.491 138.466 107.491H158.313C159.122 107.491 159.788 107.078 159.788 106.381V25.5271L178.811 31.6771L179.112 106.603C179.112 107.174 179.651 107.174 180.333 107.174H181.791C182.457 107.174 183.012 107.189 183.012 106.603V28.6338L159.772 20.9463Z" fill="white"/>
<path d="M173.113 38.2947V43.5095L179.201 45.4591V40.1968L173.113 38.2947Z" fill="white"/>
<path d="M173.113 47.8057V53.0205L179.201 54.9701V49.7077L173.113 47.8057Z" fill="white"/>
<path d="M186.73 58.457L168.99 65.6057V106.675C168.99 107.229 169.466 107.689 170.052 107.689H185.683C186.27 107.689 186.745 107.245 186.745 106.675V63.133L204.564 68.9343V106.548C204.564 107.166 205.087 107.673 206.006 107.673H207.465C207.861 107.673 208.654 107.166 208.654 106.548L208.701 65.9227L186.73 58.457Z" fill="white"/>
<path d="M198.857 75.084V81.8997L205.087 83.6433V76.9068L198.857 75.084Z" fill="white"/>
</svg>
