<svg width="220" height="180" viewBox="0 0 220 180" fill="none" xmlns="http://www.w3.org/2000/svg">
<g clip-path="url(#clip0_1_2053)">
<path d="M104.919 113.073C100.737 113.073 99.3432 119.641 99.0954 120.973C98.8166 122.491 97.9801 127.076 100.83 129.151C101.512 129.616 102.317 129.864 103.154 129.833C105.167 129.709 107.15 129.275 109.04 128.594L109.659 128.346V128.377C113.501 127.138 115.514 126.425 117.249 125.031C118.798 123.761 120.037 122.181 120.905 120.353L121.462 119.207L121.772 120.446C122.02 121.437 122.268 122.584 122.515 123.916C122.608 124.442 122.918 124.907 123.352 125.217C123.786 125.527 124.343 125.651 124.87 125.527C125.397 125.434 125.861 125.124 126.171 124.69C126.45 124.257 126.574 123.73 126.512 123.234V123.172C125.366 117.069 124.188 113.507 121.462 113.476C119.634 113.414 118.86 114.932 118.085 116.76C117.435 118.742 116.258 120.508 114.709 121.902C113.47 122.924 111.58 123.513 107.8 124.752C106.406 125.248 104.95 125.62 103.463 125.805L103.03 125.867L102.937 125.434C102.689 124.226 102.751 122.955 103.061 121.747C103.309 120.198 103.897 118.711 104.765 117.41L104.95 117.162L105.26 117.224C105.911 117.348 106.53 117.627 107.026 118.061L107.181 118.185V118.402C107.212 119.517 108.141 120.353 109.225 120.353C110.341 120.353 111.208 119.486 111.239 118.371C111.239 117.224 110.774 116.078 109.969 115.273C108.637 113.91 106.84 113.135 104.919 113.073Z" fill="white"/>
<path d="M99.3738 140.025C99.7455 140.396 100.272 140.613 100.799 140.613H124.529C125.055 140.613 125.582 140.396 125.954 140.025C126.325 139.653 126.542 139.126 126.542 138.6C126.542 138.073 126.325 137.546 125.954 137.175C125.582 136.803 125.055 136.586 124.529 136.586H100.799C100.272 136.586 99.7455 136.803 99.3738 137.175C99.002 137.546 98.7852 138.073 98.7852 138.6C98.7852 139.126 99.002 139.653 99.3738 140.025Z" fill="white"/>
<path d="M80.7249 155.855C81.0967 156.227 81.6233 156.444 82.1499 156.444H167.187C167.714 156.444 168.24 156.227 168.612 155.855C168.984 155.483 169.201 154.957 169.201 154.43V127.819C169.201 127.292 168.984 126.766 168.612 126.394C168.24 126.022 167.714 125.805 167.187 125.805C166.66 125.805 166.134 126.022 165.762 126.394C165.39 126.766 165.173 127.292 165.173 127.819V152.416H84.1945V39.0335C84.1945 35.6568 82.9864 32.373 80.7559 29.8327L80.0743 29.0582H155.198C157.862 29.0582 160.372 30.1115 162.261 31.9703C164.151 33.86 165.173 36.3693 165.173 39.0335V53.3147C165.173 53.8724 165.39 54.368 165.762 54.7398C166.134 55.1115 166.66 55.3284 167.187 55.3284C167.714 55.3284 168.24 55.1115 168.612 54.7398C168.984 54.368 169.201 53.8414 169.201 53.3147V39.0335C169.201 35.285 167.745 31.7844 165.081 29.1202C162.447 26.456 158.947 25 155.198 25H70.1611C66.3817 25 62.8191 26.487 60.1549 29.1512C57.4907 31.8154 56.0037 35.3779 56.0037 39.1574V71.6233C56.0037 74.6283 54.3928 77.4473 51.7596 78.9653C49.1574 80.4833 45.9046 80.4833 43.2714 78.9653C40.6691 77.4473 39.0273 74.6592 39.0273 71.6233V67.1623H47.2986C48.4139 67.1623 49.3123 66.2639 49.3123 65.1487C49.3123 64.0335 48.4139 63.1351 47.2986 63.1351H37.0136C35.8984 63.1351 35 64.0335 35 65.1487V71.6233C35 74.969 36.3011 78.0979 38.6865 80.4833C41.0409 82.8377 44.2007 84.1388 47.5465 84.1698H80.1673V154.43C80.1363 154.957 80.3532 155.452 80.7249 155.855ZM56.7782 80.1115L57.3668 79.368C59.1016 77.1685 60.062 74.4424 60.062 71.6543V39.1574C60.062 36.4622 61.1152 33.9219 63.0359 32.0012C64.9566 30.0805 67.4969 29.0273 70.1921 29.0273C72.8563 29.0273 75.3655 30.0805 77.2553 31.9393C79.145 33.798 80.1673 36.3383 80.1673 39.0025V80.0805H56.7782V80.1115Z" fill="white"/>
<path d="M184.194 80.2042L182.583 79.3987H183.823C183.017 77.7568 181.809 76.3318 180.291 75.2785L179.981 75.0617L182.521 68.9278C182.893 68.0294 182.552 66.9762 181.716 66.4495L181.375 66.2327L183.73 60.5016C184.287 59.0765 184.256 57.5586 183.668 56.1335C183.079 54.7085 181.933 53.5933 180.508 52.9737C179.083 52.3851 177.472 52.3851 176.047 52.9737C174.622 53.5623 173.476 54.7085 172.887 56.1335L170.564 61.7717L170.192 61.6788C170.037 61.6478 169.882 61.6168 169.727 61.6168C168.922 61.6168 168.178 62.0815 167.868 62.856L142.466 124.628C141.815 126.208 141.691 127.881 142.125 129.554C142.528 131.195 143.426 132.651 144.758 133.736L145.006 133.953L143.426 137.825C142.992 138.847 143.488 140.055 144.541 140.458C145.564 140.892 146.772 140.396 147.175 139.343L148.754 135.471L149.095 135.502C149.374 135.533 149.591 135.533 149.777 135.533C151.357 135.533 152.875 135.068 154.176 134.2C155.477 133.333 156.499 132.094 157.088 130.638L178.432 78.903L178.928 79.3987C179.888 80.3591 180.539 81.5672 180.818 82.9303C181.096 84.2624 180.942 85.6255 180.446 86.8956L175.087 99.9377L174.839 100.588C174.622 101.084 174.622 101.642 174.839 102.137C175.056 102.633 175.458 103.036 175.923 103.222C176.419 103.438 176.976 103.407 177.472 103.222C177.968 103.005 178.37 102.602 178.556 102.137L183.916 89.0951L184.194 88.4446C185.248 85.8113 185.248 82.8374 184.194 80.2042ZM153.401 129.151C152.782 130.638 151.357 131.536 149.839 131.536C149.343 131.536 148.847 131.443 148.383 131.257C146.431 130.452 145.471 128.191 146.276 126.239L147.67 122.893L154.795 125.836L153.401 129.151ZM156.313 122.057L149.188 119.114L170.904 66.3256L178.03 69.2686L156.313 122.057ZM177.658 64.7457L174.374 63.3826L176.697 57.7135C177.069 56.8151 178.122 56.3814 179.021 56.7531C179.919 57.1249 180.353 58.1781 179.981 59.0765L177.658 64.7457Z" fill="white"/>
<path d="M113.966 44.9814H138.315C139.43 44.9814 140.329 44.083 140.329 42.9677C140.329 41.8525 139.43 40.9541 138.315 40.9541H113.966C112.851 40.9541 111.952 41.8525 111.952 42.9677C111.952 44.083 112.851 44.9814 113.966 44.9814Z" fill="white"/>
<path d="M156.283 55.4519C155.911 55.0801 155.384 54.8633 154.858 54.8633H97.4228C96.3076 54.8633 95.4092 55.7617 95.4092 56.8769C95.4092 57.9922 96.3076 58.8905 97.4228 58.8905H154.858C155.384 58.8905 155.911 58.6737 156.283 58.3019C156.655 57.9302 156.871 57.4036 156.871 56.8769C156.871 56.3503 156.686 55.8236 156.283 55.4519Z" fill="white"/>
<path d="M144.697 98.6367C144.697 97.5214 143.798 96.623 142.683 96.623H97.4228C96.3076 96.623 95.4092 97.5214 95.4092 98.6367C95.4092 99.7519 96.3076 100.65 97.4228 100.65H142.683C143.798 100.681 144.697 99.7519 144.697 98.6367Z" fill="white"/>
<path d="M97.4228 72.8319H154.858C155.973 72.8319 156.871 71.9336 156.871 70.8183C156.871 69.7031 155.973 68.8047 154.858 68.8047H97.4228C96.3076 68.8047 95.4092 69.7031 95.4092 70.8183C95.4092 71.9336 96.3076 72.8319 97.4228 72.8319Z" fill="white"/>
<path d="M97.4228 86.741H150.8C151.326 86.741 151.853 86.5242 152.225 86.1524C152.596 85.7807 152.813 85.254 152.813 84.7274C152.813 84.2007 152.596 83.6741 152.225 83.3023C151.853 82.9306 151.326 82.7137 150.8 82.7137H97.4228C96.3076 82.7137 95.4092 83.6121 95.4092 84.7274C95.4092 85.8426 96.3076 86.741 97.4228 86.741Z" fill="white"/>
</g>
<defs>
<clipPath id="clip0_1_2053">
<rect width="150" height="131.444" fill="white" transform="translate(35 25)"/>
</clipPath>
</defs>
</svg>
