<svg width="220" height="180" viewBox="0 0 220 180" fill="none" xmlns="http://www.w3.org/2000/svg">
<path d="M134.882 28.46C134.973 28.46 135.034 28.46 135.126 28.46L159.298 25.8894C160.549 25.7685 161.465 24.6495 161.343 23.3794C161.221 22.1394 160.091 21.2322 158.81 21.3531L134.638 23.9237C133.386 24.0447 132.471 25.1636 132.593 26.4338C132.745 27.6132 133.722 28.46 134.882 28.46Z" fill="white"/>
<path d="M97.4336 32.4822C97.5251 32.4822 97.5862 32.4822 97.6777 32.4822L125.39 29.5185C126.641 29.3975 127.557 28.2785 127.435 27.0084C127.313 25.7685 126.184 24.8612 124.902 24.9822L97.2199 27.9459C95.9686 28.0669 95.053 29.1858 95.1751 30.456C95.2971 31.6052 96.2738 32.4822 97.4336 32.4822Z" fill="white"/>
<path d="M49.8221 129.68C49.9442 129.68 50.0358 129.68 50.1578 129.65L179.777 110.295C180.906 110.113 181.73 109.176 181.73 108.057L181.791 21.3834C181.791 20.7483 181.517 20.1435 181.028 19.6898C180.54 19.2665 179.899 19.0548 179.258 19.1152L168.881 20.1435C167.63 20.2644 166.714 21.3834 166.836 22.6233C166.959 23.8632 168.088 24.7705 169.339 24.6495L177.213 23.8935L177.152 106.091L52.1111 124.781V37.3511L86.9041 33.6314C88.1554 33.5104 89.071 32.3915 88.949 31.1213C88.8269 29.8814 87.6976 28.9741 86.4158 29.0951L49.5779 33.0265C48.4182 33.1475 47.5331 34.1152 47.5331 35.2947V127.412C47.5331 128.077 47.8383 128.712 48.3266 129.135C48.7539 129.498 49.2728 129.68 49.8221 129.68Z" fill="white"/>
<path d="M160.58 29.5185C161.831 29.5185 162.869 28.4902 162.869 27.2503V21.8068C162.869 20.839 162.258 19.9923 161.343 19.6596L148.219 15.1233C147.517 14.8814 146.754 15.0023 146.144 15.4257C145.533 15.8491 145.167 16.5447 145.167 17.2705V24.8007C145.167 26.0406 146.205 27.0689 147.456 27.0689C148.707 27.0689 149.745 26.0406 149.745 24.8007V20.4761L158.291 23.4398V27.2806C158.291 28.4902 159.328 29.5185 160.58 29.5185Z" fill="white"/>
<path d="M125.482 33.1475C126.733 33.1475 127.771 32.1193 127.771 30.8794V25.4358C127.771 24.4681 127.16 23.6213 126.245 23.2886L113.121 18.7523C112.419 18.5104 111.656 18.6314 111.046 19.0548C110.435 19.4781 110.069 20.1737 110.069 20.8995V28.4298C110.069 29.6697 111.107 30.6979 112.358 30.6979C113.609 30.6979 114.647 29.6697 114.647 28.4298V24.1052L123.193 27.0689V30.9096C123.193 32.1193 124.23 33.1475 125.482 33.1475Z" fill="white"/>
<path d="M87.6366 37.3814C88.8879 37.3814 89.9256 36.3531 89.9256 35.1132V29.6697C89.9256 28.7019 89.3152 27.8552 88.3996 27.5225L75.2759 22.9862C74.5739 22.7443 73.8109 22.8652 73.2005 23.2886C72.5901 23.712 72.2239 24.4076 72.2239 25.1334V32.6636C72.2239 33.9036 73.2616 34.9318 74.5129 34.9318C75.7642 34.9318 76.8019 33.9036 76.8019 32.6636V28.339L85.3476 31.3027V35.1435C85.3476 36.3531 86.3852 37.3814 87.6366 37.3814Z" fill="white"/>
<path d="M49.7916 129.619C50.463 129.619 51.1344 129.317 51.5617 128.772C52.3552 127.805 52.2027 126.383 51.226 125.597L42.6193 118.732V35.3854L49.0896 37.4419C50.2799 37.835 51.5922 37.1697 51.9585 35.9902C52.3553 34.8108 51.6838 33.5104 50.4935 33.1475L41.0323 30.1233C40.3303 29.9116 39.5673 30.0326 38.9874 30.456C38.4075 30.8794 38.0413 31.5749 38.0413 32.3007V119.821C38.0413 120.516 38.3465 121.152 38.8959 121.575L48.3571 129.135C48.7844 129.468 49.2727 129.619 49.7916 129.619Z" fill="white"/>
<path d="M49.8221 142.079C49.9442 142.079 50.0663 142.079 50.1578 142.049L175.565 123.238C176.481 123.087 177.213 122.452 177.427 121.545C177.641 120.668 177.335 119.73 176.603 119.186L163.327 109.145C162.38 108.42 161.007 108.571 160.214 109.448L149.44 121.484L137.812 112.895C136.866 112.2 135.553 112.321 134.76 113.168L123.345 125.355L112.541 116.494C111.564 115.708 110.13 115.829 109.336 116.766L98.9901 128.954L87.7587 120.154C86.8125 119.428 85.4697 119.518 84.6761 120.395L72.9869 132.885L62.0912 124.025C61.6029 123.631 60.9925 123.45 60.3821 123.51C59.7717 123.571 59.1918 123.904 58.8255 124.387L49.4558 136.393L41.8258 129.559C40.8797 128.712 39.4452 128.803 38.5907 129.71C37.7361 130.647 37.8277 132.069 38.7433 132.916L47.9909 141.202C48.4792 141.777 49.1201 142.079 49.8221 142.079ZM68.0732 134.791L55.0105 136.756L61.023 129.045L68.0732 134.791ZM94.0763 130.889L78.9994 133.158L86.5989 125.053L94.0763 130.889ZM118.462 127.23L104.728 129.287L111.381 121.424L118.462 127.23ZM144.313 123.359L129.449 125.597L136.774 117.795L144.313 123.359ZM169.553 119.549L155.452 121.666L162.258 114.045L169.553 119.549Z" fill="white"/>
<path d="M124.566 165.002C125.817 165.002 126.855 163.974 126.855 162.734V129.166C126.855 127.926 125.817 126.897 124.566 126.897C123.315 126.897 122.277 127.926 122.277 129.166V162.734C122.277 163.974 123.315 165.002 124.566 165.002Z" fill="white"/>
<path d="M103.202 165.002C104.453 165.002 105.491 163.974 105.491 162.734V132.795C105.491 131.555 104.453 130.527 103.202 130.527C101.951 130.527 100.913 131.555 100.913 132.795V162.734C100.913 163.974 101.951 165.002 103.202 165.002Z" fill="white"/>
</svg>
