<svg width="25" height="24" viewBox="0 0 25 24" fill="none" xmlns="http://www.w3.org/2000/svg">
<path fill-rule="evenodd" clip-rule="evenodd" d="M16.674 6.597C17.4236 6.59626 18.1506 6.34068 18.7357 5.87221C19.3208 5.40374 19.7293 4.75024 19.894 4.019H23.764C23.955 4.019 24.1381 3.94314 24.2731 3.80812C24.4081 3.67309 24.484 3.48996 24.484 3.299C24.484 3.10804 24.4081 2.92491 24.2731 2.78988C24.1381 2.65486 23.955 2.579 23.764 2.579H19.894C19.7295 1.84741 19.3209 1.19355 18.7356 0.724868C18.1502 0.256186 17.4229 0.000561764 16.673 0C15.7985 0.00105904 14.9601 0.349003 14.3418 0.967485C13.7235 1.58597 13.3758 2.42447 13.375 3.299C13.3761 4.17336 13.7239 5.0116 14.3421 5.62987C14.9604 6.24813 15.7986 6.59594 16.673 6.597H16.674ZM16.674 1.44C17.167 1.44053 17.6395 1.63673 17.9879 1.98549C18.3363 2.33425 18.532 2.80704 18.532 3.3C18.5315 3.79261 18.3355 4.26489 17.9872 4.61322C17.6389 4.96155 17.1666 5.15747 16.674 5.158C16.1814 5.15747 15.7091 4.96155 15.3608 4.61322C15.0125 4.26489 14.8165 3.79261 14.816 3.3C14.8163 2.80722 15.0121 2.33468 15.3604 1.98613C15.7088 1.63759 16.1812 1.44153 16.674 1.441V1.44ZM11.484 4.019H0.722C0.531044 4.019 0.347909 3.94314 0.212883 3.80812C0.0778569 3.67309 0.002 3.48996 0.002 3.299C0.002 3.10804 0.0778569 2.92491 0.212883 2.78988C0.347909 2.65486 0.531044 2.579 0.722 2.579H11.484C11.675 2.579 11.8581 2.65486 11.9931 2.78988C12.1281 2.92491 12.204 3.10804 12.204 3.299C12.204 3.48996 12.1281 3.67309 11.9931 3.80812C11.8581 3.94314 11.675 4.019 11.484 4.019ZM7.006 15.299C7.88053 15.2982 8.71903 14.9505 9.33751 14.3322C9.956 13.7139 10.3039 12.8755 10.305 12.001C10.3039 11.1265 9.956 10.2881 9.33751 9.66978C8.71903 9.05148 7.88053 8.70379 7.006 8.703C6.25661 8.70396 5.52982 8.95965 4.94489 9.4281C4.35997 9.89655 3.95166 10.5499 3.787 11.281H0.722C0.531044 11.281 0.347909 11.3569 0.212883 11.4919C0.0778569 11.6269 0.002 11.81 0.002 12.001C0.002 12.192 0.0778569 12.3751 0.212883 12.5101C0.347909 12.6451 0.531044 12.721 0.722 12.721H3.787C3.95151 13.4524 4.35987 14.1062 4.94502 14.5748C5.53017 15.0435 6.2573 15.2992 7.007 15.3L7.006 15.299ZM7.006 10.143C6.51615 10.1435 6.04627 10.3372 5.69839 10.6821C5.35052 11.027 5.15274 11.4952 5.148 11.985V12.018C5.153 12.5077 5.3509 12.9756 5.69874 13.3203C6.04659 13.6649 6.51632 13.8585 7.006 13.859C7.49878 13.8587 7.97132 13.6629 8.31987 13.3146C8.66841 12.9662 8.86447 12.4938 8.865 12.001C8.86447 11.5082 8.66841 11.0358 8.31987 10.6874C7.97132 10.3391 7.49878 10.1433 7.006 10.143ZM23.764 12.721H12.196C12.005 12.721 11.8219 12.6451 11.6869 12.5101C11.5519 12.3751 11.476 12.192 11.476 12.001C11.476 11.81 11.5519 11.6269 11.6869 11.4919C11.8219 11.3569 12.005 11.281 12.196 11.281H23.764C23.955 11.281 24.1381 11.3569 24.2731 11.4919C24.4081 11.6269 24.484 11.81 24.484 12.001C24.484 12.192 24.4081 12.3751 24.2731 12.5101C24.1381 12.6451 23.955 12.721 23.764 12.721ZM20.699 21.421C20.5345 22.1524 20.1261 22.8062 19.541 23.2748C18.9558 23.7435 18.2287 23.9992 17.479 24C16.6046 23.9987 15.7665 23.6506 15.1484 23.0322C14.5303 22.4137 14.1828 21.5754 14.182 20.701C14.1831 19.8266 14.5309 18.9884 15.1491 18.3701C15.7674 17.7519 16.6056 17.4041 17.48 17.403C18.2294 17.404 18.9562 17.6597 19.5411 18.1281C20.126 18.5965 20.5343 19.2499 20.699 19.981H23.764C23.955 19.981 24.1381 20.0569 24.2731 20.1919C24.4081 20.3269 24.484 20.51 24.484 20.701C24.484 20.892 24.4081 21.0751 24.2731 21.2101C24.1381 21.3451 23.955 21.421 23.764 21.421H20.7H20.699ZM19.338 20.701C19.3375 20.2084 19.1415 19.7361 18.7932 19.3878C18.4449 19.0395 17.9726 18.8435 17.48 18.843C16.9874 18.8435 16.5151 19.0395 16.1668 19.3878C15.8185 19.7361 15.6225 20.2084 15.622 20.701C15.6223 21.1938 15.8181 21.6663 16.1664 22.0149C16.5148 22.3634 16.9872 22.5595 17.48 22.56C17.9726 22.5595 18.4449 22.3635 18.7932 22.0152C19.1415 21.6669 19.3375 21.1946 19.338 20.702V20.701ZM0.72 21.421H12.288C12.479 21.421 12.6621 21.3451 12.7971 21.2101C12.9321 21.0751 13.008 20.892 13.008 20.701C13.008 20.51 12.9321 20.3269 12.7971 20.1919C12.6621 20.0569 12.479 19.981 12.288 19.981H0.72C0.529044 19.981 0.345909 20.0569 0.210883 20.1919C0.0758569 20.3269 0 20.51 0 20.701C0 20.892 0.0758569 21.0751 0.210883 21.2101C0.345909 21.3451 0.529044 21.421 0.72 21.421Z" fill="#303030"/>
</svg>
