<svg width="220" height="180" viewBox="0 0 220 180" fill="none" xmlns="http://www.w3.org/2000/svg">
<g clip-path="url(#clip0_1_2038)">
<path d="M76.6981 136.54C75.4554 136.54 74.4249 135.509 74.4249 134.267V17.2732C74.4249 16.0305 75.4554 15 76.6981 15C77.9408 15 78.9713 16.0305 78.9713 17.2732V134.267C78.9713 135.509 77.9711 136.54 76.6981 136.54Z" fill="white"/>
<path d="M132.922 144.723C131.679 144.723 130.648 143.693 130.648 142.45V17.2732C130.648 16.0305 131.679 15 132.922 15C134.164 15 135.195 16.0305 135.195 17.2732V142.45C135.195 143.693 134.195 144.723 132.922 144.723Z" fill="white"/>
<path d="M147.137 144.723H132.952C132.831 144.723 132.74 144.723 132.619 144.693L72.9701 136.206C71.7274 136.024 70.8485 134.873 71.0303 133.63C71.2122 132.387 72.3639 131.539 73.6066 131.69L133.103 140.177H144.863V19.5464H73.2732C72.0305 19.5464 71 18.5159 71 17.2732C71 16.0305 72.0305 15 73.2732 15H147.137C148.379 15 149.41 16.0305 149.41 17.2732V142.45C149.41 143.693 148.379 144.723 147.137 144.723Z" fill="white"/>
<path d="M137.529 165H122.678C122.526 165 122.374 164.97 122.193 164.939L90.6408 158.271C89.58 158.059 88.8525 157.12 88.8525 156.059V136.479C88.8525 135.236 89.8831 134.206 91.1257 134.206C92.3684 134.206 93.3989 135.236 93.3989 136.479V154.21L122.92 160.454H135.256V142.42C135.256 141.177 136.286 140.146 137.529 140.146C138.772 140.146 139.802 141.177 139.802 142.42V162.727C139.802 164 138.772 165 137.529 165Z" fill="white"/>
<path d="M122.677 165C121.435 165 120.404 163.97 120.404 162.727V141.51C120.404 140.268 121.435 139.237 122.677 139.237C123.92 139.237 124.951 140.268 124.951 141.51V162.727C124.951 164 123.92 165 122.677 165Z" fill="white"/>
<path d="M87.3669 126.295C86.1243 126.295 85.0938 125.265 85.0938 124.022V27.6389C85.0938 26.3962 86.1243 25.3657 87.3669 25.3657H121.919C123.162 25.3657 124.193 26.3962 124.193 27.6389C124.193 28.8816 123.162 29.9121 121.919 29.9121H89.6401V124.052C89.6401 125.295 88.6399 126.295 87.3669 126.295Z" fill="white"/>
</g>
<defs>
<clipPath id="clip0_1_2038">
<rect width="78.4098" height="150" fill="white" transform="translate(71 15)"/>
</clipPath>
</defs>
</svg>
