<svg width="21" height="25" viewBox="0 0 21 25" fill="none" xmlns="http://www.w3.org/2000/svg">
<path d="M20.335 11.2666V17.4201C20.335 18.3467 20.1598 19.4451 19.9269 20.497C19.681 21.6086 19.3705 22.6681 19.1334 23.417C19.0344 23.7302 18.8363 24.004 18.568 24.1983C18.2995 24.3926 17.9749 24.4973 17.6418 24.4971H8.48807C8.19803 24.4973 7.91363 24.4179 7.66693 24.2682C7.42021 24.1182 7.22079 23.9035 7.09126 23.648L5.49103 20.4972L5.33471 20.1895C4.65125 18.8436 0.746828 13.344 0.746828 13.344C0.435864 12.9618 0.291683 12.4739 0.346299 11.9872C0.400706 11.5005 0.649308 11.055 1.03726 10.7488C1.42523 10.4424 1.92097 10.3007 2.41527 10.3542C2.90955 10.4078 3.36198 10.6526 3.67296 11.0348L5.9598 13.8442V2.3432C5.9598 1.68365 6.31722 1.07415 6.8973 0.744323C7.47758 0.414653 8.19222 0.414653 8.77229 0.744323C9.35257 1.0742 9.70978 1.6837 9.70978 2.3432V8.49722C9.70978 7.83767 10.0672 7.22818 10.6473 6.89835C11.2276 6.56868 11.9422 6.56868 12.5223 6.89835C13.1025 7.22822 13.4598 7.83772 13.4598 8.49722V9.72792C13.4598 9.06837 13.8172 8.45888 14.3973 8.12905C14.9775 7.79938 15.6922 7.79938 16.2722 8.12905C16.8525 8.45892 17.2097 9.06842 17.2097 9.72792V11.2665C17.2097 10.7167 17.5075 10.2088 17.9911 9.93395C18.4745 9.6593 19.0701 9.6593 19.5535 9.93395C20.0371 10.2088 20.3349 10.7167 20.3349 11.2665L20.335 11.2666Z" fill="white"/>
</svg>
